<svg id="Layer_1" data-name="Layer 1" xmlns="http://www.w3.org/2000/svg" width="60" height="60" viewBox="0 0 60 60"><defs><style>.cls-1{fill:gray;}</style></defs><title>ico</title><path class="cls-1" d="M30,38.27a20.3,20.3,0,0,1-9.83-2.53V60l10.28-8.83,9.39,7.7V35.74A20.3,20.3,0,0,1,30,38.27Z"/><path class="cls-1" d="M30,0A17.83,17.83,0,1,0,47.83,17.83,17.83,17.83,0,0,0,30,0Zm5.17,26.83h-11V24.18h3.91V14.09c0-.3,0-0.61,0-0.83V12.88H28.1l-0.18.28a5.25,5.25,0,0,1-.61.73l-1.44,1.36-1.92-2,4.49-4.32H31.3V24.18h3.86v2.65Z"/></svg>