<svg id="Layer_1" data-name="Layer 1" xmlns="http://www.w3.org/2000/svg" width="60" height="60" viewBox="0 0 60 60"><defs><style>.cls-1{fill:#00cd7f;}</style></defs><title>ico</title><path class="cls-1" d="M59.86,29.13c-0.74-5.46-5.87-4.58-2.93-11.89,0.85-2.1-2-3.75-4.64-3.43-3.12.38,0.07,5.39-1.67,9.29C49.31,26.05,42,40.17,29.32,40.5S7.51,34.48,2,35.93,4.25,47,6.2,49c4.64,4.7,21.26,13.23,37.82,3.83C58.69,44.51,60.61,34.59,59.86,29.13Z"/><path class="cls-1" d="M30.7,30.17c10.24-5.81,11.57-12.73,11.06-16.54s-4.1-3.2-2-8.29C40.3,3.88,38.31,2.73,36.48,3c-2.17.27,0.05,3.76-1.17,6.48-0.91,2.05-6,11.9-14.86,12.13S5.24,17.36,1.36,18.37s1.6,7.74,3,9.12C7.56,30.78,19.15,36.73,30.7,30.17Z"/></svg>