<svg xmlns="http://www.w3.org/2000/svg" viewBox="0 0 147.67 80"><defs><style>.a{fill:#231f20;fill-rule:evenodd;}.b{fill:#000100;}</style></defs><title>logos</title><polygon class="a" points="17.11 40.61 35.59 40.61 35.59 33.66 10.44 33.66 10.17 33.66 10.17 58.4 16.92 58.4 16.92 40.71 17.11 40.61 17.11 40.61"/><path class="a" d="M10.17,9.38H60.66l0.11,0A19.82,19.82,0,0,1,60.71,49H48.19v-25h7V42.14h5.66a13,13,0,0,0-.11-25.9H16.92v7.7H35.54l0,6.95H10.17V9.38h0Z"/><polygon class="a" points="111.29 0.27 141.78 51.69 146.14 44.47 119.11 0.27 111.29 0.27 111.29 0.27"/><polygon class="a" points="79.99 58.4 111.26 6.3 137.06 48.98 101.5 48.98 101.5 42.32 124.58 42.32 111.26 20.1 89.43 58.4 79.99 58.4 79.99 58.4"/><polygon class="a" points="141.78 51.69 101.5 51.67 101.5 58.4 137.82 58.39 137.88 58.23 141.78 51.69 141.78 51.69"/><path class="a" d="M38.31,51.47l0-27.55h7v27.6h15.4a22.41,22.41,0,0,0,.05-44.81H7.68V58.4H0.94V0H60.82A29,29,0,0,1,89.31,23.4L103.46,0.27h7.83L87,40.92l-2.35,4c-5.22,7.65-13.88,13.34-23.85,13.43H38.31V51.47h0Z"/><path class="b" d="M2.1,71.73H0V71H5.1v0.76H3v6.13H2.1V71.73Z"/><path class="b" d="M5.76,70.61h0.9v3.09h0a1.67,1.67,0,0,1,.64-0.63,1.85,1.85,0,0,1,.92-0.26c0.66,0,1.73.41,1.73,2.12v2.94H9.07V75a1.22,1.22,0,0,0-1.14-1.47,1.29,1.29,0,0,0-1.21.9,1.09,1.09,0,0,0-.06.43v3H5.76V70.61Z"/><path class="b" d="M11.94,75.55a1.58,1.58,0,0,0,1.7,1.72A3.25,3.25,0,0,0,15,77l0.15,0.64a4,4,0,0,1-1.65.31,2.3,2.3,0,0,1-2.43-2.49A2.4,2.4,0,0,1,13.4,72.8a2.1,2.1,0,0,1,2,2.33,3.35,3.35,0,0,1,0,.42H11.94Zm2.64-.64a1.28,1.28,0,0,0-1.25-1.46,1.49,1.49,0,0,0-1.38,1.46h2.63Z"/><path class="b" d="M18.75,71h3.71v0.75H19.64V74h2.61v0.74H19.64v3.12H18.75V71Z"/><path class="b" d="M27.86,75.35A2.42,2.42,0,0,1,25.39,78,2.35,2.35,0,0,1,23,75.43a2.42,2.42,0,0,1,2.45-2.63A2.34,2.34,0,0,1,27.86,75.35Zm-3.92.05a1.68,1.68,0,0,0,1.5,1.9,2,2,0,0,0,0-3.82A1.68,1.68,0,0,0,23.93,75.4Z"/><path class="b" d="M33.47,75.35A2.42,2.42,0,0,1,31,78a2.35,2.35,0,0,1-2.37-2.54,2.42,2.42,0,0,1,2.45-2.63A2.34,2.34,0,0,1,33.47,75.35Zm-3.92.05A1.68,1.68,0,0,0,31,77.3a2,2,0,0,0,0-3.82A1.68,1.68,0,0,0,29.54,75.4Z"/><path class="b" d="M38.87,70.61v6c0,0.44,0,.94,0,1.28H38.11l0-.86h0a1.83,1.83,0,0,1-1.69,1,2.26,2.26,0,0,1-2.12-2.51,2.37,2.37,0,0,1,2.22-2.66,1.65,1.65,0,0,1,1.49.76h0v-3h0.9ZM38,74.93a1.6,1.6,0,0,0,0-.38,1.32,1.32,0,0,0-1.3-1c-0.93,0-1.48.82-1.48,1.91a1.58,1.58,0,0,0,1.46,1.83,1.35,1.35,0,0,0,1.32-1.07,1.58,1.58,0,0,0,0-.39V74.93Z"/><path class="b" d="M45.27,77.86l-0.07-.62h0a1.84,1.84,0,0,1-1.51.74,1.41,1.41,0,0,1-1.51-1.42c0-1.2,1.06-1.85,3-1.84v-0.1A1,1,0,0,0,44,73.47a2.46,2.46,0,0,0-1.29.37l-0.2-.59a3.07,3.07,0,0,1,1.62-.44,1.76,1.76,0,0,1,1.88,2v1.85a7,7,0,0,0,.08,1.19H45.27Zm-0.13-2.52c-1,0-2.1.15-2.1,1.11a0.8,0.8,0,0,0,.85.86,1.23,1.23,0,0,0,1.2-.83,0.93,0.93,0,0,0,.05-0.29V75.34Z"/><path class="b" d="M47.46,74.26c0-.51,0-0.93,0-1.34h0.8l0.05,0.82h0a1.82,1.82,0,0,1,1.64-.93c0.68,0,1.75.41,1.75,2.11v3h-0.9V75a1.21,1.21,0,0,0-1.14-1.46,1.28,1.28,0,0,0-1.21.92,1.3,1.3,0,0,0-.06.42v3h-0.9V74.26Z"/><path class="b" d="M57.4,70.61v6c0,0.44,0,.94,0,1.28H56.63l0-.86h0a1.83,1.83,0,0,1-1.69,1,2.26,2.26,0,0,1-2.12-2.51A2.37,2.37,0,0,1,55,72.8a1.65,1.65,0,0,1,1.49.76h0v-3h0.9Zm-0.9,4.32a1.58,1.58,0,0,0,0-.38,1.32,1.32,0,0,0-1.3-1c-0.93,0-1.48.82-1.48,1.91a1.58,1.58,0,0,0,1.46,1.83,1.35,1.35,0,0,0,1.32-1.07,1.55,1.55,0,0,0,0-.39V74.93Z"/><path class="b" d="M61.09,71.07A12.75,12.75,0,0,1,63,70.92a3.94,3.94,0,0,1,2.79.86,3.17,3.17,0,0,1,1,2.47,3.64,3.64,0,0,1-1,2.68,4.24,4.24,0,0,1-3,1,14.37,14.37,0,0,1-1.61-.08V71.07ZM62,77.16a5.63,5.63,0,0,0,.9.05,2.65,2.65,0,0,0,2.93-2.92A2.46,2.46,0,0,0,63,71.63a5.07,5.07,0,0,0-1,.09v5.44Z"/><path class="b" d="M67.86,74.46c0-.58,0-1.08,0-1.54h0.79l0,1h0A1.48,1.48,0,0,1,70,72.8a1,1,0,0,1,.26,0v0.85a1.35,1.35,0,0,0-.31,0,1.26,1.26,0,0,0-1.21,1.15,2.54,2.54,0,0,0,0,.42v2.64H67.86v-3.4Z"/><path class="b" d="M75.34,76.51c0,0.51,0,1,0,1.35h-0.8l-0.05-.81h0a1.86,1.86,0,0,1-1.64.92c-0.78,0-1.71-.43-1.71-2.17V72.92h0.9v2.74c0,0.94.29,1.57,1.1,1.57A1.26,1.26,0,0,0,74.44,76v-3h0.9v3.6Z"/><path class="b" d="M81.1,72.92c0,0.36,0,.76,0,1.36v2.87a2.84,2.84,0,0,1-.7,2.26,2.62,2.62,0,0,1-1.8.59,3.19,3.19,0,0,1-1.65-.41l0.22-.68a2.79,2.79,0,0,0,1.45.39,1.49,1.49,0,0,0,1.59-1.73V77h0a1.77,1.77,0,0,1-1.57.83,2.21,2.21,0,0,1-2.11-2.41A2.37,2.37,0,0,1,78.7,72.8a1.64,1.64,0,0,1,1.54.86h0l0-.75H81.1Zm-0.93,2a1.32,1.32,0,0,0-1.31-1.36,1.61,1.61,0,0,0-1.47,1.87,1.55,1.55,0,0,0,1.46,1.78,1.31,1.31,0,0,0,1.25-.92,1.56,1.56,0,0,0,.07-0.48V74.87Z"/><path class="b" d="M85.86,75.7l-0.72,2.17H84.22L86.56,71h1.07L90,77.86H89L88.3,75.7H85.86Zm2.26-.7-0.67-2c-0.15-.45-0.26-0.86-0.36-1.26h0c-0.1.41-.21,0.83-0.35,1.25L86,75h2.07Z"/><path class="b" d="M95.12,70.61v6c0,0.44,0,.94,0,1.28H94.35l0-.86h0a1.83,1.83,0,0,1-1.69,1,2.26,2.26,0,0,1-2.12-2.51A2.37,2.37,0,0,1,92.7,72.8a1.65,1.65,0,0,1,1.49.76h0v-3h0.9Zm-0.9,4.32a1.6,1.6,0,0,0,0-.38,1.32,1.32,0,0,0-1.3-1c-0.93,0-1.48.82-1.48,1.91a1.58,1.58,0,0,0,1.46,1.83,1.35,1.35,0,0,0,1.32-1.07,1.58,1.58,0,0,0,0-.39V74.93Z"/><path class="b" d="M96.61,74.26c0-.51,0-0.93,0-1.34h0.79l0,0.8h0A1.7,1.7,0,0,1,99,72.8a1.46,1.46,0,0,1,1.4,1h0a2,2,0,0,1,.55-0.64A1.69,1.69,0,0,1,102,72.8c0.65,0,1.63.43,1.63,2.15v2.91h-0.88v-2.8c0-1-.35-1.52-1.07-1.52a1.16,1.16,0,0,0-1.06.82,1.48,1.48,0,0,0-.07.45v3.06H99.7v-3a1.14,1.14,0,0,0-1-1.36,1.34,1.34,0,0,0-1.19,1.34v3H96.61V74.26Z"/><path class="b" d="M106.13,71.53a0.56,0.56,0,0,1-1.11,0,0.55,0.55,0,0,1,.56-0.56A0.53,0.53,0,0,1,106.13,71.53Zm-1,6.34V72.92H106v4.95h-0.9Z"/><path class="b" d="M107.52,74.26c0-.51,0-0.93,0-1.34h0.8l0.05,0.82h0A1.82,1.82,0,0,1,110,72.8c0.68,0,1.75.41,1.75,2.11v3h-0.9V75a1.21,1.21,0,0,0-1.14-1.46,1.28,1.28,0,0,0-1.21.92,1.3,1.3,0,0,0-.06.42v3h-0.9V74.26Z"/><path class="b" d="M114.19,71.53a0.56,0.56,0,0,1-1.11,0,0.55,0.55,0,0,1,.56-0.56A0.53,0.53,0,0,1,114.19,71.53Zm-1,6.34V72.92h0.9v4.95h-0.9Z"/><path class="b" d="M115.46,76.94a2.36,2.36,0,0,0,1.19.36,0.8,0.8,0,0,0,1-.74,1,1,0,0,0-.92-0.91,1.59,1.59,0,0,1-1.31-1.4,1.53,1.53,0,0,1,1.71-1.45,2.47,2.47,0,0,1,1.22.31l-0.22.65a1.92,1.92,0,0,0-1-.29,0.72,0.72,0,0,0-.83.67c0,0.41.3,0.59,0.94,0.84a1.51,1.51,0,1,1-.55,3,2.82,2.82,0,0,1-1.39-.34Z"/><path class="b" d="M120.71,71.5v1.42H122V73.6h-1.29v2.67c0,0.61.17,1,.67,1a2,2,0,0,0,.52-0.06l0,0.67a2.2,2.2,0,0,1-.8.12,1.25,1.25,0,0,1-1-.38,1.83,1.83,0,0,1-.35-1.29V73.6h-0.77V72.92h0.77V71.73Z"/><path class="b" d="M123,74.46c0-.58,0-1.08,0-1.54h0.79l0,1h0a1.48,1.48,0,0,1,1.37-1.08,1,1,0,0,1,.26,0v0.85a1.35,1.35,0,0,0-.31,0,1.26,1.26,0,0,0-1.21,1.15,2.54,2.54,0,0,0,0,.42v2.64H123v-3.4Z"/><path class="b" d="M129,77.86L129,77.24h0a1.84,1.84,0,0,1-1.51.74,1.41,1.41,0,0,1-1.51-1.42c0-1.2,1.06-1.85,3-1.84v-0.1a1,1,0,0,0-1.12-1.14,2.47,2.47,0,0,0-1.29.37l-0.2-.59a3.07,3.07,0,0,1,1.63-.44,1.76,1.76,0,0,1,1.88,2v1.85a7,7,0,0,0,.08,1.19H129Zm-0.13-2.52c-1,0-2.09.15-2.09,1.11a0.8,0.8,0,0,0,.85.86,1.23,1.23,0,0,0,1.2-.83,1,1,0,0,0,.05-0.29V75.34Z"/><path class="b" d="M132.27,71.5v1.42h1.29V73.6h-1.29v2.67c0,0.61.17,1,.67,1a2,2,0,0,0,.52-0.06l0,0.67a2.2,2.2,0,0,1-.8.12,1.25,1.25,0,0,1-1-.38,1.83,1.83,0,0,1-.35-1.29V73.6h-0.77V72.92h0.77V71.73Z"/><path class="b" d="M135.57,71.53a0.56,0.56,0,0,1-1.11,0A0.55,0.55,0,0,1,135,71,0.53,0.53,0,0,1,135.57,71.53Zm-1,6.34V72.92h0.9v4.95h-0.9Z"/><path class="b" d="M141.44,75.35A2.42,2.42,0,0,1,139,78a2.35,2.35,0,0,1-2.37-2.54,2.42,2.42,0,0,1,2.45-2.63A2.34,2.34,0,0,1,141.44,75.35Zm-3.92.05A1.55,1.55,0,1,0,139,73.48,1.68,1.68,0,0,0,137.51,75.4Z"/><path class="b" d="M142.57,74.26c0-.51,0-0.93,0-1.34h0.8l0.05,0.82h0A1.82,1.82,0,0,1,145,72.8c0.68,0,1.75.41,1.75,2.11v3h-0.9V75a1.21,1.21,0,0,0-1.14-1.46,1.28,1.28,0,0,0-1.21.92,1.3,1.3,0,0,0-.06.42v3h-0.9V74.26Z"/></svg>