<svg xmlns="http://www.w3.org/2000/svg" viewBox="0 0 80 80"><defs><style>.a{fill:#231f20;}.b{fill:#6e6e6e;}.c{fill:#e2e2e2;}</style></defs><title>logos</title><path class="a" d="M69.24,9.7a3.6,3.6,0,1,1,3.59-3.6,3.6,3.6,0,0,1-3.59,3.6m0-6.75a3.16,3.16,0,1,0,3.15,3.16,3.16,3.16,0,0,0-3.15-3.16"/><path class="a" d="M67.62,3.93h2.1A1.17,1.17,0,0,1,71,5.11a1,1,0,0,1-.64,1c0.34,0.15.53,0.28,0.53,1.05,0,0.61,0,.76.19,0.83V8.09h-1A2.68,2.68,0,0,1,70,7.25c0-.57,0-0.79-0.68-0.79h-0.9V8.09H67.62V3.93Zm1.87,1.83a0.54,0.54,0,0,0,.67-0.57,0.52,0.52,0,0,0-.61-0.54H68.47V5.76h1Z"/><path class="a" d="M12.75,69.54L9.23,80h1.89l0.62-2.09h4.18L16.54,80h1.89L14.86,69.54H12.75Zm2.71,6.86H12.2L13.84,71l1.58,5.29ZM19.69,80h1.74V69.54H19.69V80Zm9.5-4.32,0.07,0a2.82,2.82,0,0,0,2-2.83,3.15,3.15,0,0,0-1.14-2.55c-0.91-.73-1.82-0.73-3.25-0.75H23.6V80h1.75V76h2l2.12,4h2l-2.35-4.3Zm-0.55-1.36a2.75,2.75,0,0,1-1.15.26c-0.38,0-.64,0-1.32,0H25.36V71h1a5,5,0,0,1,2.17.24,1.65,1.65,0,0,1,.91,1.53h0a1.57,1.57,0,0,1-.84,1.5M4.73,71.1H9.82V69.54H3V80H4.73V75.47H9.2V74H4.73V71.1Zm61.51-.75a5,5,0,0,0-3.1-.81H59.42V80h3.31a6.46,6.46,0,0,0,3.38-.64,5,5,0,0,0,2.14-4.5,5.41,5.41,0,0,0-2-4.51m0.12,4.55c0,2.23-.86,3-1.67,3.28a7.23,7.23,0,0,1-2.54.25h-1v-7.3h1.17a4.94,4.94,0,0,1,2.29.3c1.55,0.75,1.7,2.44,1.7,3.45v0ZM77,71.1V69.54H69.65V80H77V78.43H71.39V75.33h5.15v-1.5H71.39V71.1H77Zm-45.14,0h2.89V80h1.77V71.12h3V69.54H31.88v1.59Zm20.93-1.59L49.28,80h1.89l0.62-2.09H56L56.6,80h1.89L54.92,69.54H52.81ZM52.26,76.4L53.89,71l1.62,5.43H52.26Zm-6-.72,0.07,0a2.81,2.81,0,0,0,2-2.83,3.14,3.14,0,0,0-1.14-2.54c-0.9-.73-1.82-0.73-3.24-0.75h-3.3V80h1.75V76h2l2.12,4h2l-2.35-4.3Zm-0.55-1.35a2.73,2.73,0,0,1-1.15.26c-0.38,0-.64,0-1.32,0H42.47V71h1a5,5,0,0,1,2.17.24,1.64,1.64,0,0,1,.91,1.52h0v0h0a1.56,1.56,0,0,1-.84,1.5M72.14,32.14A32.14,32.14,0,1,0,40,64.28,32.14,32.14,0,0,0,72.14,32.14"/><path class="b" d="M62.28,51.16h0a29.55,29.55,0,0,0,6.91-19A29.23,29.23,0,0,0,40.31,2.86h-0.8a25.69,25.69,0,0,0-6.43,1.06,15.77,15.77,0,0,0-6.26,3.66A13.69,13.69,0,0,0,23,17.15c0,6.06,4.18,11.06,9.8,13.35a54.08,54.08,0,0,0,7,2c3.37,0.82,10.47,2,16.38,5.91l0.23,0.15c3.69,2.52,5.92,6.23,5.92,12.23M44.34,29.89A7.68,7.68,0,1,1,52,22.2a7.68,7.68,0,0,1-7.68,7.68"/><path class="c" d="M10.71,32.22a29.26,29.26,0,0,1,8-20.12,22.84,22.84,0,0,0-1.53,8,18,18,0,0,0,5.15,12.72l0.73,0.77c5.7,6,10.82,11.39,10.82,18.57a19.09,19.09,0,0,1-2,8.09,29.21,29.21,0,0,1-21.23-28"/></svg>