<svg xmlns="http://www.w3.org/2000/svg" viewBox="0 0 180 80"><defs><style>.a{fill:#adadad;}.b{fill:#d4d4d4;}.c{fill:#c4c4c4;}.d{fill:#e2e2e2;}.e{fill:#ccc;}.f{fill:#6b6b6b;}.g{fill:#b3b3b3;}.h{fill:#a9a9a9;}.i{fill:#6e6e6e;}.j{fill:#aeaeae;}.k{fill:#212121;}.l{fill:#333;}.m{fill:#898989;}.n{fill:#272727;}.o{fill:#444;}.p{fill:#525252;}.q{fill:#696969;}.r{fill:#4c4c4c;}</style></defs><title>logos</title><path d="M95.87,37.74a4.66,4.66,0,0,0,.2,1.36,3.32,3.32,0,0,0,.6,1.15,2.89,2.89,0,0,0,1,.79,3.34,3.34,0,0,0,1.46.29,3.22,3.22,0,0,0,1.89-.5,3,3,0,0,0,1.07-1.52h2.53a5,5,0,0,1-2,3.06,5.39,5.39,0,0,1-1.63.8,6.59,6.59,0,0,1-1.89.27A6.43,6.43,0,0,1,96.6,43a5.23,5.23,0,0,1-1.87-1.31,5.56,5.56,0,0,1-1.15-2,8.17,8.17,0,0,1-.39-2.58,7.31,7.31,0,0,1,.41-2.45,6.26,6.26,0,0,1,1.17-2,5.51,5.51,0,0,1,4.28-1.91,5.45,5.45,0,0,1,2.57.6,5.63,5.63,0,0,1,1.89,1.58,6.43,6.43,0,0,1,1.09,2.27,7,7,0,0,1,.18,2.64H95.87ZM102.11,36a4.33,4.33,0,0,0-.27-1.22,3.28,3.28,0,0,0-.61-1,3,3,0,0,0-.94-0.7,2.77,2.77,0,0,0-1.23-.27,3.21,3.21,0,0,0-1.28.25,2.94,2.94,0,0,0-1,.68,3.39,3.39,0,0,0-.66,1A3.57,3.57,0,0,0,95.87,36h6.24Z"/><path d="M114.09,35a2.51,2.51,0,0,0-.9-1.7,3,3,0,0,0-1.87-.58,3.86,3.86,0,0,0-1.1.18,2.61,2.61,0,0,0-1.08.66,3.69,3.69,0,0,0-.82,1.34,6.36,6.36,0,0,0-.33,2.24,6.55,6.55,0,0,0,.18,1.5,4.1,4.1,0,0,0,.56,1.34,3,3,0,0,0,1,1,2.83,2.83,0,0,0,1.48.36,2.69,2.69,0,0,0,1.94-.73,3.39,3.39,0,0,0,1-2h2.68a5.88,5.88,0,0,1-1.8,3.63,5.48,5.48,0,0,1-3.77,1.26,6.2,6.2,0,0,1-2.52-.48,5.33,5.33,0,0,1-1.84-1.31,5.57,5.57,0,0,1-1.14-2,7.76,7.76,0,0,1-.39-2.49,8.51,8.51,0,0,1,.38-2.56,5.85,5.85,0,0,1,1.13-2.08,5.27,5.27,0,0,1,1.87-1.39,6.3,6.3,0,0,1,2.62-.5,7.32,7.32,0,0,1,2,.27,5.25,5.25,0,0,1,1.69.81,4.31,4.31,0,0,1,1.21,1.36,4.67,4.67,0,0,1,.56,1.95h-2.68Z"/><path d="M128.2,43.11h-2.63V41.42h0a3.68,3.68,0,0,1-1.47,1.47,4,4,0,0,1-2,.55,4.46,4.46,0,0,1-3.46-1.19,5.21,5.21,0,0,1-1.07-3.58V31h2.68v7.44a3.28,3.28,0,0,0,.61,2.25,2.22,2.22,0,0,0,1.71.66,3.37,3.37,0,0,0,1.41-.26,2.49,2.49,0,0,0,.92-0.69,2.65,2.65,0,0,0,.5-1,5.43,5.43,0,0,0,.15-1.32V31h2.67V43.11Z"/><path d="M139.77,40.42a1.43,1.43,0,0,0,.13.71,0.55,0.55,0,0,0,.5.21h0.28a1.78,1.78,0,0,0,.38,0v1.85l-0.36.11-0.46.11-0.47.07-0.4,0a2.58,2.58,0,0,1-1.36-.33,1.63,1.63,0,0,1-.7-1.15,4.74,4.74,0,0,1-2,1.13,7.76,7.76,0,0,1-2.24.35,5.48,5.48,0,0,1-1.57-.22,4.13,4.13,0,0,1-1.33-.66,3.15,3.15,0,0,1-.92-1.1,3.38,3.38,0,0,1-.34-1.56,3.61,3.61,0,0,1,.41-1.83,3.06,3.06,0,0,1,1.08-1.1,4.86,4.86,0,0,1,1.5-.57q0.83-.18,1.68-0.27a13.64,13.64,0,0,1,1.38-.2,6.44,6.44,0,0,0,1.16-.2,1.77,1.77,0,0,0,.8-0.43,1.19,1.19,0,0,0,.29-0.88,1.37,1.37,0,0,0-.25-0.84,1.68,1.68,0,0,0-.61-0.51,2.64,2.64,0,0,0-.81-0.23,6.53,6.53,0,0,0-.84-0.06,3.36,3.36,0,0,0-1.85.47,1.83,1.83,0,0,0-.82,1.46h-2.68a4,4,0,0,1,.56-1.95,3.88,3.88,0,0,1,1.26-1.24,5.14,5.14,0,0,1,1.73-.66,10.28,10.28,0,0,1,2-.19,8.32,8.32,0,0,1,1.76.19,5,5,0,0,1,1.56.61,3.4,3.4,0,0,1,1.12,1.09,3,3,0,0,1,.42,1.63v6.24ZM137.09,37a3.26,3.26,0,0,1-1.5.48q-0.89.08-1.78,0.25a5.78,5.78,0,0,0-.82.2,2.45,2.45,0,0,0-.7.35,1.56,1.56,0,0,0-.48.59,2,2,0,0,0-.18.88,1.12,1.12,0,0,0,.26.75,1.86,1.86,0,0,0,.62.48,2.87,2.87,0,0,0,.8.25,5,5,0,0,0,.79.07,4.33,4.33,0,0,0,1-.12,3.19,3.19,0,0,0,1-.4,2.55,2.55,0,0,0,.76-0.72,1.81,1.81,0,0,0,.31-1.07V37Z"/><path d="M152.56,43.11H150V41.47h0A3.18,3.18,0,0,1,148.4,43a5.32,5.32,0,0,1-2.18.46,5.8,5.8,0,0,1-2.5-.5A5,5,0,0,1,142,41.56a5.84,5.84,0,0,1-1.06-2.05,8.89,8.89,0,0,1-.35-2.55,8.13,8.13,0,0,1,.45-2.84,5.69,5.69,0,0,1,1.19-2A4.58,4.58,0,0,1,143.86,31a5.37,5.37,0,0,1,1.94-.36,6.45,6.45,0,0,1,1.15.11,5.12,5.12,0,0,1,1.13.34,4.46,4.46,0,0,1,1,.6,3.32,3.32,0,0,1,.76.86h0v-6.2h2.68V43.11Zm-9.34-5.94a5.9,5.9,0,0,0,.2,1.53A4.15,4.15,0,0,0,144,40a3,3,0,0,0,2.55,1.29,3,3,0,0,0,1.54-.38,3.17,3.17,0,0,0,1.06-1,4.47,4.47,0,0,0,.61-1.37A6.2,6.2,0,0,0,150,37a4.91,4.91,0,0,0-.9-3.15,3,3,0,0,0-2.45-1.13,3,3,0,0,0-1.58.39,3.26,3.26,0,0,0-1.06,1,4.18,4.18,0,0,0-.59,1.41A7.33,7.33,0,0,0,143.22,37.18Z"/><path d="M159.33,43.44a6.61,6.61,0,0,1-2.59-.48,5.53,5.53,0,0,1-1.92-1.33,5.67,5.67,0,0,1-1.2-2,8.25,8.25,0,0,1,0-5.14,5.66,5.66,0,0,1,1.2-2,5.54,5.54,0,0,1,1.92-1.33,7.23,7.23,0,0,1,5.19,0,5.54,5.54,0,0,1,1.92,1.33,5.68,5.68,0,0,1,1.2,2,8.25,8.25,0,0,1,0,5.14,5.68,5.68,0,0,1-1.2,2A5.52,5.52,0,0,1,161.92,43,6.61,6.61,0,0,1,159.33,43.44Zm0-2.11a3.06,3.06,0,0,0,1.55-.38A3.27,3.27,0,0,0,162,40a4.31,4.31,0,0,0,.62-1.37,6.16,6.16,0,0,0,0-3.11,4.16,4.16,0,0,0-.62-1.37,3.33,3.33,0,0,0-1.08-1,3.38,3.38,0,0,0-3.1,0,3.31,3.31,0,0,0-1.08,1,4.15,4.15,0,0,0-.62,1.37,6.16,6.16,0,0,0,0,3.11A4.3,4.3,0,0,0,156.7,40a3.25,3.25,0,0,0,1.08,1A3.06,3.06,0,0,0,159.33,41.33Z"/><path d="M166.08,31h2.51v2.35h0a2.75,2.75,0,0,1,.46-1,4.48,4.48,0,0,1,.82-0.86,4.15,4.15,0,0,1,1.07-.62,3.22,3.22,0,0,1,1.2-.23,5.77,5.77,0,0,1,.65,0l0.36,0V33.3l-0.58-.08a4.89,4.89,0,0,0-.57,0,3.07,3.07,0,0,0-1.28.27,2.93,2.93,0,0,0-1,.8,3.89,3.89,0,0,0-.7,1.3,5.63,5.63,0,0,0-.26,1.78v5.77h-2.67V31Z"/><path class="a" d="M22.83,18.42A32.33,32.33,0,0,0,20.7,21a31.94,31.94,0,0,0-1.84,2.83L24.27,27a26.21,26.21,0,0,1,1.49-2.28,26.6,26.6,0,0,1,1.71-2.12Z"/><path class="a" d="M14.72,43.37A32.75,32.75,0,0,1,14.55,40H6.8a40.15,40.15,0,0,0,.87,8.32l7.57-1.61A32.22,32.22,0,0,1,14.72,43.37Z"/><path class="a" d="M44.08,14.13a26.34,26.34,0,0,0-2.69.42,26,26,0,0,0-2.63.7L40.32,20a21,21,0,0,1,4.29-.91Z"/><path class="a" d="M57.29,21.83a20.78,20.78,0,0,0-2-1l-1.65,3.71a16.77,16.77,0,0,1,3.06,1.77L59.14,23A21.28,21.28,0,0,0,57.29,21.83Z"/><path class="a" d="M62.9,34.77a16.83,16.83,0,0,0-.63-1.65l-3,1.33a13.58,13.58,0,0,1,.88,2.71l3.2-.68A16.75,16.75,0,0,0,62.9,34.77Z"/><path class="a" d="M51.24,47.69a8.74,8.74,0,0,1-1.69.75l0.66,2a10.72,10.72,0,0,0,1.08-.41,10.85,10.85,0,0,0,1-.52Z"/><path class="a" d="M57.27,43.4a10.93,10.93,0,0,1-.94,2.1l2.29,1.32a13.88,13.88,0,0,0,.65-1.27,13.41,13.41,0,0,0,.51-1.33Z"/><path class="b" d="M14.44,16.49A40.2,40.2,0,0,0,12.16,20a39.79,39.79,0,0,0-1.9,3.73l7.07,3.15A32.31,32.31,0,0,1,20.7,21Z"/><path class="b" d="M40.1,8.44a31.67,31.67,0,0,0-6.42,2.08l2.54,5.71a25.68,25.68,0,0,1,2.54-1,26,26,0,0,1,2.63-.7Z"/><path class="b" d="M45,48.68a8.89,8.89,0,0,1-.9-0.24l-0.66,2a10.74,10.74,0,0,0,1.11.3,11.07,11.07,0,0,0,1.14.18l0.22-2.12A8.89,8.89,0,0,1,45,48.68Z"/><path class="b" d="M57.39,16.23a25.89,25.89,0,0,0-2.54-1L53.29,20a20.81,20.81,0,0,1,4,1.79l2.52-4.36A26,26,0,0,0,57.39,16.23Z"/><path class="b" d="M53.27,48.9a11,11,0,0,1-1,.63,10.85,10.85,0,0,1-1,.52l1.07,2.41a13.56,13.56,0,0,0,1.27-.65,14.19,14.19,0,0,0,1.2-.78Z"/><path class="b" d="M60.15,42.84a13.5,13.5,0,0,1-.88,2.71l3,1.33a16.76,16.76,0,0,0,1.09-3.36Z"/><path class="b" d="M66,31.47a21.36,21.36,0,0,0-1-2l-3.52,2a16.78,16.78,0,0,1,1.44,3.23l3.86-1.25A20.73,20.73,0,0,0,66,31.47Z"/><path class="c" d="M8.75,27.64A39.89,39.89,0,0,0,7,35.82l7.7,0.81a32.26,32.26,0,0,1,1.4-6.6Z"/><path class="c" d="M30.67,12.06a32.43,32.43,0,0,0-5.45,4l4.18,4.64a26.13,26.13,0,0,1,4.4-3.2Z"/><path class="c" d="M49.52,14.13A26.15,26.15,0,0,0,46.8,14v5a21.34,21.34,0,0,1,2.19.11,21,21,0,0,1,2.17.34l1-4.93A26.31,26.31,0,0,0,49.52,14.13Z"/><path class="c" d="M62.39,26a21,21,0,0,0-1.55-1.55l-2.72,3a17.1,17.1,0,0,1,2.37,2.63l3.29-2.39A21.15,21.15,0,0,0,62.39,26Z"/><path class="c" d="M48.65,48.68a8.86,8.86,0,0,1-.92.14,9.19,9.19,0,0,1-.93,0V51a10.95,10.95,0,0,0,2.29-.24Z"/><path class="c" d="M55.71,46.47a11.18,11.18,0,0,1-1.54,1.71l1.77,2A13.8,13.8,0,0,0,57.84,48Z"/><path class="c" d="M63.63,38.23l-3.26.34A13.63,13.63,0,0,1,60.45,40h0a13.64,13.64,0,0,1-.07,1.43l3.26,0.34A17.15,17.15,0,0,0,63.72,40h0A17.15,17.15,0,0,0,63.63,38.23Z"/><path class="d" d="M23.29,7.64a40.24,40.24,0,0,0-6.21,5.6l5.75,5.18a32.41,32.41,0,0,1,5-4.51Z"/><path class="d" d="M42.37,47.69c-0.27-.16-0.53-0.33-0.78-0.51L40.34,48.9q0.47,0.34,1,.63a10.88,10.88,0,0,0,1,.52l0.87-1.95A9.21,9.21,0,0,1,42.37,47.69Z"/><path class="d" d="M50.2,50.47a10.77,10.77,0,0,1-1.11.3,11.07,11.07,0,0,1-1.14.18l0.28,2.63A13.78,13.78,0,0,0,51,53Z"/><path class="d" d="M46.8,7.74a32.86,32.86,0,0,0-3.37.17l0.65,6.21A26.14,26.14,0,0,1,46.8,14h0a26.15,26.15,0,0,1,2.72.14l0.65-6.21A32.83,32.83,0,0,0,46.8,7.74Z"/><path class="d" d="M58.62,46.82a13.61,13.61,0,0,1-.78,1.2,13.38,13.38,0,0,1-.9,1.11l2.43,2.19a17.14,17.14,0,0,0,2.08-2.86Z"/><path class="d" d="M67.67,37.81a20.89,20.89,0,0,0-.34-2.17l-4,.84A17,17,0,0,1,63.72,40h4.06A21.15,21.15,0,0,0,67.67,37.81Z"/><path class="d" d="M64.21,20.67A25.93,25.93,0,0,0,62.1,19l-3,4.07A21.26,21.26,0,0,1,62.39,26l3.74-3.37A26.25,26.25,0,0,0,64.21,20.67Z"/><path class="e" d="M40.21,45.94a8.94,8.94,0,0,1-.58-0.72L37.9,46.47a11.09,11.09,0,0,0,1.54,1.71l1.43-1.58A8.88,8.88,0,0,1,40.21,45.94Z"/><path class="e" d="M45.65,50.94a11.07,11.07,0,0,1-1.14-.18L44,53.35a13.52,13.52,0,0,0,1.41.22,13.94,13.94,0,0,0,1.43.07V51A11.22,11.22,0,0,1,45.65,50.94Z"/><path class="e" d="M55.93,50.14a13.73,13.73,0,0,1-2.31,1.68l1.64,2.84a17.09,17.09,0,0,0,2.86-2.08Z"/><path class="e" d="M34.44,1.95A40,40,0,0,0,26.8,5.35l3.87,6.71a32.3,32.3,0,0,1,6.16-2.75Z"/><path class="e" d="M63.63,41.77a17.06,17.06,0,0,1-.28,1.75,16.74,16.74,0,0,1-.46,1.71l3.86,1.26a20.84,20.84,0,0,0,.91-4.29Z"/><path class="e" d="M69.34,27a26.17,26.17,0,0,0-1.49-2.28l-4.07,3a20.76,20.76,0,0,1,2.2,3.8l4.6-2A26.08,26.08,0,0,0,69.34,27Z"/><path class="e" d="M56.77,9.31a32.18,32.18,0,0,0-3.26-.87l-1.3,6.11a25.66,25.66,0,0,1,5.17,1.68l2.54-5.71A32.23,32.23,0,0,0,56.77,9.31Z"/><path class="f" d="M36.22,16.23A25.9,25.9,0,0,0,31.51,19l3,4.07a20.91,20.91,0,0,1,3.8-2.2Z"/><path class="f" d="M17.33,26.88a31.88,31.88,0,0,0-2.08,6.42l6.11,1.3A25.63,25.63,0,0,1,23,29.42Z"/><path class="f" d="M51.17,19.48A21,21,0,0,0,49,19.13l-0.42,4a16.85,16.85,0,0,1,1.75.28,16.47,16.47,0,0,1,1.71.46L53.29,20A20.65,20.65,0,0,0,51.17,19.48Z"/><path class="f" d="M60.49,30.05a17.18,17.18,0,0,0-1.12-1.38l-2.43,2.19a13.66,13.66,0,0,1,.9,1.11,13.44,13.44,0,0,1,.78,1.2l2.84-1.64A17,17,0,0,0,60.49,30.05Z"/><path class="f" d="M57.81,40a11.32,11.32,0,0,1-.06,1.15,10.7,10.7,0,0,1-.18,1.14l2.58,0.55a13.46,13.46,0,0,0,.22-1.41A13.64,13.64,0,0,0,60.45,40H57.81Z"/><path class="f" d="M53.4,45.94A8.86,8.86,0,0,1,52,47.18l1.25,1.72a11.14,11.14,0,0,0,.9-0.73A11.29,11.29,0,0,0,55,47.36Z"/><path class="f" d="M17.33,53.12A32.2,32.2,0,0,1,16.12,50L8.75,52.36A39.85,39.85,0,0,0,12.16,60l6.71-3.87A31.94,31.94,0,0,1,17.33,53.12Z"/><path class="g" d="M52,23.91a16.47,16.47,0,0,0-1.71-.46l-0.68,3.2Q50.34,26.8,51,27a13.4,13.4,0,0,1,1.33.51l1.33-3A16.56,16.56,0,0,0,52,23.91Z"/><path class="g" d="M40.32,20a20.85,20.85,0,0,0-4,1.79l2,3.52a16.66,16.66,0,0,1,1.58-.81,16.9,16.9,0,0,1,1.65-.63Z"/><path class="g" d="M58.62,33.18a13.44,13.44,0,0,0-.78-1.2l-2.14,1.55q0.34,0.47.63,1a11,11,0,0,1,.52,1l2.41-1.07A13.34,13.34,0,0,0,58.62,33.18Z"/><path class="g" d="M55.63,40.93a8.88,8.88,0,0,1-.38,1.82l2,0.66a11,11,0,0,0,.48-2.25Z"/><path class="g" d="M30.67,67.94a32.58,32.58,0,0,1-2.83-1.84l-4.55,6.26a39.92,39.92,0,0,0,7.24,4.19l3.15-7.07A32.18,32.18,0,0,1,30.67,67.94Z"/><path class="g" d="M24.27,27A26.21,26.21,0,0,0,23,29.42a25.84,25.84,0,0,0-1,2.54l4.79,1.56a20.73,20.73,0,0,1,.79-2.05,21.06,21.06,0,0,1,1-2Z"/><path class="g" d="M22.06,48a26,26,0,0,1-.7-2.63l-6.11,1.3A31.85,31.85,0,0,0,16.12,50a32.2,32.2,0,0,0,1.21,3.15L23,50.58A26.11,26.11,0,0,1,22.06,48Z"/><path class="h" d="M44.61,19.13a20.91,20.91,0,0,0-2.17.34l0.84,4A16.89,16.89,0,0,1,45,23.17a17.17,17.17,0,0,1,1.77-.09h0V19A21.33,21.33,0,0,0,44.61,19.13Z"/><path class="h" d="M29.4,20.67a26,26,0,0,0-3.64,4l4.07,3a21.06,21.06,0,0,1,2.94-3.26Z"/><path class="h" d="M56.75,26.31a16.73,16.73,0,0,0-1.48-1l-1.64,2.84a13.87,13.87,0,0,1,2.31,1.68l2.19-2.43A17.08,17.08,0,0,0,56.75,26.31Z"/><path class="h" d="M60.15,37.16a13.34,13.34,0,0,0-.37-1.38l-2.51.82a11,11,0,0,1,.48,2.25l2.63-.28A13.44,13.44,0,0,0,60.15,37.16Z"/><path class="h" d="M54.91,43.61A8.77,8.77,0,0,1,54,45.22l1.72,1.25q0.34-.47.63-1a10.73,10.73,0,0,0,.52-1Z"/><path class="h" d="M20.79,40h0a26.3,26.3,0,0,1,.14-2.72l-6.21-.65A32.79,32.79,0,0,0,14.55,40h0a32.75,32.75,0,0,0,.17,3.37l6.21-.65A26.3,26.3,0,0,1,20.79,40Z"/><path class="h" d="M22.83,61.58A32.21,32.21,0,0,1,20.7,59l-6.26,4.55A40.29,40.29,0,0,0,20,69.72L25.22,64A32.73,32.73,0,0,1,22.83,61.58Z"/><path class="i" d="M55.93,29.86a14,14,0,0,0-1.11-.9L53.27,31.1a11,11,0,0,1,.89.73,11.29,11.29,0,0,1,.81.81l2-1.77A13.54,13.54,0,0,0,55.93,29.86Z"/><path class="i" d="M46.8,23.08h0a17.17,17.17,0,0,0-1.77.09l0.34,3.26a13.74,13.74,0,0,1,2.85,0l0.34-3.26A17.18,17.18,0,0,0,46.8,23.08Z"/><path class="i" d="M57.75,38.85a10.84,10.84,0,0,0-.18-1.14l-2.08.44a8.64,8.64,0,0,1,.14.92,9.2,9.2,0,0,1,0,.93h2.13A11,11,0,0,0,57.75,38.85Z"/><path class="i" d="M25.76,55.29A26,26,0,0,1,24.27,53l-5.41,3.12A31.88,31.88,0,0,0,20.7,59a32.21,32.21,0,0,0,2.13,2.62l4.64-4.18A26.26,26.26,0,0,1,25.76,55.29Z"/><path class="i" d="M40.1,71.56a31.84,31.84,0,0,1-3.26-.87l-2.39,7.37a39.84,39.84,0,0,0,8.18,1.73l0.81-7.7A32.34,32.34,0,0,1,40.1,71.56Z"/><path class="i" d="M34.47,23A21.11,21.11,0,0,0,31.21,26l3,2.72a17.11,17.11,0,0,1,2.63-2.37Z"/><path class="i" d="M21.35,34.59A26.15,26.15,0,0,0,20.79,40h5a21,21,0,0,1,.46-4.36Z"/><path class="j" d="M42.33,50.05a10.88,10.88,0,0,1-1-.52L40,51.82a13.6,13.6,0,0,0,1.27.65,13.1,13.1,0,0,0,1.33.51l0.82-2.51A10.52,10.52,0,0,1,42.33,50.05Z"/><path class="j" d="M52.35,52.47A13.41,13.41,0,0,1,51,53a13.59,13.59,0,0,1-1.38.37l0.68,3.2A16.76,16.76,0,0,0,52,56.09a17,17,0,0,0,1.65-.63Z"/><path class="j" d="M62.26,46.88a16.7,16.7,0,0,1-1.77,3.06l3.29,2.39a20.92,20.92,0,0,0,2.2-3.8Z"/><path class="j" d="M72.25,34.59a25.81,25.81,0,0,0-.7-2.63l-4.79,1.56a20.85,20.85,0,0,1,.91,4.29l5-.53A25.44,25.44,0,0,0,72.25,34.59Z"/><path class="j" d="M65.77,13.9a32.77,32.77,0,0,0-2.83-1.84l-3.12,5.41a26.07,26.07,0,0,1,4.4,3.2L68.39,16A32.63,32.63,0,0,0,65.77,13.9Z"/><path class="j" d="M46.8,0a40.24,40.24,0,0,0-4.18.22,39.74,39.74,0,0,0-4.14.65L40.1,8.44a32,32,0,0,1,3.34-.52,32.86,32.86,0,0,1,3.37-.17V0h0Z"/><path class="j" d="M38.7,43.61a9.14,9.14,0,0,1-.33-0.87l-2,.66a10.88,10.88,0,0,0,.94,2.1l1.84-1.06A8.65,8.65,0,0,1,38.7,43.61Z"/><path class="k" d="M56.86,35.52a11,11,0,0,0-.52-1l-1.84,1.06a9,9,0,0,1,.76,1.69l2-.66A11,11,0,0,0,56.86,35.52Z"/><path class="k" d="M52.35,27.53A13.4,13.4,0,0,0,51,27L50.2,29.53a11.24,11.24,0,0,1,1.08.41,10.73,10.73,0,0,1,1,.52l1.32-2.29A13.63,13.63,0,0,0,52.35,27.53Z"/><path class="k" d="M26.28,44.36a20.92,20.92,0,0,1-.34-2.17l-5,.53a26.3,26.3,0,0,0,.42,2.69,26,26,0,0,0,.7,2.63l4.79-1.56A20.82,20.82,0,0,1,26.28,44.36Z"/><path class="k" d="M31.51,61a26.2,26.2,0,0,1-2.12-1.72L25.22,64a32.39,32.39,0,0,0,5.45,4l3.12-5.41A26.07,26.07,0,0,1,31.51,61Z"/><path class="k" d="M43.29,23.45a16.84,16.84,0,0,0-3.36,1.09l1.33,3A13.34,13.34,0,0,1,42.59,27,13.93,13.93,0,0,1,44,26.65Z"/><path class="k" d="M29.83,27.67a21.4,21.4,0,0,0-1.2,1.84,21.06,21.06,0,0,0-1,2l3.71,1.65a16.75,16.75,0,0,1,1.77-3.06Z"/><path class="k" d="M53.51,71.56a32.3,32.3,0,0,1-3.34.52,32.77,32.77,0,0,1-3.37.17V80a40.28,40.28,0,0,0,8.32-.87Z"/><path d="M55,32.64a11.29,11.29,0,0,0-.81-0.81l-1.43,1.58a8.88,8.88,0,0,1,.66.66,8.75,8.75,0,0,1,.58.72l1.72-1.25A11.18,11.18,0,0,0,55,32.64Z"/><path d="M26.85,33.52a20.91,20.91,0,0,0-.91,4.29l4,0.42a16.89,16.89,0,0,1,.73-3.46Z"/><path d="M28.63,50.49a20.64,20.64,0,0,1-1-2l-4.6,2a26,26,0,0,0,2.72,4.71l4.07-3A20.74,20.74,0,0,1,28.63,50.49Z"/><path d="M48.23,26.43a13.86,13.86,0,0,0-1.43-.07V29a11.07,11.07,0,0,1,2.29.24l0.55-2.58A13.84,13.84,0,0,0,48.23,26.43Z"/><path d="M38.34,25.35a16.73,16.73,0,0,0-1.48,1,16.94,16.94,0,0,0-1.38,1.12l2.19,2.43A13.77,13.77,0,0,1,40,28.18Z"/><path d="M38.76,64.75a26.1,26.1,0,0,1-2.54-1l-2.54,5.7a32.09,32.09,0,0,0,6.42,2.08l1.3-6.11A25.67,25.67,0,0,1,38.76,64.75Z"/><path d="M62.93,67.94a32.11,32.11,0,0,1-3,1.53,31.72,31.72,0,0,1-3.15,1.21l2.39,7.37a39.91,39.91,0,0,0,7.64-3.41Z"/><path class="l" d="M34.23,28.68a17.26,17.26,0,0,0-1.11,1.38,16.9,16.9,0,0,0-1,1.48L35,33.18a13.78,13.78,0,0,1,1.68-2.31Z"/><path class="l" d="M30,41.77A17.15,17.15,0,0,1,29.88,40H25.82a21,21,0,0,0,.46,4.36l4-.84A16.72,16.72,0,0,1,30,41.77Z"/><path class="l" d="M52.31,30.47a10.73,10.73,0,0,0-1-.52l-0.87,1.95a8.75,8.75,0,0,1,.83.42,8.86,8.86,0,0,1,.78.51l1.25-1.72A11.06,11.06,0,0,0,52.31,30.47Z"/><path class="l" d="M45.38,26.43a13.33,13.33,0,0,0-2.79.59l0.82,2.51a10.94,10.94,0,0,1,2.25-.48Z"/><path class="l" d="M32.77,55.59A21.13,21.13,0,0,1,31.21,54l-3.74,3.37a26.14,26.14,0,0,0,4,3.64l3-4.07A21.21,21.21,0,0,1,32.77,55.59Z"/><path class="l" d="M49.52,65.87A26.23,26.23,0,0,1,46.8,66h0a26.23,26.23,0,0,1-2.72-.14l-0.65,6.21a32.73,32.73,0,0,0,6.74,0Z"/><path class="l" d="M70.78,61.58a32.45,32.45,0,0,1-5,4.51l4.55,6.26a40.33,40.33,0,0,0,6.21-5.6Z"/><path class="l" d="M63.78,52.33a21.06,21.06,0,0,1-2.94,3.26l3.37,3.74a26.14,26.14,0,0,0,3.64-4Z"/><path class="l" d="M78.89,36.63l-6.21.65A26.14,26.14,0,0,1,72.82,40h0a26.14,26.14,0,0,1-.14,2.72l6.21,0.65A32.58,32.58,0,0,0,79.06,40h0A32.58,32.58,0,0,0,78.89,36.63Z"/><path class="l" d="M76.53,13.24a40.49,40.49,0,0,0-3-3L68.39,16a32.45,32.45,0,0,1,4.51,5l6.26-4.55A40,40,0,0,0,76.53,13.24Z"/><path class="l" d="M50.32,56.55a17,17,0,0,1-3.52.37V61A21.34,21.34,0,0,0,49,60.87a21,21,0,0,0,2.17-.34Z"/><path class="l" d="M37.9,33.53a11.09,11.09,0,0,0-1.15,2l1.95,0.87a8.71,8.71,0,0,1,.42-0.83,9.1,9.1,0,0,1,.51-0.78Z"/><path class="l" d="M36,42.29a11.1,11.1,0,0,1-.18-1.14l-2.63.28a13.61,13.61,0,0,0,.22,1.41,13.45,13.45,0,0,0,.37,1.38l2.51-.82A10.88,10.88,0,0,1,36,42.29Z"/><path class="l" d="M38.78,51a13.64,13.64,0,0,1-1.11-.9l-2.19,2.43a17.18,17.18,0,0,0,1.38,1.12,16.83,16.83,0,0,0,1.48,1L40,51.82A14,14,0,0,1,38.78,51Z"/><path class="m" d="M48.23,53.57a13.9,13.9,0,0,1-2.85,0L45,56.83a17,17,0,0,0,1.77.09h0a17,17,0,0,0,1.77-.09Z"/><path class="m" d="M59.38,51.32a17,17,0,0,1-2.63,2.37L59.14,57A21.06,21.06,0,0,0,62.39,54Z"/><path class="m" d="M67.78,40a21.1,21.1,0,0,1-.46,4.36l4.93,1a25.51,25.51,0,0,0,.42-2.69A26.14,26.14,0,0,0,72.82,40h-5Z"/><path class="m" d="M72.9,21a32.7,32.7,0,0,0-2.13-2.62l-4.64,4.18a26.15,26.15,0,0,1,3.2,4.4l5.41-3.12A32.12,32.12,0,0,0,72.9,21Z"/><path class="m" d="M55.12,0.87A39.74,39.74,0,0,0,51,.22l-0.81,7.7a32.34,32.34,0,0,1,6.6,1.39l2.39-7.36A39.61,39.61,0,0,0,55.12.87Z"/><path class="m" d="M39.44,48.18a11.05,11.05,0,0,1-.81-0.81l-2,1.77A13.86,13.86,0,0,0,38.78,51l1.55-2.14Q39.87,48.56,39.44,48.18Z"/><path class="m" d="M38,40.93a8.88,8.88,0,0,1,0-.93H35.8a11.22,11.22,0,0,0,.06,1.15A11.1,11.1,0,0,0,36,42.29l2.08-.44A8.81,8.81,0,0,1,38,40.93Z"/><path class="n" d="M45.65,29.06a11.16,11.16,0,0,0-1.14.18L45,31.32q0.45-.1.92-0.15a9.26,9.26,0,0,1,.93,0V29A11.15,11.15,0,0,0,45.65,29.06Z"/><path class="n" d="M37.67,29.86A13.64,13.64,0,0,0,35.76,32l2.14,1.55q0.34-.47.73-0.89a11.05,11.05,0,0,1,.81-0.81Z"/><path class="n" d="M78.89,43.37a32.28,32.28,0,0,1-.52,3.34A31.74,31.74,0,0,1,77.49,50l7.36,2.39a39.38,39.38,0,0,0,1.08-4,40.07,40.07,0,0,0,.65-4.14Z"/><path class="n" d="M33.16,40h0a14,14,0,0,1,.07-1.43L30,38.23A17.15,17.15,0,0,0,29.88,40h0A17.15,17.15,0,0,0,30,41.77l3.26-.34A14,14,0,0,1,33.16,40Z"/><path class="n" d="M34.23,51.32a17.1,17.1,0,0,1-1.11-1.38l-3.29,2.39A21.37,21.37,0,0,0,31.21,54a21.13,21.13,0,0,0,1.55,1.55l2.72-3A17,17,0,0,1,34.23,51.32Z"/><path class="n" d="M44.61,60.87a21,21,0,0,1-2.17-.34l-1,4.93a26,26,0,0,0,2.69.42A26.23,26.23,0,0,0,46.8,66h0V61A21.33,21.33,0,0,1,44.61,60.87Z"/><path class="n" d="M64.21,59.33a25.94,25.94,0,0,1-4.4,3.2l3.12,5.41a32.31,32.31,0,0,0,5.45-4Z"/><path class="o" d="M41.25,27.53a13.75,13.75,0,0,0-1.27.65,13.58,13.58,0,0,0-1.2.78l1.55,2.14a11,11,0,0,1,2-1.15Z"/><path class="o" d="M31.34,33.12a16.79,16.79,0,0,0-1.09,3.36l3.2,0.68a13.34,13.34,0,0,1,.37-1.38,13.49,13.49,0,0,1,.51-1.33Z"/><path class="o" d="M49.09,29.23A11.19,11.19,0,0,0,48,29.06l-0.22,2.12a9.26,9.26,0,0,1,.92.15,8.68,8.68,0,0,1,.9.24l0.66-2A11.31,11.31,0,0,0,49.09,29.23Z"/><path class="o" d="M31.34,46.88a16.72,16.72,0,0,1-.63-1.65l-3.86,1.26a20.87,20.87,0,0,0,.79,2,20.64,20.64,0,0,0,1,2l3.52-2A17.09,17.09,0,0,1,31.34,46.88Z"/><path class="o" d="M38.27,59.17a20.84,20.84,0,0,1-2-1l-2.52,4.36a26,26,0,0,0,5,2.22L40.32,60A20.83,20.83,0,0,1,38.27,59.17Z"/><path class="o" d="M57.39,63.77a26.16,26.16,0,0,1-2.54,1,25.72,25.72,0,0,1-2.63.7l1.3,6.11a32.11,32.11,0,0,0,6.42-2.08Z"/><path class="o" d="M76.28,53.12a32.19,32.19,0,0,1-1.54,3A32.52,32.52,0,0,1,72.9,59l6.26,4.55a40,40,0,0,0,4.19-7.24Z"/><path class="p" d="M72.25,45.41a25.66,25.66,0,0,1-1.68,5.17l5.71,2.54A32.18,32.18,0,0,0,77.49,50a31.74,31.74,0,0,0,.87-3.26Z"/><path class="p" d="M83.35,23.73A39.92,39.92,0,0,0,81.45,20l-6.71,3.87A32.13,32.13,0,0,1,77.49,30l7.37-2.39A40,40,0,0,0,83.35,23.73Z"/><path class="p" d="M59.14,57a21.32,21.32,0,0,1-1.84,1.2,20.76,20.76,0,0,1-2,1l2,4.6A26.09,26.09,0,0,0,62.1,61Z"/><path class="p" d="M40.34,31.1a11.07,11.07,0,0,0-1.71,1.54l1.58,1.43a9,9,0,0,1,.66-0.66,8.6,8.6,0,0,1,.72-0.59Z"/><path class="p" d="M33.46,37.16a13.59,13.59,0,0,0-.22,1.41A14,14,0,0,0,33.16,40H35.8A11.13,11.13,0,0,1,36,37.71Z"/><path class="p" d="M35.76,48a13.7,13.7,0,0,1-.78-1.2l-2.84,1.64a16.8,16.8,0,0,0,1,1.48,17.1,17.1,0,0,0,1.11,1.38l2.43-2.19A13.8,13.8,0,0,1,35.76,48Z"/><path class="p" d="M43.29,56.55a16.84,16.84,0,0,1-1.71-.46L40.32,60a20.62,20.62,0,0,0,2.12.57,21,21,0,0,0,2.17.34l0.42-4A17,17,0,0,1,43.29,56.55Z"/><path class="q" d="M86.59,35.82a39.93,39.93,0,0,0-.65-4.14l-7.57,1.61a32.46,32.46,0,0,1,.7,6.71H86.8A40.47,40.47,0,0,0,86.59,35.82Z"/><path class="q" d="M43.4,29.53a11.15,11.15,0,0,0-1.08.41,11,11,0,0,0-1,.52l1.07,1.84c0.27-.15.54-0.3,0.83-0.42a8.73,8.73,0,0,1,.87-0.33Z"/><path class="q" d="M69.34,53a26.05,26.05,0,0,1-3.2,4.4l4.64,4.18a32.36,32.36,0,0,0,4-5.45Z"/><path class="q" d="M35,33.18a13.53,13.53,0,0,0-1.16,2.61l2.51,0.82a10.83,10.83,0,0,1,.94-2.1Z"/><path class="q" d="M33.82,44.22a13.45,13.45,0,0,1-.37-1.38l-3.2.68a16.79,16.79,0,0,0,1.09,3.36l3-1.33A13.35,13.35,0,0,1,33.82,44.22Z"/><path class="q" d="M38.34,54.65a16.83,16.83,0,0,1-1.48-1L34.47,57a20.72,20.72,0,0,0,3.8,2.2l1.65-3.71A16.6,16.6,0,0,1,38.34,54.65Z"/><path class="q" d="M53.29,60a20.74,20.74,0,0,1-2.12.57,21,21,0,0,1-2.17.34l0.53,5a26.11,26.11,0,0,0,5.32-1.12Z"/><path class="r" d="M55.26,54.65A16.73,16.73,0,0,1,52,56.09L53.29,60a21,21,0,0,0,4-1.79Z"/><path class="r" d="M66.76,46.48a20.76,20.76,0,0,1-1.79,4L69.34,53a26,26,0,0,0,2.22-5Z"/><path class="r" d="M77.49,30a31.8,31.8,0,0,0-1.21-3.15l-5.71,2.54a25.63,25.63,0,0,1,1.68,5.17l6.11-1.3A32,32,0,0,0,77.49,30Z"/><path class="r" d="M66.81,5.35a40,40,0,0,0-3.73-1.9l-3.15,7.07a32.4,32.4,0,0,1,3,1.54,32.77,32.77,0,0,1,2.83,1.84l4.55-6.26A39.78,39.78,0,0,0,66.81,5.35Z"/><path class="r" d="M42.59,53a13.1,13.1,0,0,1-1.33-.51l-1.33,3a17,17,0,0,0,3.36,1.09L44,53.35A13.46,13.46,0,0,1,42.59,53Z"/><path class="r" d="M36.34,36.6a11,11,0,0,0-.3,1.11,11.15,11.15,0,0,0-.18,1.14L38,39.07a8.92,8.92,0,0,1,.38-1.82Z"/><path class="r" d="M37.27,45.5a10.84,10.84,0,0,1-.52-1l-2.41,1.07A13.57,13.57,0,0,0,35.76,48l2.14-1.55A10.89,10.89,0,0,1,37.27,45.5Z"/><path class="r" d="M93.19,45H95V57.66H93.19V45Z"/><path class="r" d="M101,48.12c3.59,0,5.35,2.27,5.35,4.93S104.58,58,101,58,95.64,55.71,95.64,53,97.4,48.12,101,48.12Zm0,1.48A3.45,3.45,0,1,0,104.48,53,3.23,3.23,0,0,0,101,49.6Z"/><path class="r" d="M114.18,48.43h2L112,57.66h-1.94l-4.19-9.23h2l3.17,7.29Z"/><path class="r" d="M117.54,53.58a3.27,3.27,0,0,0,3.4,2.92,3.12,3.12,0,0,0,3-1.64h1.87A5,5,0,0,1,121,58c-3.59,0-5.35-2.27-5.35-4.93s1.76-4.93,5.35-4.93c2.43,0,5,1.41,5,5.23v0.23h-8.49Zm6.62-1.37a3,3,0,0,0-3.22-2.61,3.2,3.2,0,0,0-3.34,2.61h6.57Z"/><path class="r" d="M131.59,45h1.76V57.66h-1.76V45Z"/><path class="r" d="M134.44,45h1.76v1.94h-1.76V45Zm0,3.45h1.76v9.23h-1.76V48.43Z"/><path class="r" d="M138.35,47.06c0-1.71,1.06-2.29,2.83-2.29a14.22,14.22,0,0,1,1.53.14v1.37c-0.33,0-.67,0-1,0-1.14,0-1.62.14-1.62,0.9v1.28h2.61v1.37h-2.61v7.85h-1.76V49.81h-1.88V48.43h1.88V47.06Z"/><path class="r" d="M144.07,53.58a3.27,3.27,0,0,0,3.4,2.92,3.12,3.12,0,0,0,3-1.64h1.87A5,5,0,0,1,147.56,58c-3.59,0-5.35-2.27-5.35-4.93s1.76-4.93,5.35-4.93c2.43,0,5,1.41,5,5.23v0.23h-8.49Zm6.62-1.37a3,3,0,0,0-3.22-2.61,3.2,3.2,0,0,0-3.34,2.61h6.57Z"/></svg>