<svg xmlns="http://www.w3.org/2000/svg" viewBox="0 0 120 80"><defs><style>.a{fill:#ccc;}</style></defs><title>logos</title><path class="a" d="M0,0V80H120V0H0ZM79,20.8a14.61,14.61,0,0,0,2.17,0,0.77,0.77,0,0,0,.67-0.56c0.25-.94.37-1.42,0.63-2.42,0.08-.32.23-0.34,0.32,0,0.29,0.93.44,1.38,0.73,2.25a0.74,0.74,0,0,0,.7.46c0.79,0,1.29,0,2.28-.08,0.3,0,.36.1,0.11,0.3-0.73.57-1.1,0.77-1.82,1.34a0.83,0.83,0,0,0-.24.86c0.3,0.8.45,1.19,0.75,2,0.1,0.25,0,.35-0.25.22-0.73-.39-1.09-0.6-1.82-1a0.79,0.79,0,0,0-.84.08c-0.68.56-1,.84-1.67,1.35-0.22.16-.33,0.07-0.26-0.19,0.21-.77.32-1.17,0.55-2a0.78,0.78,0,0,0-.29-0.78C80,22,79.66,21.71,79,21.11,78.72,20.92,78.76,20.78,79,20.8Zm-15.69-3,2.48,0.72a0.59,0.59,0,0,0,.74-0.29c0.27-.79.4-1.19,0.68-2,0.09-.26.26-0.23,0.37,0.09,0.34,1,.5,1.48.83,2.46a1.28,1.28,0,0,0,.76.74l2.47,0.7c0.32,0.09.37,0.25,0.1,0.36-0.81.33-1.2,0.49-2,.78a0.58,0.58,0,0,0-.28.73l0.74,2.33c0.09,0.3,0,.35-0.28.09l-1.9-1.92a1,1,0,0,0-.91-0.3c-0.74.25-1.11,0.37-1.84,0.6-0.24.08-.37,0-0.29-0.28,0.24-.7.37-1,0.62-1.77a1,1,0,0,0-.32-0.88c-0.81-.76-1.23-1.14-2.07-1.87C63,17.8,63,17.69,63.35,17.78Zm-16.61.7c1.28,0.1,1.91.17,3.17,0.32a0.76,0.76,0,0,0,.86-0.4c0.22-.84.33-1.27,0.54-2.12,0.07-.28.28-0.25,0.45,0.06,0.55,1,.82,1.43,1.35,2.39a1.69,1.69,0,0,0,1,.7c1.17,0.24,1.6.35,3,.73,0.39,0.1.45,0.28,0.17,0.38-0.87.3-1.32,0.39-2.22,0.75a0.56,0.56,0,0,0-.24.79c0.49,1,.72,1.49,1.16,2.52,0.15,0.34,0,.38-0.31.09a23.7,23.7,0,0,0-2.53-1.92,1.37,1.37,0,0,0-1.16-.2c-0.88.38-1.32,0.65-2.22,1.06-0.29.13-.47,0-0.4-0.25,0.23-.82.35-1.31,0.57-2.13a0.93,0.93,0,0,0-.52-0.88c-1.11-.66-1.67-1-2.81-1.59C46.29,18.58,46.32,18.44,46.74,18.47ZM34.25,27.61c1.53-.32,2-0.39,3.44-0.6a1.27,1.27,0,0,0,1-.6c0.31-.88.46-1.32,0.77-2.18,0.1-.28.31-0.29,0.47,0,0.5,0.82.74,1.23,1.22,2.06a1.23,1.23,0,0,0,1,.48c1.36-.08,1.67-0.16,3.05-0.23,0.4,0,.45.14,0.17,0.32-1.06.69-1.38,1-2.32,1.53a0.62,0.62,0,0,0-.3.8c0.46,0.85.68,1.28,1.12,2.16,0.15,0.29,0,.37-0.35.18a27.62,27.62,0,0,0-2.62-1.33,1.48,1.48,0,0,0-1.24.06c-1,.59-1.32.8-2.65,1.64-0.37.23-.55,0.19-0.41-0.16,0.43-1.1.58-1.37,0.93-2.25a0.61,0.61,0,0,0-.48-0.74,26.33,26.33,0,0,0-2.95-.75C33.74,27.87,33.79,27.71,34.25,27.61Zm-6.6,11.58C29.05,39.07,29.72,39,31,39a1.57,1.57,0,0,0,1.14-.52l1.62-2.2c0.21-.28.41-0.27,0.45,0,0.12,0.91.18,1.37,0.28,2.3a0.85,0.85,0,0,0,.76.62c1.31,0.18,1.52.22,2.85,0.46,0.36,0.07.37,0.23,0,.34-1.06.35-1.6,0.55-2.71,1a1,1,0,0,0-.68.82c0,0.94,0,1.41,0,2.37,0,0.32-.19.39-0.42,0.16-0.7-.67-1.06-1-1.82-1.63a1.28,1.28,0,0,0-1.18-.06c-1.22.53-1.83,0.81-3.08,1.39-0.41.19-.56,0.11-0.31-0.2l1.83-2.29a0.57,0.57,0,0,0-.07-0.86,20.09,20.09,0,0,0-2.29-1.24C27.09,39.38,27.21,39.23,27.66,39.19Zm0.83,21.68-2.68-.51a1.77,1.77,0,0,0-1.22.84l-2.45,2.57c-0.34.35-.51,0.3-0.37-0.11,0.39-1.25.52-1.74,0.81-3,0.1-.43.34-0.92-0.38-1l-1.71-.31c-0.7-.13-0.52-0.39-0.17-0.63,1-.66,1.29-0.87,2.83-1.94a2.37,2.37,0,0,0,1.06-1.43c0.43-1.31.64-2.2,1.08-3.66,0.13-.43.42-0.46,0.52-0.16,0.33,1,.58,1.62,1,2.69,0.12,0.32.61,0.31,1.28-.21,2.52-2,6.08-5.38,17.86-12.25a85.09,85.09,0,0,1,24.4-9.25c0.63,0,.55.24,0,0.38-9.06,2.45-17.95,5.91-24.63,10.27-8.53,5.57-11.1,7.54-17.31,13.58a1.36,1.36,0,0,0-.24,1.36c0.39,1.07.29,0.9,0.8,2.16C29.14,60.69,29.14,61,28.48,60.86Zm21.57-6.24a25.87,25.87,0,0,0-2.39,1.55,1.12,1.12,0,0,0-.43,1.06c0.24,1.1.36,1.66,0.59,2.83,0.08,0.38-.09.51-0.36,0.27-0.84-.72-1.26-1.06-2.1-1.72a0.94,0.94,0,0,0-1.1.06c-1,.76-1.49,1.16-2.5,2-0.33.27-.47,0.16-0.32-0.24,0.48-1.2.71-1.78,1.17-2.92a0.88,0.88,0,0,0-.24-1c-0.87-.59-1.32-0.87-2.21-1.4-0.29-.17-0.21-0.35.16-0.4,1.18-.15,1.76-0.21,2.92-0.3a1.22,1.22,0,0,0,.94-0.69l1.08-2.62c0.14-.33.32-0.33,0.41,0,0.27,1,.4,1.49.67,2.52a0.86,0.86,0,0,0,.82.6,16.89,16.89,0,0,1,2.79.08C50.32,54.28,50.35,54.46,50.06,54.63Zm15.06,1.7c-0.8.26-1.21,0.41-2,.7a0.58,0.58,0,0,0-.27.77c0.36,1,.54,1.49.92,2.48,0.13,0.33,0,.39-0.3.13-0.88-.78-1.32-1.18-2.17-2a1.06,1.06,0,0,0-1-.28c-0.83.35-1.25,0.53-2.1,0.93-0.28.13-.43,0-0.32-0.31l0.8-2.19a1.06,1.06,0,0,0-.31-1L56.24,53.5c-0.26-.27-0.21-0.41.12-0.3L58.91,54a0.61,0.61,0,0,0,.77-0.28l0.73-2c0.09-.25.25-0.19,0.36,0.13l0.83,2.48a1.4,1.4,0,0,0,.8.78L65,56C65.31,56.09,65.37,56.24,65.11,56.33Zm13.51-4c-0.9.34-1.32,0.52-2.19,0.86a0.54,0.54,0,0,0-.24.77c0.46,1,.7,1.44,1.19,2.38,0.16,0.31,0,.37-0.32.13a22.6,22.6,0,0,1-2.49-2,1.31,1.31,0,0,0-1.08-.37l-2.07.66c-0.27.09-.43-0.06-0.35-0.33l0.62-2a1.17,1.17,0,0,0-.4-1c-0.94-.91-1.4-1.38-2.3-2.3-0.29-.3-0.25-0.43.1-0.29,1.07,0.44,1.61.66,2.69,1.07a0.58,0.58,0,0,0,.8-0.22c0.26-.8.4-1.19,0.67-2,0.09-.26.26-0.19,0.39,0.14,0.4,1,.6,1.55,1,2.59a1.7,1.7,0,0,0,.91.83,20,20,0,0,0,2.88.68C78.84,52.07,78.91,52.22,78.62,52.33Zm8.81-9c-0.86.6-1.28,0.88-2.12,1.38a0.61,0.61,0,0,0-.26.75c0.37,0.76.56,1.13,0.95,1.86,0.13,0.24,0,.31-0.3.15-0.88-.47-1.31-0.73-2.16-1.28a1.15,1.15,0,0,0-1-.12c-0.77.35-1.15,0.52-1.9,0.84-0.25.11-.38,0-0.3-0.23,0.24-.7.36-1,0.62-1.76a0.81,0.81,0,0,0-.34-0.8c-0.82-.65-1.22-1-2-1.73-0.26-.23-0.22-0.34.1-0.27,1,0.24,1.45.34,2.44,0.51a0.68,0.68,0,0,0,.75-0.39l0.7-2.1c0.1-.27.26-0.26,0.36,0,0.33,0.91.51,1.36,0.85,2.26a1,1,0,0,0,.81.57,22.08,22.08,0,0,0,2.66,0C87.66,43,87.71,43.16,87.44,43.36Zm7.16-13.6c-0.83.86-1.24,1.29-2.06,2.11a1,1,0,0,0-.32.91c0.28,0.72.42,1.08,0.72,1.77,0.09,0.23,0,.36-0.3.3a15.38,15.38,0,0,1-2-.59,1,1,0,0,0-.92.27c-0.79.73-1.21,1.08-1.94,1.73-0.24.21-.36,0.15-0.27-0.13,0.26-.86.47-1.32,0.79-2.22a0.6,0.6,0,0,0-.24-0.75c-0.73-.36-1.09-0.56-1.8-1-0.23-.13-0.18-0.28.12-0.33,0.91-.15,1.37-0.24,2.31-0.46a1.23,1.23,0,0,0,.75-0.7l0.85-2.44c0.11-.32.26-0.37,0.34-0.1,0.24,0.82.36,1.22,0.62,2a0.55,0.55,0,0,0,.73.27c1-.34,1.48-0.53,2.48-0.95C94.82,29.37,94.86,29.49,94.59,29.76Zm7.76-12.58-1.88,1.71a0.82,0.82,0,0,0-.31.78c0.27,0.59.4,0.88,0.7,1.42,0.1,0.18,0,.3-0.29.27a19.15,19.15,0,0,1-1.91-.3,1.27,1.27,0,0,0-.93.35l-2,1.87c-0.27.24-.4,0.21-0.28-0.07,0.36-.86.55-1.29,0.9-2.15a0.46,0.46,0,0,0-.22-0.65c-0.73-.22-1.09-0.35-1.8-0.64-0.23-.09-0.17-0.24.14-0.33,0.94-.27,1.42-0.41,2.36-0.71a1.39,1.39,0,0,0,.77-0.69c0.36-.88.54-1.32,0.89-2.21,0.12-.28.26-0.32,0.33-0.09,0.2,0.72.31,1.06,0.54,1.73a0.53,0.53,0,0,0,.68.21l2.27-.74C102.54,16.88,102.59,17,102.35,17.19Z"/></svg>