<svg xmlns="http://www.w3.org/2000/svg" viewBox="0 0 80 80"><defs><style>.a{fill:#b3b3b3;}.b{fill:#ccc;}.c{fill:#e2e2e2;}</style></defs><title>logos</title><path class="a" d="M25.38,46.63H24.84v2.76h0.55A1.17,1.17,0,0,0,26.54,48C26.54,47,26.2,46.63,25.38,46.63Z"/><polygon class="a" points="42.2 46.82 41.45 51.8 42.98 51.8 42.23 46.82 42.2 46.82"/><path class="a" d="M5.49,40a34.51,34.51,0,0,0,69,0h-69ZM17.35,56.37c-2.8,0-3.76-1.71-3.76-6.09s1-6.09,3.76-6.09,3.76,1.71,3.76,6.09S20.15,56.37,17.35,56.37Zm12.3-.23H26.73a6.82,6.82,0,0,1-.27-2.23V53.12c0-1.33-.24-1.67-0.9-1.67H24.84v4.69H22.1V44.43h4.29c2.09,0,2.89,1.31,2.89,3.12,0,1.56-.55,2.58-1.8,2.79v0c1.33,0.13,1.73,1.07,1.73,2.63v1a5.31,5.31,0,0,0,.13,1.62,0.77,0.77,0,0,0,.31.36v0.16Zm4.5-1.84c0.58,0,.91-0.41.93-2.46h-1V49.78h3.54v6.37H35.79l-0.06-1h0a2.18,2.18,0,0,1-2.27,1.26c-2.79,0-3-2.22-3-6.09s0.68-6.09,3.92-6.09c1.95,0,3.33,1.1,3.33,3.94H35a4.64,4.64,0,0,0-.15-1.36,0.63,0.63,0,0,0-.63-0.51c-0.9,0-1,.85-1,4S33.31,54.31,34.15,54.31Zm9.44,1.84-0.28-2.05H41.13l-0.28,2.05H37.93l2.57-11.72h3.45l2.57,11.72H43.59Zm10.81,0h-3l-1.83-7.24h0v7.24H47V44.43H50l1.77,7.22h0V44.43H54.4V56.14Zm3.94,0H55.59V44.43h2.74V56.14ZM63,56.37c-3.08,0-3.76-1.72-3.76-6.09S60.14,44.2,63,44.2c2.48,0,3.41,1.44,3.41,3.71v0.74H63.74V48c0-1.33-.22-1.72-0.75-1.72-0.84,0-.93.85-0.93,4s0.09,4,.93,4c0.68,0,.83-0.66.83-2.87h2.65V52.3C66.46,55.59,64.74,56.37,63,56.37Z"/><path class="a" d="M17.35,46.26c-0.84,0-.93.85-0.93,4s0.09,4,.93,4,0.93-.85.93-4S18.19,46.26,17.35,46.26Z"/><path class="b" d="M80,40A40,40,0,1,1,40,0,40,40,0,0,1,80,40ZM40,3.11A36.89,36.89,0,1,0,76.89,40,36.89,36.89,0,0,0,40,3.11Z"/><path class="a" d="M22.54,20.91V32c0,1.49.41,1.87,1.08,1.87S24.7,33.49,24.7,32V20.91h3.59V31c0,4.31-1.66,5.6-4.67,5.6S19,35.3,19,31V20.91h3.59Z"/><path class="a" d="M34.81,25.35V25c0-.9-0.33-1.66-1-1.66a1.19,1.19,0,0,0-1.12,1.36c0,3,5.86,1.55,5.86,7.17,0,3.27-1.72,4.74-4.88,4.74-3,0-4.63-1.14-4.63-4.33V31.73h3.47v0.37c0,1.31.48,1.79,1.18,1.79a1.28,1.28,0,0,0,1.16-1.49c0-3-5.63-1.53-5.63-7,0-3.1,1.49-4.8,4.51-4.8s4.46,1.44,4.46,4.74H34.81Z"/><path class="a" d="M40.19,20.91H45.4c4.15,0,4.36,3.66,4.36,7.69s-0.21,7.69-4.36,7.69H40.19V20.91Zm3.59,12.49h0.71c1.39,0,1.56-.65,1.56-4.8s-0.17-4.8-1.56-4.8H43.78v9.61Z"/><path class="a" d="M53.18,20.91h4.51L61,36.29H57.23L56.86,33.6H54l-0.37,2.69H49.82Zm2.28,3.14h0l-1,6.53h2Z"/><path class="c" d="M46,51.37V50.6l-1.54.59,0.16,0.75Zm8.63-4.09-1.19.46V48.3l1.19-.49V47.28ZM46,45.39V44.7l-2.86.49,0.16,0.72Zm4.87,4V48.73L50.18,49l0.15,0.59ZM39,46.76l0.2-.89-2.77.47a5.07,5.07,0,0,1,.19.89Zm9.55,2.86v0.7l0.35-.14-0.16-.63ZM17.31,51c0-.23,0-0.46,0-0.72s0-.46,0-0.68l-1.86.32c0,0.12,0,.24,0,0.36,0,0.4,0,.75,0,1.08Zm12.3-3.5-1.3.22a4.24,4.24,0,0,1-.18,1.16l1.35-.26C29.5,48.22,29.55,47.85,29.6,47.5ZM62,54.3l0.77-1a9.05,9.05,0,0,0,.08-1L61.4,54A0.63,0.63,0,0,0,62,54.3ZM25.55,48.2l-1.68.29v0.9h0.55A1.11,1.11,0,0,0,25.55,48.2Zm-5.42,2.25,1-.19V49l-1,.17c0,0.37,0,.75,0,1.16C20.14,50.34,20.14,50.39,20.14,50.45Zm13.73-3.67L32.42,47a6,6,0,0,0-.13,1L34,47.74A3.69,3.69,0,0,0,33.87,46.78ZM37.2,55l0.24-1.11-0.77.3v1Zm21.85-9.43-1.69.65v0.45l1.44-.6A3.77,3.77,0,0,1,59.05,45.57ZM6.47,51.46q0.28,0.79.59,1.55l5.62-1.1q-0.05-.69-0.05-1.5Zm42.59-7,0.08,0.35,1.71-.34h0.06L73.53,40,47.62,44.43h1.44Zm14-.11L73.53,40l-11,4.23A4.33,4.33,0,0,1,63.09,44.31ZM50.42,56.14l-0.15-.6L25.8,71.88q0.91,0.38,1.86.71L50.81,56.14H50.42Zm-6.56,18q1.22-.17,2.41-0.43l14.2-17.58a2.77,2.77,0,0,1-.69-0.32Zm-9.1-19.06h0a2.18,2.18,0,0,1-2.27,1.26,3.61,3.61,0,0,1-1.07-.15l-18,6.91q0.56,0.62,1.15,1.21L34.81,56Zm22.61-3.62,0.89-.63c0-.19,0-0.37,0-0.57,0,0,0-.05,0-0.08l-0.89.59v0.69Zm-3.94,2.8,1.19-.85v-0.8l-1.19.8v0.85Zm9.3-7.06L61.11,48.3c0,0.17,0,.35,0,0.54l1.66-1.18C62.75,47.5,62.74,47.35,62.72,47.22Zm0.88,4.21h0.69L73.53,40ZM65.1,46l8.43-6L65,45.71C65,45.8,65.06,45.89,65.1,46Z"/></svg>