<svg xmlns="http://www.w3.org/2000/svg" viewBox="0 0 250 80"><defs><style>.a{fill:#ccc;}</style></defs><title>logos</title><path class="a" d="M29.08,38.58c-0.07,4-.37,7.51-2.83,11C23.52,53.34,19.44,55,14.8,55,6.07,55,0,49.07,0,40.35c0-9,6.11-14.95,15.06-14.95,5.71,0,10.12,2.58,12.51,7.77L20.72,36a6.27,6.27,0,0,0-6-4.42c-4.75,0-7.21,4.53-7.21,8.76s2.58,8.69,7.32,8.69c3.13,0,5.52-1.62,5.82-4.82H14.76V38.58H29.08Z"/><path class="a" d="M39.24,48h8.65v6.11H32V26.32h7.22V48Z"/><path class="a" d="M79.14,39.69c0,9-6.44,15.31-15.35,15.31S48.44,48.67,48.44,39.69c0-8.39,7.36-14.28,15.35-14.28S79.14,31.29,79.14,39.69ZM56,39.72a7.85,7.85,0,1,0,15.68,0c0-3.83-3.53-7.33-7.84-7.33S56,35.9,56,39.72Z"/><path class="a" d="M82.49,54.08V26.32H92.8c4.93,0,8.25,1.91,8.25,7.22,0,2.5-.81,4.53-3.06,5.67v0.07c4,0.52,5.67,3.2,5.67,7.07,0,5.82-5,7.73-10,7.73H82.49Zm7.22-16.86h0.81c1.91,0,3.9-.33,3.9-2.69,0-2.54-2.24-2.69-4.2-2.69H89.71v5.37Zm0,11.34h0.92c2.13,0,5.74.11,5.74-2.94,0-3.35-3.57-3-5.93-3H89.71v6Z"/><path class="a" d="M114.44,49.26l-1.91,4.82h-7.66l10.68-27.76h7.88l10.45,27.76h-7.69l-1.8-4.82h-9.94Zm5-14.36h-0.07l-3,8.83h6Z"/><path class="a" d="M143.12,48h8.65v6.11H135.91V26.32h7.22V48Z"/><path class="a" d="M179.1,40.13c0.07,3.75-.33,6.85-2.87,9.79A13.71,13.71,0,0,1,166,54.56a14.36,14.36,0,1,1,11.93-22.71l-2.25,2.1a11.29,11.29,0,0,0-9.53-5.23,11.52,11.52,0,0,0-11.34,11.6A11.18,11.18,0,0,0,158,48.15a11.66,11.66,0,0,0,7.88,3.53c4.82,0,9.9-3.53,9.9-8.69h-8.25V40.13H179.1Z"/><path class="a" d="M187.13,52.46a2.06,2.06,0,1,1-4.12,0A2.06,2.06,0,0,1,187.13,52.46Z"/><path class="a" d="M198,46.2l-3.35,7.88h-3.39L204.1,25l12.48,29.08h-3.42l-3.28-7.88H198Zm6-14-4.75,11.12h9.39Z"/><path class="a" d="M225.67,52.46a2.06,2.06,0,1,1-4.12,0A2.06,2.06,0,0,1,225.67,52.46Z"/><path class="a" d="M234.8,54.08H231.7V26.32h4.56c2.39,0,4.86.07,6.88,1.47a7.65,7.65,0,0,1,3.13,6.33,7.79,7.79,0,0,1-2.65,6c-1.88,1.55-4.27,1.84-6.59,1.84H234.8V54.08Zm0-15h2.06c3.42,0,6.33-1,6.33-5,0-4.53-3.64-4.86-7.25-4.86H234.8v9.87Z"/><path class="a" d="M250,52.46a2.06,2.06,0,1,1-4.12,0A2.06,2.06,0,0,1,250,52.46Z"/></svg>