<svg xmlns="http://www.w3.org/2000/svg" width="342" height="212" viewBox="0 0 342 212"><defs><style>.a{fill:gray;}</style></defs><title>pipeline</title><path class="a" d="M49,118.79H48v5.32H49c1.51,0,2.22-1.08,2.22-2.69C51.22,119.58,50.57,118.79,49,118.79Z"/><polygon class="a" points="81.45 119.17 80 128.76 82.96 128.76 81.51 119.17 81.45 119.17"/><path class="a" d="M33.49,118.09c-1.62,0-1.79,1.65-1.79,7.76s0.17,7.76,1.79,7.76,1.79-1.65,1.79-7.76S35.11,118.09,33.49,118.09Z"/><path class="a" d="M154.4,106A77.2,77.2,0,1,1,77.2,28.8,77.2,77.2,0,0,1,154.4,106ZM77.2,34.81A71.19,71.19,0,1,0,148.4,106,71.19,71.19,0,0,0,77.2,34.81Z"/><path class="a" d="M43.5,69.16V90.57c0,2.87.78,3.62,2.09,3.62s2.08-.75,2.08-3.62V69.16H54.6V88.62c0,8.31-3.2,10.81-9,10.81s-9-2.49-9-10.81V69.16H43.5Z"/><path class="a" d="M67.18,77.73V77c0-1.75-.63-3.2-2-3.2S63,75.11,63,76.44c0,5.86,11.32,3,11.32,13.84,0,6.32-3.31,9.15-9.42,9.15-5.73,0-8.94-2.2-8.94-8.36V90h6.7v0.71c0,2.54.93,3.45,2.27,3.45s2.23-1.25,2.23-2.87c0-5.86-10.87-3-10.87-13.47,0-6,2.87-9.27,8.71-9.27,6,0,8.6,2.78,8.6,9.14H67.18Z"/><path class="a" d="M77.57,69.16H87.62c8,0,8.42,7.07,8.42,14.84s-0.41,14.84-8.42,14.84H77.57V69.16ZM84.5,93.27h1.38c2.68,0,3-1.25,3-9.27s-0.34-9.27-3-9.27H84.5V93.27Z"/><path class="a" d="M102.64,69.16h8.71l6.48,29.68h-7.37l-0.71-5.2h-5.51l-0.71,5.2H96.16ZM107,75.23H107l-1.9,12.6h3.87Z"/><path class="a" d="M90.65,116.4l-5.21,1,2.23,10.19,3-1.14V116.4Zm5.62,9.22h0l-0.67.28v11.25h-5v-9.21L88,129l-0.24-1.11,2,9.22H84.13l-0.54-4H79.38l-0.54,4H73.2l0.64-2.94-0.16.74-1,.42v1.78H69.07l0-.29L30,153a66.69,66.69,0,0,0,21.68,14.54L98.89,136Zm-0.67-2.43v1.37l0.37-.14-0.31-1.23H95.6Zm4.44-8.63-3.31.65L100,128.48H100v-4.41l-1,.43-0.28-1.14,1.31-.51v-8.28Zm14.27,12.38-1.72,1.22v9H107.3v-5.23L105,133.57v3.59H99.94L55.27,168.89a66.39,66.39,0,0,0,31.27,3l30.71-35.36C115.08,135.13,114.39,132.07,114.31,126.95Zm-50.2-1.1c0,6.11.17,7.76,1.79,7.76,1.11,0,1.77-.79,1.79-4.75H65.83v-4h6.83v8.52l1.49-.57,3-13.77-4.62.9v0a13.88,13.88,0,0,1,.12,1.79H67.53c0-.29,0-0.51,0-0.77l-3.3.64C64.14,122.68,64.12,124,64.12,125.85Zm-5.47,0c0-1.15,0-2.22.11-3.21l-2.61.51A3.76,3.76,0,0,1,53,125.95V126c2.56,0.25,3.33,2.06,3.33,5.07V133a10.25,10.25,0,0,0,.26,3.14,1.49,1.49,0,0,0,.6.7v0.32H51.59a13.16,13.16,0,0,1-.51-4.31v-1.52c0-2.57-.46-3.23-1.74-3.23H48v9.06H42.66V125.79l-1.91.37c0-.11,0-0.21,0-0.32,0,8.46-1.85,11.75-7.26,11.75-4.68,0-6.69-2.47-7.15-8.61l-10.83,2.12A66.62,66.62,0,0,0,27.8,150.66l34.66-13.34C59,136.26,58.65,132.23,58.65,125.85ZM66,118.09c-0.83,0-1.3.4-1.56,1.46l2.79-.48h0A1.22,1.22,0,0,0,66,118.09Zm57,13.68-1.48,1.83h0.06C122.37,133.61,122.78,133.13,123,131.77Zm0.46-17.48A5.18,5.18,0,0,1,127.3,117v0l16.51-11-20.15,8.32ZM126,128.07h2.31v1.68c0,6.34-3.33,7.86-6.72,7.86a9.75,9.75,0,0,1-3-.4h0l-27.4,33.91A66.62,66.62,0,0,0,143.8,106Zm-10.59-10.33-2.79,1.15v8l1.71-1.14c0,0.05,0,.1,0,0.15C114.3,122.23,114.62,119.59,115.38,117.74Zm-101,10.37,11.86-2c0-.08,0-0.15,0-0.23,0-8.46,1.85-11.75,7.26-11.75,4.9,0,6.87,2.72,7.2,9.52l2-.34v-8.74h8.28c4,0,5.58,2.53,5.58,6,0,0.12,0,.23,0,0.35l2.52-.43c0.71-4.15,2.64-6.38,7.21-6.38,2.87,0,5.09,1.25,6,4.26,0,0,0-.09,0-0.13l5.35-.91,0.61-2.78h6.66L85.14,116l5.51-.94v-0.54h3.15l50-8.54H10.6A66.47,66.47,0,0,0,14.37,128.11ZM105,114.54v6.4l2.31-.89v-5.51h5.29V118l3.26-1.26c1.13-1.87,2.94-2.66,5.7-2.66a10,10,0,0,1,1.37.11l-0.31,0L143.8,106l-43.66,8.54H105Zm2.31,6.53L105,122v9.9l2.31-1.54v-9.31Zm20-3.92a9.42,9.42,0,0,1,.79,4.11v1.43H123v-1.27c0-2.57-.43-3.33-1.45-3.33-1.21,0-1.61.92-1.74,3.93l3.12-2.08c0,0.25,0,.53.06,0.84l-3.2,2.27c0,0.82,0,1.71,0,2.8,0,4.11.09,6.17,0.63,7.1l2.73-3.14c0-.52,0-1.08,0-1.74h1.48L143.8,106l-16.27,11.56C127.47,117.42,127.41,117.29,127.35,117.15Z"/><path class="a" d="M270.32,34.32A71.68,71.68,0,1,0,342,106,71.68,71.68,0,0,0,270.32,34.32Zm20,50.27a16.45,16.45,0,0,0,2.44,0,0.87,0.87,0,0,0,.75-0.63c0.28-1.05.42-1.6,0.71-2.73,0.09-.36.26-0.38,0.36,0,0.33,1,.49,1.55.83,2.54a0.84,0.84,0,0,0,.79.51c0.89,0,1.46,0,2.57-.08,0.34,0,.41.12,0.12,0.34-0.82.65-1.24,0.87-2,1.51a0.94,0.94,0,0,0-.27,1c0.33,0.9.5,1.34,0.85,2.21,0.11,0.29,0,.39-0.29.25-0.82-.44-1.23-0.67-2-1.16a0.89,0.89,0,0,0-.95.09c-0.76.64-1.14,0.94-1.88,1.52-0.24.19-.38,0.08-0.3-0.21,0.24-.86.36-1.32,0.62-2.27a0.88,0.88,0,0,0-.33-0.88c-0.83-.6-1.23-0.93-2-1.61C290,84.72,290,84.56,290.36,84.59Zm-17.68-3.41L275.47,82a0.67,0.67,0,0,0,.83-0.33c0.3-.89.45-1.34,0.77-2.28,0.1-.3.29-0.26,0.41,0.1,0.38,1.11.56,1.67,0.93,2.77a1.44,1.44,0,0,0,.86.84l2.78,0.79c0.36,0.1.41,0.28,0.12,0.41-0.91.37-1.35,0.55-2.23,0.88a0.66,0.66,0,0,0-.32.83l0.83,2.63c0.11,0.34,0,.39-0.31.1-0.84-.87-1.27-1.3-2.14-2.17a1.15,1.15,0,0,0-1-.34c-0.84.28-1.25,0.42-2.07,0.67-0.27.09-.42-0.06-0.33-0.31,0.28-.78.42-1.18,0.7-2a1.1,1.1,0,0,0-.37-1c-0.92-.86-1.39-1.28-2.33-2.1C272.28,81.21,272.32,81.08,272.68,81.18ZM254,82c1.44,0.11,2.15.19,3.57,0.36a0.86,0.86,0,0,0,1-.45c0.25-.95.37-1.43,0.61-2.39,0.08-.31.31-0.28,0.51,0.07,0.62,1.07.93,1.61,1.52,2.7a1.9,1.9,0,0,0,1.17.78c1.32,0.27,1.8.39,3.4,0.82,0.44,0.12.51,0.32,0.19,0.43-1,.34-1.49.43-2.51,0.85a0.63,0.63,0,0,0-.26.89c0.55,1.09.81,1.68,1.31,2.84,0.17,0.38,0,.43-0.35.1a26.7,26.7,0,0,0-2.85-2.16,1.54,1.54,0,0,0-1.3-.23c-1,.43-1.49.74-2.5,1.19-0.33.15-.53,0-0.45-0.28,0.26-.93.39-1.47,0.64-2.4a1.05,1.05,0,0,0-.58-1c-1.25-.75-1.89-1.1-3.17-1.79C253.46,82.08,253.5,81.93,254,82ZM239.91,92.26c1.72-.36,2.25-0.44,3.88-0.68a1.43,1.43,0,0,0,1.1-.68c0.35-1,.52-1.48.87-2.46,0.11-.31.35-0.33,0.53,0,0.56,0.92.84,1.38,1.38,2.32a1.39,1.39,0,0,0,1.17.54c1.53-.09,1.88-0.18,3.44-0.26,0.45,0,.5.15,0.19,0.36-1.19.77-1.55,1.09-2.61,1.73a0.7,0.7,0,0,0-.33.9c0.51,1,.77,1.44,1.26,2.43,0.16,0.33,0,.42-0.4.2a31.11,31.11,0,0,0-3-1.5,1.67,1.67,0,0,0-1.39.06c-1.12.67-1.49,0.91-3,1.85-0.42.26-.62,0.22-0.46-0.18,0.49-1.24.65-1.54,1.05-2.54a0.69,0.69,0,0,0-.54-0.84,29.67,29.67,0,0,0-3.32-.85C239.33,92.55,239.39,92.37,239.91,92.26Zm-7.43,13c1.57-.13,2.33-0.16,3.79-0.16a1.77,1.77,0,0,0,1.29-.58l1.82-2.47c0.23-.32.46-0.3,0.51,0,0.13,1,.2,1.54.31,2.59a1,1,0,0,0,.85.7c1.48,0.21,1.72.25,3.21,0.52,0.4,0.08.41,0.26,0,.39-1.19.4-1.8,0.62-3.06,1.1a1.17,1.17,0,0,0-.76.92c0,1.06,0,1.59,0,2.67,0,0.36-.22.44-0.48,0.18-0.79-.76-1.2-1.13-2-1.84a1.45,1.45,0,0,0-1.33-.07c-1.37.59-2.06,0.91-3.47,1.57-0.46.22-.63,0.12-0.35-0.22l2.06-2.58a0.64,0.64,0,0,0-.08-1,22.65,22.65,0,0,0-2.58-1.39C231.84,105.52,232,105.35,232.48,105.3Zm0.93,24.42c-1.68-.32-1.82-0.35-3-0.57a2,2,0,0,0-1.38.95l-2.76,2.9c-0.38.39-.57,0.33-0.42-0.13,0.44-1.41.58-2,.91-3.34,0.12-.48.39-1-0.43-1.18l-1.93-.35c-0.79-.14-0.58-0.44-0.19-0.71,1.09-.74,1.45-1,3.19-2.19a2.66,2.66,0,0,0,1.2-1.61c0.48-1.48.72-2.48,1.22-4.12,0.15-.48.47-0.52,0.58-0.18,0.37,1.13.65,1.82,1.11,3,0.13,0.36.69,0.35,1.44-.24,2.84-2.2,6.85-6.06,20.12-13.8,12.2-7.12,26.28-10.36,27.49-10.42,0.7,0,.62.27,0,0.43-10.21,2.76-20.22,6.66-27.75,11.57-9.61,6.27-12.51,8.49-19.5,15.3a1.53,1.53,0,0,0-.27,1.53c0.44,1.2.33,1,.9,2.44C234.15,129.52,234.15,129.86,233.41,129.72Zm24.3-7a29.14,29.14,0,0,0-2.69,1.75,1.26,1.26,0,0,0-.49,1.19c0.28,1.24.41,1.87,0.67,3.19,0.09,0.43-.1.57-0.41,0.31-0.94-.81-1.41-1.19-2.36-1.94a1.06,1.06,0,0,0-1.24.07c-1.12.86-1.68,1.3-2.81,2.22-0.37.3-.53,0.18-0.36-0.27,0.54-1.35.8-2,1.32-3.29a1,1,0,0,0-.27-1.16c-1-.66-1.49-1-2.49-1.58-0.33-.19-0.24-0.4.19-0.45,1.33-.17,2-0.23,3.29-0.34a1.38,1.38,0,0,0,1.06-.77l1.22-3c0.15-.37.36-0.38,0.46,0,0.3,1.11.45,1.68,0.75,2.84a1,1,0,0,0,.92.67,19,19,0,0,1,3.14.09C258,122.3,258,122.51,257.71,122.7Zm17,1.91c-0.91.3-1.36,0.46-2.28,0.79a0.66,0.66,0,0,0-.31.87c0.4,1.12.61,1.68,1,2.8,0.14,0.37,0,.44-0.34.14-1-.88-1.48-1.33-2.45-2.24a1.19,1.19,0,0,0-1.14-.31c-0.93.39-1.41,0.6-2.37,1.05-0.32.15-.48,0-0.36-0.34l0.9-2.47a1.2,1.2,0,0,0-.35-1.12l-2.34-2.35c-0.3-.31-0.24-0.46.13-0.34l2.88,0.92a0.69,0.69,0,0,0,.87-0.32l0.83-2.22c0.1-.28.28-0.21,0.4,0.15,0.37,1.11.55,1.67,0.93,2.79a1.58,1.58,0,0,0,.9.88l2.89,0.94C274.89,124.34,275,124.51,274.67,124.61Zm15.22-4.5c-1,.39-1.49.59-2.47,1a0.61,0.61,0,0,0-.26.87c0.52,1.08.79,1.62,1.34,2.68,0.18,0.34,0,.42-0.36.15a25.46,25.46,0,0,1-2.81-2.21,1.48,1.48,0,0,0-1.21-.41l-2.33.75c-0.31.1-.49-0.07-0.4-0.37l0.7-2.27a1.32,1.32,0,0,0-.45-1.14c-1.05-1-1.57-1.55-2.59-2.59-0.33-.34-0.28-0.48.11-0.32,1.21,0.5,1.81.74,3,1.21a0.66,0.66,0,0,0,.9-0.24c0.29-.9.45-1.34,0.75-2.23,0.1-.29.29-0.21,0.44,0.16,0.45,1.17.68,1.75,1.16,2.91a1.91,1.91,0,0,0,1,.94,22.52,22.52,0,0,0,3.25.77C290.14,119.82,290.22,120,289.9,120.11ZM299.83,110c-1,.67-1.44,1-2.38,1.56a0.69,0.69,0,0,0-.3.85c0.42,0.85.64,1.27,1.07,2.1,0.15,0.28,0,.35-0.34.17-1-.53-1.48-0.82-2.44-1.44a1.3,1.3,0,0,0-1.09-.14c-0.87.4-1.3,0.58-2.14,0.94-0.28.12-.43,0-0.34-0.26,0.27-.79.41-1.18,0.69-2a0.91,0.91,0,0,0-.38-0.9c-0.92-.73-1.37-1.16-2.27-1.95-0.29-.25-0.24-0.39.11-0.31,1.08,0.27,1.63.39,2.74,0.58a0.76,0.76,0,0,0,.84-0.44l0.79-2.36c0.11-.31.29-0.29,0.41,0,0.37,1,.57,1.53,1,2.54a1.11,1.11,0,0,0,.92.64,24.87,24.87,0,0,0,3,0C300.07,109.63,300.13,109.78,299.83,110Zm8.06-15.32c-0.93,1-1.4,1.45-2.33,2.38a1.13,1.13,0,0,0-.36,1c0.31,0.81.47,1.22,0.81,2,0.11,0.25,0,.41-0.34.34a17.32,17.32,0,0,1-2.2-.66,1.16,1.16,0,0,0-1,.31c-0.89.82-1.36,1.22-2.18,1.95-0.27.24-.41,0.17-0.31-0.15,0.3-1,.53-1.48.89-2.5a0.68,0.68,0,0,0-.27-0.84c-0.82-.41-1.23-0.63-2-1.1-0.26-.15-0.2-0.31.13-0.37,1-.17,1.55-0.27,2.6-0.52a1.38,1.38,0,0,0,.85-0.79l1-2.75c0.12-.36.3-0.42,0.38-0.12,0.27,0.93.41,1.38,0.69,2.26a0.62,0.62,0,0,0,.82.3c1.1-.38,1.66-0.59,2.79-1.07C308.14,94.24,308.19,94.37,307.89,94.68Zm8.74-14.17-2.12,1.93a0.92,0.92,0,0,0-.35.88c0.3,0.67.46,1,.79,1.6,0.11,0.2,0,.34-0.33.31a21.56,21.56,0,0,1-2.16-.34,1.43,1.43,0,0,0-1.05.4l-2.3,2.1c-0.31.27-.45,0.24-0.31-0.08,0.41-1,.61-1.45,1-2.42a0.52,0.52,0,0,0-.24-0.73c-0.82-.25-1.23-0.4-2-0.72-0.26-.1-0.19-0.27.16-0.37,1.06-.3,1.6-0.46,2.66-0.79a1.57,1.57,0,0,0,.86-0.78c0.4-1,.61-1.49,1-2.49,0.13-.32.29-0.36,0.37-0.1,0.23,0.81.35,1.2,0.6,2a0.59,0.59,0,0,0,.76.24l2.56-.84C316.84,80.17,316.89,80.28,316.62,80.52Z"/></svg>