<svg xmlns="http://www.w3.org/2000/svg" width="342" height="212" viewBox="0 0 342 212"><defs><style>.a{fill:#848484;fill-rule:evenodd;}</style></defs><title>pipeline</title><path class="a" d="M137.57,52.8a0.14,0.14,0,0,0,0-.24c0.14,0,.87,0,0.41-0.25l0.8-.11s0-.09-0.07-0.13a5.79,5.79,0,0,0,.77-0.3,38.31,38.31,0,0,0-5.05.06,4.49,4.49,0,0,1,1-.67c-0.23-.27-1.88,0-2.36,0,0.61-.34,1.37-0.29.64-0.93,0.8-.23,2.14.48,2.49-0.58,0.16-.48-1-0.25-1.27-0.39a15.39,15.39,0,0,0,1.54.13c0.41,0.2,1,1,1.25,1.06,1.17,0.44.68,0.86,1.63,0,0,0.23,0,.45,0,0.67,0.88,0,1.09-1.66.45-1.77a0.47,0.47,0,0,0-.48.43,0.57,0.57,0,0,1,.43-0.86,17.59,17.59,0,0,1-3.06-1.13c1.77-1.08-1.24-.5-1.37-0.57,2.78-.92,1.44.33,4.12,1,1.76-3.55-4.67-1.22-5-1.8a2.08,2.08,0,0,0,1-.2,2.32,2.32,0,0,1-.69-0.34c0.25,0.09,2.27.48,2.35-.19q-0.34-.29-0.7-0.56c0.54,0.2.77,0.71,1.29,0.16,0.46,0.49,3.64,1.44,3.55,0a7.19,7.19,0,0,1-1.82-1c0.21-.14.5-0.19,0.33-0.52,0.3,0.13.17,0.37,0,.6-0.37-.16,1.89.59,1.6-0.07a1.4,1.4,0,0,0,.89,0c1.3-1.32-2.37-1-1.63-.64a0.44,0.44,0,0,0,0-.79,0.73,0.73,0,0,1-1.09-.08c1.34,0.57,3.37-.28,2.2-1.72-0.19-.24-2.7-1-2.51-1.36,0.35-.71,3,0.07,3.46-0.11,1.88-.68-1.33-1.05-1.69-1.65a6.6,6.6,0,0,0,1.29,0c-0.1-1.3-1.88-.05-2.12-0.06-0.56,0,.83-1.91.39-2,0.35-.43,1.82-0.59,2-1.16s-1.23-1.39-1-1.75c0.31-.58,4-0.7,3.87-0.86a4.26,4.26,0,0,1-.71-0.31c0.22-.09,2.83-0.44,2.14-0.87,0.57-.53,2.31-0.26,2.85-1,0.3-.44-4.2-0.75-4.52-0.69-0.57.1-.86,0.64-1.53,0.7a10.29,10.29,0,0,0-1.1-.15,1.94,1.94,0,0,0-.77-0.17c-0.56.12-2.42,1.92-3.08,1.78,0.14,0,2.06-2,1.91-2.41-0.48-1.2-1.62,0-2.15,0-0.91,0-5.59-1-6.07-.53,0.57-.59,8,0,7.81-1.21,0,0.18-3.13-1.23-3.42-1.26-2-.23-4.44.7-6.47,0.4,0-.7,5.33-0.32,5.89-0.65-2.07-1.23-5.8-.77-8.1-0.69-0.23,0-4.22.29-4.11,0.5s0.8,0.18.68,0.58c0-.17-7.24-0.33-8,0.33a15.9,15.9,0,0,0,4.73.59c-0.16.06-3.83-.44-3.86-0.09s1.87,0.81.91,1.84c-0.79.85-4.42-1.67-6-1.21,0.13,0.76.93,0.78,1.37,1.23-1,.52-2.82-1.28-3.32-0.84s0.61,0.82-.47,1.43c-0.63-1.31,0-1.31-1.94-1.39-0.45,0-3.18.1-3.42,0.59-0.05.1,2.28,1.13,2.48,1.45-2,0-2.3-1.52-4.28-.7,0.23-.1-0.42,1.12-0.46,1.15-0.24.25-2.07-.62-1.31,0.59-1-.31-3.19-0.12-3.72,1.12s2.15,0.21,2.63.59c-1,.23-0.83,1.52-1.76,2.06-0.63.36-2,0-2.81,0.37,0,0-3.25.91-3.38,1.26-0.41,1.19,1.71.78,2.38,1a1.53,1.53,0,0,0-.45.23c1.49,0.88,3.38-.45,3.94.87-0.52-.2-4.08-0.19-4.43.34-0.55.84,1.49,0.14,1.31,0.23-0.47.9,1.09,0.41,1.49,0.66a1.6,1.6,0,0,0-1.22.54c0.3,0.55,2,.88,2.58.76-0.61-.47,2-0.52,2.67-0.51s6,1.07,4.95,1.63a8.17,8.17,0,0,0,2.22,1.6c-0.39.26-.47,0.46-0.92,0.74,0.64,0.09,1.15-.29,1.31.67-0.61-.09.09,0.67,0.09,0.68,0.87-.31,0,0.56.1,0.7,0.6,0.66,1.3-.28,0,1a0.56,0.56,0,0,1,.29.17q-0.37,0-.27.31a1.15,1.15,0,0,0,.63-0.36A8,8,0,0,0,108,49c0.13,0.1,2.11.88,1.53,0.09,0.82,0.29,0-1.24.35-1.23-0.31.1,0.31,1.05,0.48,1,0,0.05-.58.43-0.15,0.45a9.81,9.81,0,0,0,1.44-.23c-0.26.42-.93,0.11-1.21,0.57-0.14.24,1.68,0.5,1.92,0.6a1.81,1.81,0,0,1-.71,0,4.43,4.43,0,0,0,1,1c-0.19.2-3.77-1.22-3.62-.4,0.24,1.29,3.25.67,4,1.08a4.65,4.65,0,0,0-.74,1.34,0.77,0.77,0,0,1,.74.06c-0.61.41-.66-0.19-0.9,0.7a0.78,0.78,0,0,0,.42-0.13c-0.09.8-1.93-.05-2.43,0.84,0.58,0,1.51-.24,2-0.19s-0.79.72-.64,0.56c-0.79.82-.82-0.83-1.67,0.83,0.65,0.2,1.85-.78,2.69-0.37-0.47.28,0.06,0.14,0.26,0.41-1.06.42-4.9-.54-1.67,1,0,0-2,1-1,1.13,0.83,0.14,1.31-1.14,2.09-1.13-0.34.63-1.54,0.83-2,1.3a0.3,0.3,0,0,0,.27.11c-0.58,1.53,1.75.11,1.9,0.35-1.06,0-2,1.9-.8,2.31a4.67,4.67,0,0,0,.76-0.84,1.87,1.87,0,0,1-.08.24c0.8-.14.32-0.47,0.25-0.87a3.52,3.52,0,0,1,.9,1.14c0.08,0-1-.71-0.78-0.17,0,0-1.22.46-.7,0.69a2.1,2.1,0,0,0,1.07-.32,1.19,1.19,0,0,0,0,.16,0.83,0.83,0,0,0,.21,0l-1.21.31c0.72,0.67.34,1.89,1.66,1.42-0.8.62-.41,0.86,0.23,1.18-0.6.42,0.65,0.21,0.68,0.22-0.74.08-.19,0.53-0.43,0.7a2.56,2.56,0,0,1,.85.83,1.61,1.61,0,0,1,.58,0A0.73,0.73,0,0,0,115,66a0.5,0.5,0,0,0,.47.1,1.35,1.35,0,0,1-.06-0.14,2.79,2.79,0,0,0,1.82-.55c0.23,0.8-.41,1.3,1.06.8a1.16,1.16,0,0,1-.59.45c-0.33.7,1.05,0.1,1.08,0.09,0.1,0.15-.62.71,0.15,0.49a0.81,0.81,0,0,0,0,.13,0.93,0.93,0,0,0,.43,0,1.6,1.6,0,0,1-.28-0.23,0.85,0.85,0,0,0,.71,0c0.49-.44-0.6-0.73-0.69-0.8,0.95-.69,1.08.11,1.52-1.58-0.08,0-.16-0.05-0.25-0.05,0.69-.69.27-0.93-0.34-1.45,0,0,1.41.13,1.2-.32a1.45,1.45,0,0,1-.47-0.4c0.41,0.14,1.21.39,1.06-.45A0.3,0.3,0,0,0,122,62a0.77,0.77,0,0,1,.18-0.23c0.23-.75-0.48-0.66-0.94-0.88,0.18,0,.87.22,0.83,0a0.56,0.56,0,0,0,.47-0.2c0.18-.59-0.82-0.47-0.83-1a1.44,1.44,0,0,0,1.42-.37c-0.18-.11-0.39-0.19-0.58-0.28,0.29-.35,1.73.15,1.88-0.33a0.76,0.76,0,0,0-.3-0.42c0.58,0.2.19,0,.72-0.39a1.59,1.59,0,0,1-.38-0.19,2,2,0,0,1,.82.1c0,0.06-.62.77-0.63,0.95,0,0.42.76-.13,0.85-0.25,0.19,0.33.5,0.07,0.51-.21a0.21,0.21,0,0,1,.14.27c0.57-.33.71-0.35,0.48-0.95,1.22,0.82,3.52-2.6,3.3-2.81,0.31,0,.05-0.19,0-0.36-1-.42,2.37,1.12,1.52.3,0.84,0.21,5.45-1.48,5.22-1.64,0.28-.09.56-0.21,0.84-0.29C137.66,52.73,137.28,52.89,137.57,52.8Z"/><path class="a" d="M89.61,112.34a2.07,2.07,0,0,1,.83-0.19c0.34-.32-1.56-0.67-1.29-0.72A1.41,1.41,0,0,0,88,111c0.07-.29-0.4-0.14-0.47-0.28a0.22,0.22,0,0,0,.21,0,4.16,4.16,0,0,0-.41-0.24l0.08,0.1c-0.23,0-2.2-.68-2.19-1.08a7.89,7.89,0,0,1-1.36-.27c-1.68.49-2.82,0.54-3.06,1.36,0.69-.24,1.7-1.12,2.44-0.89q0.39,0.23-.16.29a2.92,2.92,0,0,0,1.5.26c0.75,0.81,2.27.75,3.09,1.47a0.7,0.7,0,0,1-.48.74,22.16,22.16,0,0,0,2.42-.15,0.22,0.22,0,0,1,0,.1C89.75,112.31,89.6,112.3,89.61,112.34Z"/><path class="a" d="M95.67,114c0.75-1.1-1.07-.34-0.51-1-0.73-.52-3.62-0.07-3.93-0.45,0.15,0.19.92,0.17,0.55,0.64a0.43,0.43,0,0,1,.38.48,7.6,7.6,0,0,0-1.95.14,20.4,20.4,0,0,0,2.9.76c0.83-.25,1.16-1.49,2.56-0.55C95.75,113.87,95.39,113.78,95.67,114Z"/><path class="a" d="M155.16,70.75a0.39,0.39,0,0,1-.19.58l0.12,0.07c-0.12.11-.28,0.08-0.38,0.19,0.73-.05-0.32.67,0.89-0.07-0.1.16-.61,1.34-0.3,1.26a0.91,0.91,0,0,0-.21.57,3.79,3.79,0,0,1,.69-1.14l-0.22.46a1.77,1.77,0,0,0,.4-0.36c-0.1.17,0.07,0.23,0.2,0.29a5.12,5.12,0,0,0-.45,1.24c-0.28-.07,0,0.32.14,0.39a6.81,6.81,0,0,1,1.77-.34c-1,.16.18,1.59,0.11,1.57a0.3,0.3,0,0,0,.17.54c-0.06,0-.58-0.27-0.33.06a1.2,1.2,0,0,0-1.5.58,2.77,2.77,0,0,1,.55-0.14,0.59,0.59,0,0,0,.11.47c-0.32.4-1,.46-1.21,0.83a1.46,1.46,0,0,0,1.11.27,1.07,1.07,0,0,0-.14.11c0.89,0.1.68,0.33,1.7-.21-0.24.28-3.24,1.3-3,2,0-.06,3.23-0.54,3.49-0.66a1.25,1.25,0,0,1-.07-0.12,1,1,0,0,0,.66-0.12L159.16,79c0.5,0.24,3.07-.22,2.64-0.59a3.43,3.43,0,0,1-.91-0.12s0.77-.28.31-0.33c0.12-.1.64,0,0.45-0.3,0.58,0.14.43-.88,0.23-1.1-0.44-.5-1,0.19-1.35-0.08,0.51-.63-0.1-0.86-0.67-1a1.93,1.93,0,0,1,.73.15c-0.08-.16-0.45-0.52-0.19-0.65-0.84-.5-0.89-1.35-1.45-1.81s-1.66-.37-2-0.76c0.05,0,1.21-.1,1-0.31a1.24,1.24,0,0,0-.57,0c0.52-.17,1.64-1.07,1.33-1.63s-1.76,0-2.11,0a0.9,0.9,0,0,1,.26-0.33,1.34,1.34,0,0,0-.17,0c0-.09,1.16-0.89.88-1s-1.06.2-1.45,0.13L156,69.09c-0.22,0-.42.15-0.21,0.41-0.42.07-.36,0.22-0.14,0.52q-0.73-.11-0.4.45c-0.18,0-.35.24-0.07,0.29C155.35,71,154.88,70.7,155.16,70.75Z"/><path class="a" d="M151.1,77.48a3.36,3.36,0,0,0-.38.38,0.89,0.89,0,0,0,.72-0.05l-0.49.34a2.13,2.13,0,0,1,.56-0.1,0.59,0.59,0,0,0-.29.25c0.26,0,1.67-.27,1.35-0.5a2.75,2.75,0,0,0,1.36-.45,0.58,0.58,0,0,0,.6,0c-0.05,0-.08-0.09-0.13-0.12,0.58-.26.2-2.13,0.29-2.12L154.63,75a0.73,0.73,0,0,0,.62-0.36c-0.12,0-.12-0.12-0.11-0.23a0.87,0.87,0,0,1,.18.14c0.05-.25-0.16-0.36-0.37-0.26,0.74-1-1.56-.37-1-0.77a1,1,0,0,0-.38-0.16l0.06,0.08c-0.38,0,0,.36-0.34.43,0-.08.19-0.41-0.1-0.36v0.08a1.3,1.3,0,0,0-1,.66,1.11,1.11,0,0,0,.59.05c-0.08.23-.58,0.26-0.39,0.52-0.16,0-1.46-.21-1.46.11,0.11-.06.15,0,0.15,0.1l0.07,0a0.87,0.87,0,0,1-.05.3,0.61,0.61,0,0,1,.32,0s0,0.06,0,.1c-0.18,0-.51.25-0.13,0.26-0.41,0-.49.23-0.07,0.27l-0.08.07a0.31,0.31,0,0,1,.31.12,2.08,2.08,0,0,1,.58.05,1.66,1.66,0,0,0-.5.33c0.18,0.12-.32.42-0.43,0.48a2.43,2.43,0,0,1,1.07-.14,4.23,4.23,0,0,0-1.06.35,1.17,1.17,0,0,0,.13.19c-0.19,0-.51-0.16-0.58.14a2.35,2.35,0,0,0,.41,0C151.19,77.62,151,77.49,151.1,77.48Z"/><path class="a" d="M74.34,29.65a2.24,2.24,0,0,1,1.39-.14c-0.15.24-.58,0.22-0.74,0.46,0.61,0.23,2.23-.31,2.84-0.21-0.49.3-1.38,0.12-2,.44a0.78,0.78,0,0,0,.44.17,1.67,1.67,0,0,0-.67.16c-0.25.34,4.51-.26,4.7-0.24-1.2.92-3,0-4.08,0.82,0.76,1.27,4.61-.42,5.64-0.51-0.24.64-3,0-3.09,1.1,0,0.72,4.06-.27,4.1-0.28a6,6,0,0,0-.62.42C84.41,32.22,86,30.39,87.94,30c-0.4.38-1.51,0.26-1.68,0.92-0.09.35,2.08,0.36,1.72,0.29-1.39,1-4.22.33-5.69,1.16-0.46.26,2.25,1.37,2.6,1.43-1.71,1-3.67-2.42-5.59-1.37-1.54.84,1.7,2,2.33,2.66a1.64,1.64,0,0,0-.9-0.1c-0.28.39,2.58,0.26,2.62,0.26s-6.74.55-5.37,1.68a1.44,1.44,0,0,0,1.44-.38,2.61,2.61,0,0,1-.28.53,1.38,1.38,0,0,0,1.35-.91l-0.12.59L81,36.86a1.89,1.89,0,0,0-1.25.5c1,1.36,1.38.62,2.79-.13-0.54,2.66-3.08.14-4,.26-1.61.21-1,.69,0.05,1.35-1,.35-4,0.79-1.64,1.49a1.24,1.24,0,0,1,0-.68c0,0.83.21,0.69,0.94,0.75V40c0.27,0.57,3,.69,3.08-0.17,0.19,0.31,1.66.85,1.89,0.36a0.67,0.67,0,0,0-.29-0.45,3.31,3.31,0,0,1,1.47,1c0.23,0.33,2.43-.53,2.54-0.73,0.6-1.16-.25-0.35-0.66-0.69s-2.76-.46-2.9-0.74a1.08,1.08,0,0,0,.73-0.14,0.61,0.61,0,0,1-.36-0.32c0.75,0.15,1.57.72,2.4,0.42a2.83,2.83,0,0,0,1-1,11.91,11.91,0,0,0,2.72-1,2.15,2.15,0,0,0-1.15-.38,17,17,0,0,0,1.83-.46c-1-.18-3.2-0.32-3.87-0.7,0.67,0,3.76.48,3.87-.32a3.92,3.92,0,0,1-2.28-.59c0.78,0.06,2.73.57,3.45-.08,0.42-.38-1.45-0.65-1.34-0.6,0.85-.28,1.69.47,2.52,0.23-0.27.08,1.39-.35,0.59-0.39A2.63,2.63,0,0,0,93.85,33a5.1,5.1,0,0,0-1.36-.12c0.18-.22,1.69,0,1.74-0.38a3.13,3.13,0,0,0-.46-0.56c0.73,0.29,5.35-1,5.6-2.09-1.18-.1-2.63.82-3.72,0.51,0.75-1.71,6.49-.28,7.06-2.36,0.2-.73-1.62-0.38-1.89-0.32,0.23-.36-0.49-0.64-0.21-0.74-0.63-.87-3.94.32-4.71,0.27a9.67,9.67,0,0,0,1.82-.67c-1-.2-3.59-0.63-4.61-0.18,0.1,0.13.36,0.14,0.46,0.28-0.07,0-2.42-1-2.36-.05a1.71,1.71,0,0,0,.74.47c-1.59-.32-2.49-0.79-4.21-0.67,0.37,0.48,1.11.47,1.47,0.93-0.72.4-3.12-1-4.33-.7a5.61,5.61,0,0,0,1.33.54c-0.44,0-1.83-.45-2.19-0.21a0.31,0.31,0,0,0,.25.43c-0.08,0-1.93-.28-0.82.16a0.77,0.77,0,0,0-.69.3C83,28.51,85,28.48,85.54,29c-0.65,0-2.41-1.2-3-.89a0.35,0.35,0,0,0,.27.39c0.48-.84-3.91-0.35-4-0.33,0.22,0.39,1.16.18,1.48,0.54-0.29,0-1.75-.34-1.86.05a3.88,3.88,0,0,0-3.06.22c0.09,0-2.12.51-1,.66C74.57,29.6,73.58,29.55,74.34,29.65Z"/><path class="a" d="M92,49.14c-0.56-.31-0.59.19-0.57,0.56a2.2,2.2,0,0,1-.5-0.53,1.07,1.07,0,0,1-.46.32,1.72,1.72,0,0,0,.46-0.56c-0.1-.45-1.35.84-1.25,0.86A4,4,0,0,0,90,49,0.73,0.73,0,0,1,89.52,49a0.68,0.68,0,0,0,.92-0.48c-0.37-.86-1.27.37-1.6,0.46,2.3-2.48-2.27-1.15-2.31-1.19a3.36,3.36,0,0,1,.81.38c-0.8.1-1.46-.79-1,0.52-0.46-.13-0.6-1.15-1.27-1q-0.3.23,0,.44c-0.55-.11-0.62.53-1,0.45,0-.18,0-0.36.24-0.33-0.41-.3,0-0.18.06-0.53a0.48,0.48,0,0,0-.58.22c0.52-1.24,1-.21.56-1.49-0.53-1.65-2.94-.52-3-0.54s-1.86.13-1.52,0.62c0.2,0.28.95,0.11,1.07,0.49-1.31-.41-1.64.31-0.35,0.74-0.48.2,0.21,0.35,0.32,0.58-0.6-.17-1.05-0.53-1.54.1,1.12,0.63,1.28,1,.86,1.47a12.2,12.2,0,0,1-1.5.22s1.59-.52,1.38-0.7c-0.6-.54-1.49-1.32-1.39-2.24a5.47,5.47,0,0,1,1.42-2c-1.65-.92-3.71.73-4.27,2.13-0.78,1.94.32,2.21,2.34,2.78-0.47.36-1.79-.12-2.19-0.09,0.65,0.77,1.07,1.56,2.26,1.25,0,0-.07-0.1-0.1-0.13A1.78,1.78,0,0,0,79,51.09c-0.81.86,5.24,0.87,5.24,1.13a1.41,1.41,0,0,0-.76-0.51c0.57-.22,2.43.81,2.7,0,0.19-.53-0.63-0.3-0.55-0.66s2.6,1,2.12,1.35c0.52,0.36.44-.22,0.85,0-0.9.09,0.84,0.66,0.47,0.89-0.12.08-1.25,0.17-.82,0.66,0.28,0.32,1.43-.75,1.78-0.55l-0.22.14c0.17,0,.27.12,0,0.23a0.28,0.28,0,0,0,.2,0c0,0.62.87,0.48,0.55,0.17,0.25-.1.29,0.54,0.79,0.56-0.21.29,1,1.46,1,1.77a4.57,4.57,0,0,1-.69.76,11.57,11.57,0,0,0-1.31.87c0,0.55.73,0.56,0.78,1.11a9.8,9.8,0,0,0-2.12.29,0.66,0.66,0,0,1,.36.56c0.24-.56-2.24-1.1-2.46-0.11-0.37,1.64,3,1.09,3.17.72a0.67,0.67,0,0,0-.23-0.4,2.3,2.3,0,0,1,.84.56,6.73,6.73,0,0,1,.71-0.24c-0.27.55,0.56,1,1,1-0.21.28,0.52,0.47,0.73,0.46a0.67,0.67,0,0,1-.58.24c0.64,0.37.37,0.55,1,.44a1.14,1.14,0,0,0-.15.17c1,0.33,4.29,2.13,4.69,1.31,0.18-.36-2.78-2.18-2.55-2.39a1.27,1.27,0,0,1,1,.46,1.68,1.68,0,0,0-.16-0.46c0.26,0.18,1.22,1.22,1.17.69q0.2,0.63.38,0.23a6.15,6.15,0,0,0,1.12.68c-0.22.16,0.49-.7,0.37-0.41S98.63,61,99,61.68l0.53,0.77c0.34,0-.14-0.66.2-0.68-0.11-.16-0.13-0.37-0.37-0.31,0.4-.2-0.29-0.14-0.37-0.18,0.11-.2-0.28-0.32-0.38-0.41a0.38,0.38,0,0,0,.49-0.19,0.36,0.36,0,0,0-.43-0.1c0.07-.07.17-0.12,0.24-0.19-0.42-.73-0.65,0-1-0.22,0.13,0.09,0-.2,0-0.2-0.22-.23-0.33-0.12-0.31.15a1.45,1.45,0,0,0-.62-0.81,1.22,1.22,0,0,0,.21-0.14c-0.91-.06-0.68-1.08-1.54-1.17,0,0,1.64.52,1.42,0.24a1.52,1.52,0,0,1-.59-0.69C97,57.74,97,58,97,57.41c0.1,0.08.42,0.11,0.28-.08,0.71,0,.18,1.14,1.28.65-0.8.77,1.27-.16,1.14-0.17-1,.49-1,1.22-0.1,1.85a0.89,0.89,0,0,1,.27-0.43,0.74,0.74,0,0,0,.68.65,1.19,1.19,0,0,0,.2-1l-0.3-.07c0.15-.07.3-0.07,0.18-0.3a0.66,0.66,0,0,0,.75.33s0.26-.35.26-0.32a0.31,0.31,0,0,0-.23-0.26,5.53,5.53,0,0,0,.6,0,1.29,1.29,0,0,0-.51-0.3c0.13-.08.14-0.19,0-0.28a1.44,1.44,0,0,0,.84.08,0.4,0.4,0,0,0-.43-0.45,2.47,2.47,0,0,0,.77.05c0.35-1-2.29-.33-2.26-0.33a1.27,1.27,0,0,0,.62-0.65c-0.61-.38-0.92.25-1.57-0.18h0.65c-0.1-.19-0.06-0.29.15-0.35a7.09,7.09,0,0,0-1-.71c-0.21-.35-0.5.48-0.49,0.54A1.74,1.74,0,0,0,98.27,55c-0.21.07-.35,0.48-0.56,0.34a0.82,0.82,0,0,0,.3-0.67,0.34,0.34,0,0,0-.45.4c0-.21-0.1-0.16-0.22-0.06,0.3-.45-0.35-0.25.2-0.61-0.77-.41-1.67-0.25-2.48-0.69,0.28,0,1.25.3,1.45,0,0.48-.65-1.08-0.36-1.16-0.4,0.16-.07,2.3-0.09,2.22-0.31-0.21-.6-2-0.37-2.42-0.37,0.31-.64,1.54-0.1,1.89-0.35,0.89-.65-1.53-0.92-0.91-0.68a1,1,0,0,1-.75.25q0.33-.13.15-0.38a1.86,1.86,0,0,0-1,.26,4.25,4.25,0,0,0,1.47-.71c0.2-.44-1.58-0.6-1.62-0.59-0.79.22-.71,0.74-1.23,1.17a0.66,0.66,0,0,0,0-.71,0.6,0.6,0,0,1-.47.2c0.1,0,1.75-.94,1-1.14-0.5-.14-1.22.46-1.74,0.46a12,12,0,0,0,1.35-.73c0.1-.48-1.06-0.64-1.3-0.6C91.78,49,92.29,49.09,92,49.14Z"/><path class="a" d="M65.24,52.34c0.18-.61-1.45-1.49-2-1.57,0.23,0.38-1.11-.45-1.33-0.76-0.35-.49-0.25-2-0.79-2.7-0.92-1.16-2-.8-2.45-1-0.71.1,0.4,2.13,0.59,2.34-1.23,1.31-2.11-3.33-3.17-2a2.5,2.5,0,0,0,.43.58c0,0.12-1.12.69-1,.39-0.31.08-.26,0.34-0.59,0.18a1.61,1.61,0,0,0,.57-0.48c0.37-1.27-2.93.09-3,.06,1.84-3.57-7,1.43-3,1.63q-0.43.09-.3,0.42c0.71,0.37,1.91-.59,2.6-0.14-0.06,0-1,0-.56.19-0.22.07-2.41,0.26-2.32,0.74,0.26,1.38,5.19,0,6.34,1.08-0.76.47-8.11-.13-3.8,1.7,0.42,0.18,1.55.27,1.91,0.37s-0.11.74,0.57,0.91c1.49,0.38,3.61-.42,5-0.79,1.26-.32.6-0.35,1.69-0.25a8.54,8.54,0,0,1,1.31.39c2.68,0.47,2.74-1.56,1.31-.49A0.38,0.38,0,0,0,63,52.55a5.31,5.31,0,0,0,1.77-.43c0.08,0.17.34,0.46,0.52,0.22S65.06,52.58,65.24,52.34Z"/><path class="a" d="M69.3,47.86c0.9-.51-0.49-0.58-0.48-0.57Q69,47,68.6,46.93c0.33-.26-1-0.37-1-0.2,0-.24,1.17-0.79,1.05-0.88q-0.29.12-.26-0.09c0.16-.06.67-0.13,0.48-0.45s-3.36-.06-2.67-0.14q-0.5,0-1,.11a1.88,1.88,0,0,0,.42.61c0.07,0-1-.53-0.92-0.06a3.33,3.33,0,0,0,1.58.48l-0.62,0c0.14,0,.56.92,0.08,0.45-0.17,1.15-3.48-1.17-1.24,1.13a12.5,12.5,0,0,0,2,1.2c0.24,0.1.39,0.73,0.81,0.58,0.68-.24.14-0.85,0.4-0.92-0.17,1,2.56-.21,1.42-0.83a1,1,0,0,0,.15,0C69.63,47.67,69.24,47.86,69.3,47.86Z"/><path class="a" d="M74.38,46.15a3.24,3.24,0,0,0,.8-1c0-1.37-5.66,0-4.05.3-1,.27-0.46-0.37-0.86.59a6,6,0,0,0,.39,2.29c1,0.52,2-.59.92-1.24,0.56-.07,1.52.22,1.92,0,0.06,0,.92-0.72.59-0.81a1.1,1.1,0,0,0,.29-0.12C74.59,45.91,74.3,46.21,74.38,46.15Z"/><path class="a" d="M41.81,48.52c1.55-.07,2,1.28,3.29,1.23a3.05,3.05,0,0,0,1.77-.83c0.34-.26.67-1,1.14-1.36s3.31-1.19,3.56-1.74c0.49-1.08-2.86-1.28-3.48-1-0.08-.41-0.2-0.43-0.58-0.17a0.29,0.29,0,0,1,.16-0.23c-0.66-.07-4.31-1.2-4.83-0.21-0.22.42,0.78,0.8,0.84,1,0.1,0.4-.81,1-0.72,1.45a7.31,7.31,0,0,0-1,1.4c-0.15,0-.28.35-0.17,0.39C42.33,48.5,41.7,48.49,41.81,48.52Z"/><path class="a" d="M56.5,37.41q0.52,0,.41-0.36c-0.8-.36-3,0.05-3.24.73-0.32,1.06,3.34.84,2.9,0q-0.35-.12-0.7-0.21a2.42,2.42,0,0,1,.63-0.14C56.7,37.36,56.29,37.45,56.5,37.41Z"/><path class="a" d="M71.18,33a13.71,13.71,0,0,1-2-.19c0.62,1.18,1.06.94,2.24,0.85,0,0.08-1.44.49-1.17,0.73a3,3,0,0,0,1.6,0c0.17-.07,1.87.05,2.49,0-0.24.11-2.76,0.52-2.69,0.88a1.84,1.84,0,0,0,.94.36c-1.2.25,1,.36,1.22,0.48a2.68,2.68,0,0,0-.93.17c0.53,0.74,2.6.49,2.07,0.31a1.5,1.5,0,0,1,1,.27c0.2,0-.51-0.71-0.42-0.88,1.77,1,.6.08,1.34,0a0.54,0.54,0,0,0,.57.17c0.17-.24-0.64-0.8.17-1.09a0.66,0.66,0,0,0,0,.7c0.16,0.14,2.54-1.55,2.61-1.27-0.23-.9-1.44-0.43-2.08-0.55,0.67-.71,0-0.94-0.59-1.1,0.25-.44.2-1-0.58-0.68-0.42.16,0.29,0.55,0.31,0.65a17.82,17.82,0,0,1-2.34-1.15s-3.7-2.26-3.34-1.36c0,0.11,1,.11.9,0.33s-2.16-.13-2.1.53a6.55,6.55,0,0,0,1.48.68c-0.18,0-2.3-.57-2.1,0a2.18,2.18,0,0,0,.57.43,1.15,1.15,0,0,0-.77.05c-0.26.49,2.17,0.33,2,.32s-0.33.09-.36,0.31C70.49,33,71.21,32.74,71.18,33Z"/><path class="a" d="M67.92,36l0,0.06c-0.82.22,1,.82,1.05,0.83a1.11,1.11,0,0,1-.67.12,1.83,1.83,0,0,0,.57.42c0.38,0.35,2.55-.37,1.63-0.69a1.34,1.34,0,0,0,.41-0.29c0-.34-3.81-1.38-3-0.45h0Z"/><path class="a" d="M67,40a1,1,0,0,0,.13.29s-2.18-.5-1.85,0a7.16,7.16,0,0,0,.82.32,1.66,1.66,0,0,1-.41.11,1.81,1.81,0,0,0,.82.21,1.82,1.82,0,0,0-.53,0,0.53,0.53,0,0,0,.39.32c0.14-.18-2.6-0.93-2.27-0.62a4,4,0,0,0,.54.12c-0.5.28,0.18,0.79,0.53,0.8-0.43.28-1.34-.41-1.67,0.32-0.12.26,3.18-.12,3.35-0.13-0.06.12-1.52,0.42-1.45,0.67a2.48,2.48,0,0,0,.55.19c-1.09.47,2.11,0,2,.08,0.18-.06.24-0.65,0.67-0.41-0.22-.7.08-0.07-0.52-0.65C69,41.36,68,39.25,67,40,67.07,40.07,67.37,39.72,67,40Z"/><path class="a" d="M75.71,43.88a2,2,0,0,1,.94-0.26c0.17-.11.24-0.4,0.48-0.18L77,43.88a3.72,3.72,0,0,0,1.73.11l-0.06-.13a4,4,0,0,0,1.57-.09c0.64,0.26,1.72.29,1.43-.53-0.38,0,4.2,1.22,3,0a1.14,1.14,0,0,0,.89,0c-0.22-.37-0.62,0-0.93-0.22a1.68,1.68,0,0,0,.82-0.46,0.6,0.6,0,0,0-.73-0.4c0.45-.14-0.88-0.34-0.82-0.47a7.22,7.22,0,0,0-4.64.44A13.13,13.13,0,0,0,75.9,42a0.5,0.5,0,0,0,.38-0.41c-0.26-.54-1.71-0.35-2-0.85-0.15,0,2.17.14,2-.08-0.35-.59-1.75,0-2-0.39A5,5,0,0,1,75,40.2c0.22-.19-2.38-0.08-2.78.09,0.72-1.56-3-1.25-3.07-.94a0.53,0.53,0,0,0,.37.26,0.4,0.4,0,0,1-.45,0C69,39.84,70,40.09,70.23,40c-0.46.48,2.6,0.47,3.21,1.35s-0.73,2,1.06,2.33c-0.07-.18.11-0.23,0.24-0.31a1.67,1.67,0,0,0-.08.19,3.94,3.94,0,0,0,1.06.31C75.86,43.88,75.53,43.86,75.71,43.88Z"/><path class="a" d="M44.77,40.83c0.59,0.77,1.07-.1,1.71,0s0.05,0.76.92,0.55a1.32,1.32,0,0,0,.32-0.8c0.26,0.2,1.63-.79,1.61-0.87,0.35,1.67,1.24.13,1.87-.35-0.55-.71-0.25-0.21.25-0.68,0.32-.3-2.17-0.81-1.09-0.19a3.54,3.54,0,0,1-1.56,0,7.83,7.83,0,0,0-1.92,1c-0.53.26-2.15,1-2.37,1.41l0.26-.06C44.85,40.93,44.69,40.84,44.77,40.83Z"/><path class="a" d="M53,40.71c-0.29-.25-2.12-0.56-1.78-0.06a4.16,4.16,0,0,0,1,.17s-2.37.1-1.68,0.5a4.26,4.26,0,0,0,1.47,0c-0.38.15-1.78-.11-2,0.41s2.5-.18,1.87,0c-0.3.71-2.23,0-2.33,0.76-0.06.45,3.43,0.79,2.9,0.05,0.48,0,.38-0.23,1-0.27q-0.56.22-.21,0.65c0.38,0.14,2.33-.61,2.47-0.31s-3.3.7-3,1.14C53.76,45.69,57,42.17,58,43l-0.11.06c0.8,0.4,2.47.18,2.85-.71,0.74-1.75-1.07-1-.91-0.84a0.19,0.19,0,0,0-.21.25c-0.18-.83-0.66-0.2-1-0.24a0.42,0.42,0,0,0,.24-0.42L58.2,41a8.36,8.36,0,0,0-.09-1.3c-0.47-.12-1.92.36-1.67,0.84s1.34,0.32.37,0.75c0.1,0.32,1,.22.91,0.63-0.16.8-2.85-.41-3-0.48,0.78-.5-1.69-0.7-1.74-0.73S53.29,40.88,53,40.71Z"/><path class="a" d="M60.9,35.11a0.67,0.67,0,0,1,.74.05c0,0.07-.3.39-0.09,0.41,0.93,0.13.55-.52,1.4,0.15-0.19.13-.44,0.08-0.61,0.21a1,1,0,0,1,.51.08c-0.22.46-1.05-.15-1.36,0.12-0.69.61,2.56,0.27,2.07,0.33,0.25-.34,5.13,2.7,2.86-0.31a2.39,2.39,0,0,0-2.72-.73,0.15,0.15,0,0,0-.15-0.19c0.71-.65-3.3-1.41-2.65-0.13C61.07,35.11,60.84,35,60.9,35.11Z"/><path class="a" d="M273.28,132a3,3,0,0,0-.17,2.39c0-.19.69,1.75,0.2,0.95,0.76,1.24-.47.33,0.83,1a6.41,6.41,0,0,1-.07-1.85s0.43-1.69.66-.8c0,0.19,1.29,3.21,1.57,1.48,0.23,0.15.19-.16,0.1-0.26a21.65,21.65,0,0,0-1.35-2.08c0.14-.11,2-1,1.92-1.06a0.86,0.86,0,0,0-.57,0l0.06,0.09c-0.43.05-4.18,0.92-2.47-1.05,0.36-.42,2-0.06,2.46-0.11a9.31,9.31,0,0,0,1.56-.18c0.07,0,.87-0.8.53-0.94a20.39,20.39,0,0,1-3.19.57c-0.75.11-1.72-.09-1.88,1.06a3,3,0,0,0,.1.76c-0.09-.25-0.2-0.12-0.32,0S273.39,131.87,273.28,132Z"/><path class="a" d="M305.43,158.29c-0.77-1.06-.58-2.51-1.36-3.65a10,10,0,0,1-1.46-2c-0.36-.14-0.56-0.67-0.57,0a12.86,12.86,0,0,1-1-2c-0.66-1.53-3.42-1-2.8-3.45-0.34,0-.94-2-1.14-2.28-0.35-.51-0.59-0.26-1.07-1-0.28-.42-0.49-2.38-0.92-2.6s-0.62,1.15-.61,1.24l-0.09-.07c-0.41.65,0.1,0.25,0,.78,0,0-.52,4.44-1.63,4.64-0.74.13-2.61-1.44-3.3-1.81-2.54-1.35.92-2.53-.19-3.61-0.18-.17-0.2.4-0.2,0.4s-0.74-.1-0.36-0.41c-0.05-.08-0.07,0,0-0.14-1.23.6-2.38-.24-3.51-0.51-0.11,0-.23-0.17-0.37,0a2.76,2.76,0,0,1,.85.81,0.2,0.2,0,0,0-.28.16c-0.18-.28-1,0.29-1.06-0.22a1,1,0,0,0-.4.46c-0.33-.41-1.56,1.93-1.1,1.9a0.83,0.83,0,0,1-.09.09,0.47,0.47,0,0,0,.23.17c-0.25,0-.21.12-0.2,0.3-0.21-.27-0.33-0.35-0.4,0-0.12-.45-1.12-0.5-0.91.13-0.1-.06-0.08-0.08-0.17,0,0-.83-1.27-2.09-1.71-1.11a0.18,0.18,0,0,0-.19-0.18,0.62,0.62,0,0,1-.15.61c0-.12-0.12-0.21-0.22-0.08,0.17-.46-0.5.48-0.59,0.45q-0.39.17,0,.29c0,0.28-.2,0-0.36,0a0.52,0.52,0,0,0-.18.67,0.94,0.94,0,0,1,.14-0.16c-0.12.52-.29,0.2,0.12,0.57l-0.82,0c-0.49-.14,0,0.06-0.39.12,0.13,0.28.43,0.31,0.32,0.61-0.3-.19-0.25.09-0.25,0.38q-0.27-.54-0.58-1c-0.63-.07-0.55,1.47-0.63,1.61a4.32,4.32,0,0,1-2.49,1.85c-0.71.29-1.69,0.37-2.42,0.66s-2.07,1.61-2.77,1.75a1.35,1.35,0,0,1,0-.64c-1.67.59,0.46,4,.07,4.44a0.25,0.25,0,0,1-.32-0.3c-0.09.44-.13-0.19-0.13-0.18-0.26-.78,0,0.77.06,0.73a0.54,0.54,0,0,1-.4-0.48,1.13,1.13,0,0,1,0,.16l-0.13-.06A13.82,13.82,0,0,1,269,160c0.12,0.36.95,4.54,0,3.68-0.14,2.43,3.15,1.21,4.22.87,1.32-.43,2.91-0.28,4.18-0.82,1.89-.81,3.78-2.1,6.19-2,0.9,0,3.12,1.21,3.44,1.2,0.24,0.94,1.23,1,1,1.93,0,0,.78.4,0.8,0.42,0.22-.53,1.8-1.78,1.71-2.52,0.75,0.83-.64,2.23-0.85,2.8,0.86,0.12.87-.51,1.14-1.13a1.08,1.08,0,0,1,.09,1.53c0.1,0,1.16-.45,1,0a0.25,0.25,0,0,0-.3,0c0.8,1.77,3,4.65,5.38,2.82a0.49,0.49,0,0,0-.25-0.08,0.55,0.55,0,0,1,.59-0.17q0.16,0.4-.28.39c0.31,0.29.36,0,.64-0.11a2.13,2.13,0,0,0,.51.72,0.66,0.66,0,0,1,.38,0c-0.28-.19,3-1.31,3-1.27,0.93-.83.59-2.89,1.62-3.94l-0.1,0c0.07,0,.81-1.2,1-1.34l0,0c1-.21,1.34-3.89,1.36-4.55C305.27,158.08,305.42,158.48,305.43,158.29Z"/><path class="a" d="M263.39,130.06c-0.36.33,0,.87,0.21,1.1a0.37,0.37,0,0,0,.11.63c-0.83.43,3.13,4.19,3.46,2.15,0.21,0.21,1,.73,1.24.28-0.11.17,0.08,0.32,0.17,0.13a4.2,4.2,0,0,0,.11.71c0.37,0.29,1.35-.83,1.53-0.94a0.26,0.26,0,0,1-.09-0.18c0.19,0.11.2-.2,0.2-0.33l-0.07,0c0.05-.11.5-0.35,0-0.43,0.16-.08.19-0.39,0-0.33a0.9,0.9,0,0,0,.44-0.69c0,0.27,1.63-1.4,1.11-2,0.14,0.07.82,0.53,1,.15a3.56,3.56,0,0,0-1.08-1,0.41,0.41,0,0,0-.14-0.75,0.18,0.18,0,0,1,.06-0.06l-0.12,0,0.07,0a1.92,1.92,0,0,0-.55-0.63c0.14,0,.39.06,0.43-0.1-0.26-.34.8-0.33,1-0.63a0.91,0.91,0,0,1-.24-0.52,1.42,1.42,0,0,0,.89-0.22c0.17-.36-1.18-0.48-1.2-0.57-0.08-.31-0.42,0-0.3-0.24,0,0,0-.25,0-0.24s-0.55-.62-0.49-0.6a2.64,2.64,0,0,0-.37.33c0-.09.12-0.36,0-0.35s-0.89,1.58-1.08,1.29c-0.37.27,0.21,0.67-.54,0.66,0,0,0-.07,0-0.11-0.77,0-3,2.93-3.59,2.41,0,0.05-.27.91,0,1-0.66.08-2-1.19-2.09,0.15h0.11l-0.09,0C263.25,130.19,263.42,130.05,263.39,130.06Z"/><path class="a" d="M267.26,138.95a6.29,6.29,0,0,1,1.35.43c-1.44-2.58-4.65-1.33-7.1-2.66,0.05-.27-1.59.44-1.31,0.53,0,0.13-.21.46-0.27,0.18-0.44.21,1.75,0.62,1.08,0.37-0.07.1,5.42,1.34,6.24,1.16C267.62,138.92,266.68,139.08,267.26,138.95Z"/><path class="a" d="M259.87,136.4c0.61,0,.84-1.05.58-1.86-0.31-1-.1-0.71-1.16-0.92,0.6,0.12-1.27-2.13-1.18-1.91s0-.2,0-0.15c0-.88.34-0.65-0.85-0.57,1.06-.31-1.73-2-1.57-1.62-0.29-.19-4.69-4.69-5.34-3.32-0.14.29,3.17,3.94,3.56,4.44,0.72,0.93,5,6.85,5.32,5.86,0.28,0.15.39,0.3,0.63,0C260.13,136.38,259.63,136.65,259.87,136.4Z"/><path class="a" d="M302.65,140.88l0.2-.1c-0.41.12-1.16-.09-0.79-0.52-0.94-.54-3.61-2-2.11-2.84-0.12.07-2.21-2-2.48-2.16a20.24,20.24,0,0,0-4.22-1.77c-1.39-.47-2.23-0.91-3.34-0.48-0.36.14-2.17,1.91-2.16,0.89-0.27.12-.2-0.79-0.36-0.07-0.34-.79-0.06-1.57-0.71-2a1.81,1.81,0,0,0-2.53.59s2.12,1,2.72.69a0.55,0.55,0,0,1-.12.18c0.26,0.06-.09.13-0.09,0.31a6.28,6.28,0,0,0-1.63.15,7.3,7.3,0,0,1,1.09,1.21,0.58,0.58,0,0,0,.37-0.63c0.25,0,0-.36.3-0.33-0.63.74,0.71,0.75,1,.83-0.1,0,1.59,1.22,2.26.94a2.58,2.58,0,0,0,1,.68,0.34,0.34,0,0,0-.13.12c0.05,0,.11,0,0.17,0-0.23.17,0.3,0.83,0.46,1-0.24,0,.3.08-0.11,0.37,0.15,0.1.1,1.45,0.47,0.69a0.51,0.51,0,0,0,.82-0.06c-1.24,2.6,5.62.27,2,.26a5.89,5.89,0,0,1,1.33,0,1.2,1.2,0,0,0-.09-0.19c0.12,0,.23,0,0.35,0l0-.07a0.17,0.17,0,0,0,.1,0l-0.27-.45c0.18,0.1,3.56,1.3,3.12,1.51-0.46.84,3.22,1.68,3.48,1.38a0.84,0.84,0,0,1-.22-0.17,0.27,0.27,0,0,1,.21,0C302.72,140.85,302.58,140.85,302.65,140.88Z"/><path class="a" d="M278.85,139.88a4.79,4.79,0,0,0,1.78-.8c-1.22-.76-3.34,1.57-3.38,1.56a7.56,7.56,0,0,0,1.6-.76C279.45,139.67,278.46,140.11,278.85,139.88Z"/><path class="a" d="M127.58,137.74c-0.28-1.66-3.19-3.35-4.91-3.85-0.77-.22-3.3-0.67-3.88-0.08-0.13-.59-0.1.12-0.5,0.37,0,0,.28-1.46.06-0.78l-0.09-.1a0.29,0.29,0,0,0,.1-0.49s-0.08,0-.12,0l0.05-.06q-0.3-.45-0.57,0c-0.16-2-3.19-.32-2.85-0.22l-0.11.12c-0.37-.45-1,0.93-1.11,1a3.68,3.68,0,0,0,.31-0.86c-1.28.63-.93-0.52-1.49-0.74-0.14-.05-1.3.58-1.67,0.57,0.85-.28,3.68-3.23,1.84-3.44,0.15-.28-0.53-2.46-0.89-1.8,0-.47-0.08-0.52-0.33-0.27,0.08-.18-0.14-0.62-0.3-0.39,0.36-.63-1.43-0.79-1.73-0.55,0.56-.86-1.75-0.7-1.64-0.32-0.19-.54-1.1-0.24-1.21.16-0.25-.83-0.67-1.55-1.41-0.81,1.33-2-2.12-1.76-2.78-2.07,1.25,0,.43-1,0-1.22a0.42,0.42,0,0,1-.17.08c0,0.05,0,.12,0,0.17a0.56,0.56,0,0,0-.4-0.33,0.78,0.78,0,0,0,0,.15,2.53,2.53,0,0,1-.42-0.37c0,0.11,0,.12-0.13.15,0.2-.18-0.09-0.36-0.16-0.45a1.78,1.78,0,0,0,1-.2q-1.14,0-2.28.1a1.52,1.52,0,0,0,.53.12c-0.67.48-3.3,0.19-4.09-.07a16.49,16.49,0,0,0-2-1.44c-0.41.38,0.44,0.45,0.4,0.54a4.9,4.9,0,0,0-.85.27c-0.08.16-.62,0.12-0.74,0.32s0.45,0.94.3,1.08c-1.09,1.07-.43-0.14-0.55-1.17l0.08,0c-1-.6.77-0.78,0.41-1.18s-3.12,1.17-3.08,1.35c-0.15-.78-0.84.31-1.16,0.65l0.14-.09a14.17,14.17,0,0,1-1.2,2.18c1.55-.87-5.64-1.62-4.78-1.14,0,0,.07.13,0.11,0.17-0.13,0-.6,0-0.38-0.22-0.72.13-1.72-2-1.49-2.71l0.08,0a0.63,0.63,0,0,1,.08-0.65c0,0.43.3-1.94,0.28-2a1.14,1.14,0,0,0,.14-0.18,1.92,1.92,0,0,0-.49-0.36,1,1,0,0,1,.17.14c-0.31-.16-0.67-0.51-0.25-0.17a1.12,1.12,0,0,0-.71-0.45,0.27,0.27,0,0,0,.09,0,5.56,5.56,0,0,1-1.47-.19l0,0.07a4.37,4.37,0,0,1-2.51,0,5.7,5.7,0,0,0,.23-2.32,0.79,0.79,0,0,1,.3-0.46,0.45,0.45,0,0,0,.19.5c0.11-.16.35-1,0.16-0.91a2.35,2.35,0,0,1,.22-0.32c-0.62.15,1.47-2.14,0-1.92-1.71.14-2.73,0.82-3.85,2.65l0.12-.07c-0.11.79-3.46,0.37-4.13,0.13l0.13,0.08a0.44,0.44,0,0,1-.33-0.15l0.14,0c-0.76-.35-1.67-2.39-1.86-3.14a0.72,0.72,0,0,1,.33.74,25.57,25.57,0,0,0-.22-3.15,19.45,19.45,0,0,0-.11-3c0.36,0.3.59-.18,0.32-0.38a0.34,0.34,0,0,0,.37-0.26l-0.1,0c0-.11.1-0.12,0.2-0.16,0.1,0.13.16-.08,0.15-0.2,0.1,0.13.24,0.06,0.33,0a0.32,0.32,0,0,1-.21-0.25,1.05,1.05,0,0,0,.59.08l-0.21.14c0.78-.32,1.14-0.53,1.14-1.23,0.1,0,.43-0.14.23,0.16,0.07,0,.17,0,0.24,0a0.53,0.53,0,0,0-.22.17,1.83,1.83,0,0,0,.9-0.56,2.43,2.43,0,0,0,1.64.32c-0.31-.25.76,0.05,0.76,0.05a0.32,0.32,0,0,0,.09.25,0.21,0.21,0,0,0-.13,0c0.17,0.06,1.53.19,1.07-.25a1,1,0,0,1,.74.57c0.07-.08.14-0.12,0.21,0,0.24-.24-0.62-0.69-0.38-0.69,0-.13.25-0.1,0.15-0.36a1.85,1.85,0,0,1-.89-0.23c0.49-.44,1.69.34,2.2-0.43a3.74,3.74,0,0,1,.21.41l-0.2.06a0.77,0.77,0,0,0,.53-0.17l-0.05.09a2.94,2.94,0,0,0,.41-0.2,0.34,0.34,0,0,1,.07-0.07c0.08,0.16-.09.16-0.19,0.24a1.5,1.5,0,0,1,1-.07,0.57,0.57,0,0,0-.31,0,3.51,3.51,0,0,1,.66.24,0.19,0.19,0,0,1,.14-0.12,0.22,0.22,0,0,1-.07.17,0.56,0.56,0,0,1,.32.39l-0.07-.1c0-.27,1.7.08,1.83,0.18,0.87,0.62.43,0.82,0.65,1.56a1.12,1.12,0,1,0,.1.17c0.24,0.11.35,0.33,0,.47,1.13,1-.06.41,0.66,0.54-0.37.5,1,1.13,1,1.74a0.83,0.83,0,0,0,.76-0.65,0.3,0.3,0,0,1,0,0c0.06-1.15-.45-1.85-0.67-2.94a1,1,0,0,1,.14.42c0-.06.07-0.14,0.08-0.18a0.76,0.76,0,0,0,.14.63,7.36,7.36,0,0,1-.93-3.37c0.14,0,.16-0.09.06-0.16a0.33,0.33,0,0,0,.19-0.18H83.81a0.41,0.41,0,0,0,.14-0.35c0.44,0,.3-0.39.29-0.59l0.09,0.12a0.28,0.28,0,0,1,.06-0.06c0.08,0.24.28-.07,0-0.12a1.81,1.81,0,0,0,1.33-.93,0.63,0.63,0,0,0,0,.17c0.1-.65,1.19-0.55,1.17-1a2.18,2.18,0,0,1,0,.24c0.1-.38.54-0.49,0.49-0.83,0.07,0.28.91-.06,1-0.22-0.23-.17-0.5.14-0.67-0.23q0.31,0.33.48-.06a0.89,0.89,0,0,0-.45-0.33c0.71,0.4,1.54-.4.9-0.17,0.09-.6-0.6,0-0.61-0.57a0.29,0.29,0,0,0,.48.12l0-.08,0.11,0s0-.09,0-0.14a0.71,0.71,0,0,1,.31.18,0.82,0.82,0,0,1-.12-0.58c0.17,0.27.18,0.62,0.39,0.9a2.1,2.1,0,0,0-1.62-1.62,0.9,0.9,0,0,1,.82.36,0.64,0.64,0,0,0-.35-0.55c0.07,0.07.36,0.41,0.34,0.13l0.13,0c0-.12,0-0.13-0.1-0.19l0.06,0a2.48,2.48,0,0,1-.76-0.64c0.06,0,.67.8,0.77,0.4a3.52,3.52,0,0,1-.7-1.19,1.8,1.8,0,0,0,.13.65s0-.07,0-0.11a1.42,1.42,0,0,0,.5.33c0-.26-0.33-0.31-0.32-0.57a0.33,0.33,0,0,0,.27.26c-0.16-.25,0-0.55-0.16-0.76,0.23,0,.07-0.12,0-0.22s0.1,0,.14,0,0.06-.12.09-0.2l0.05,0.09s0-.08,0-0.13a0.07,0.07,0,0,1,0,.06c0.17,0,.07-0.18.24-0.22v0.09h0.09s-0.08.08-.12,0.11l0.12,0a0.27,0.27,0,0,0-.32.34l0.08-.07a0.71,0.71,0,0,1-.19.23c0.27-.05,0,0.11,0,0.22,0.12-.14.19,0.06,0.32,0.12-0.49-.13-0.16.46,0,0.29l0,0a0.33,0.33,0,0,1,.1-0.08,0.49,0.49,0,0,1-.07.21,0.13,0.13,0,0,1,.07.21,1.17,1.17,0,0,1,.18,0,1,1,0,0,0-.26.87q0.41-.68.8-1.38a0.19,0.19,0,0,1,0,.07c0.28-.41-0.47-1.1,0-1.77a3.13,3.13,0,0,0,.11,1.13c0.4,0,.62-0.9.84-1.14,0,0.07,0,.15,0,0.22a1.35,1.35,0,0,0,.08-0.73c-0.39.17,0.13-.67,0-0.89a0.45,0.45,0,0,1,0,.55c0.42-.32,2.52-0.54,2.45-1.16,0,0,.08.08,0.11,0.13l0.12-.07a0.29,0.29,0,0,0,0,.29c0.18-.07.54-0.42,0.48,0a3.77,3.77,0,0,0,.68-0.18,0.34,0.34,0,0,0-.28-0.45c0.62,0.29-.4-0.09-0.76-0.27a3.69,3.69,0,0,1,.42-0.36c-0.61,0,.38-1.12.32-1.16a0.45,0.45,0,0,1,.29-0.21s0,0,0,.08l0.16,0a1.34,1.34,0,0,0,0-.16l0.06,0.07a1.23,1.23,0,0,1,.07-0.16l0,0.13a0.5,0.5,0,0,0,.06-0.12l0,0.1a1.12,1.12,0,0,0,.72-0.77,0.47,0.47,0,0,1,0,.13s0,0,.08,0a0.59,0.59,0,0,0-.1.12,0.33,0.33,0,0,1,.26.09,0.63,0.63,0,0,1,.08-0.29c0.29,0.35,1.49-.14,1.25-0.76a2.52,2.52,0,0,0,1-.29,1.26,1.26,0,0,0-.08.12C98.33,86,99.65,85.3,99.5,85a0.22,0.22,0,0,0,.3.13c-0.15.21-.44,0.31-0.56,0.54a10.58,10.58,0,0,1,1.46,0c-0.14.09-.94,0.06-0.72,0.4a2.8,2.8,0,0,0-.29-0.36,5.05,5.05,0,0,1-1.21.74c0.07,0,.14,0,0.21-0.07a3.25,3.25,0,0,0-.61.37,0.36,0.36,0,0,1,.26-0.15c-0.2.22-.51,0.69-0.16,0.95a3.9,3.9,0,0,0,.65.22c0-.28,1.22-1,1.17-1.07s0.08-.11.09-0.18c0.13,0.14.62,0.26,0.37,0,0.69,0.33,1.7-.62,2.36-0.65q0.19-.23-0.34-0.14c0.28-.08-0.79-0.45-1.22-0.33a0.85,0.85,0,0,0,0-.11,2.74,2.74,0,0,1-1.28-.33c0.07,0,.14-0.08.21-0.1a17.32,17.32,0,0,0-1.4-1.17,1.17,1.17,0,0,0,.58-0.74,0.39,0.39,0,0,0-.32-0.08l0-.06a5,5,0,0,1-1.61-.21c0.14-.07,3.26-0.44,2.07-1a0.77,0.77,0,0,1,.29,0C99.79,79,90.65,85.87,90,86.05a1.87,1.87,0,0,1,.69-0.39,0.44,0.44,0,0,0-.32-0.22c1,0.12,4.64-3,3.93-3.22,0.74,0.17,1.22-.77,1.82-1.07l-0.06-.06c0.92-.37,1.29-1,2.2-1.33,1.19-.46,3,0.3,4.16.18,0.88-.09,5.75-2.34,5.22-2.79,0.39,0.18.1-.15-0.3-0.19,1-.51.2-1.94-1-1.17a0.18,0.18,0,0,0-.18-0.17c0.91-.93-1.06-0.87-0.38-0.64-0.83.12-1.5,1-2.27,1.07l0,0,0.09-.07c-0.09-.07,0-0.14.14-0.18a1.25,1.25,0,0,1-.28-0.21,8.13,8.13,0,0,0,2.82-1.2c-0.17-.61-2-0.67-2.3-0.29a1.6,1.6,0,0,1,.38-0.47,3.25,3.25,0,0,0-1.11.15c0.5-.4.05-0.62,0.26-0.95a0.14,0.14,0,0,0-.21.08,1.1,1.1,0,0,0-.84-0.35,0.56,0.56,0,0,1,.14-0.07c-0.06-.36-0.59-0.13-0.12-0.41-0.17-.08-0.38,0-0.55-0.12a0.63,0.63,0,0,1,.26-0.1,6.11,6.11,0,0,1-.72-0.37,0.34,0.34,0,0,1,.19,0l-0.08.06c1,0.81.85-.17,0.38-0.61,0.38-.32-0.36-0.22-0.49-0.32,0.69,0.16.32-.74-0.72-0.71a1.21,1.21,0,0,0,.59-0.52,0.28,0.28,0,0,0-.47,0c0-.2-0.28.09-0.38,0.11,0.07-.09,1.14-0.84.24-0.74,0.14-.13-0.12-0.2.06-0.26-0.22-.11-0.49.12-0.71,0,0.67-.06.38-0.51,0.18-0.31,0-.11-0.1-0.14-0.18-0.18a0.58,0.58,0,0,0,.21-0.14c-0.14-.13-0.27-0.58-0.45-0.32q0.1-.7-0.51-0.38c0.08,0,.6-0.36.13-0.43-0.29,0-.71.66-0.38,0.77a0.26,0.26,0,0,0-.43.16,0.78,0.78,0,0,0,.42.38c-0.11,0-.62-0.29-0.35.1-0.18-.13-0.08.17-0.26,0.12a0.28,0.28,0,0,0,.29.23c-0.1.06-.32,0-0.3,0.12-0.12,0-.28.06-0.12,0.15-0.39,0,0,.37-0.17.59A0.49,0.49,0,0,0,98,68.79a2.86,2.86,0,0,0-1.33,1.08,1.65,1.65,0,0,0-.07-0.56,0.71,0.71,0,0,1-.29.36q0.32-.51-0.12-0.33a0.73,0.73,0,0,1-.81.65c1.21-2-.19-0.35-1.06-1.21,1.83-.19-0.21-1.38-0.47-1.71,1.63,0.24.48-1.37,1-1.44-0.14,0-2.3-.32-1.92-0.51a0.81,0.81,0,0,1-.2,0c0.23-.53,0-0.12-0.37-0.23,0.38,0-.14-0.46-0.5-0.34,0.91-1.21-2-.7-1.74-0.41A0.94,0.94,0,0,0,89,64a0.73,0.73,0,0,0,.13-0.08c-1-.94-3.47.17-1.74,1a9.25,9.25,0,0,0-.63,1,1.47,1.47,0,0,0,.55,0c-0.15.19-.23,0.34,0.09,0.4-0.44.17,0.26,0.55-.08,0.64,0.3,0.23,0,.58.22,0.71a1.3,1.3,0,0,0-1,1.23c0.15,1.2,2.18,1.21,1.65,3.13-0.44,1.61-2.05,1.24-2.88,2.23a4.07,4.07,0,0,1,.45.72c0.37,0.06,0,.21.28,0.34-0.3,0,.23,1.83.47,2A1.31,1.31,0,0,0,86,78.65a0.43,0.43,0,0,0-.59-0.42c-0.45.36,0.07,0.61,0.17,1-0.56-.92-0.76-0.64-1.42-0.45a0.87,0.87,0,0,0-.92-1.37c-0.18.09-.28-2.77-0.45-3.08-0.33-.58-2.2-1.67-2.89-0.57,0.52-1.28-5.44-2.93-6.61-2.5a0.28,0.28,0,0,0,.06-0.09,3.23,3.23,0,0,0-.47.16c0.69-.33-0.23-3.86-1.44-1.85a1.07,1.07,0,0,0-.59-1.06,3.5,3.5,0,0,0,.19-2c0.48-.14,1.17-1.89,1.11-2.06a0.31,0.31,0,0,0,.29,0l-0.09-.08c0.33-.06.51-0.3,0.15-0.51a1.7,1.7,0,0,1,.64.28c-0.25-.66,0-0.34.46-0.54q0-.28-0.3-0.31c0-.19,3.26-0.84-0.1-1.18,0.08-.07.21-0.12,0.29-0.2a3.5,3.5,0,0,0-1.18-.37,1.67,1.67,0,0,0,.13.15c-0.5.06-.2-0.27-0.4-0.46,0.33,0.23,4,1.12,3.33.25a0.65,0.65,0,0,0,.29,0,0.33,0.33,0,0,0-.21-0.26,3.63,3.63,0,0,1,.92.22c0-.06-0.06-0.16-0.09-0.2C76.94,61.9,78.45,60,78,59.44c-0.16-.21-3.35-0.62-3.45-0.89a1.7,1.7,0,0,1-.36-0.18,4.49,4.49,0,0,1,1.49.12l-0.09-.09c1.27-.23,1.55,1.35,2.89.56,1.06-.62.62-0.69,0.15-1.31a18.4,18.4,0,0,1,2.76.28c0.16-.39-1.06-1.2-1.16-1.13,0.53-.36,1.31,1,2.42.42,1.92-1,.13-1.22.42-2.38-0.25.25-.49-0.43-0.46-0.46,0.19-.24,1.07.27,1.17-0.37a0.5,0.5,0,0,0-.66-0.29,4.89,4.89,0,0,0,.56-0.44,5.63,5.63,0,0,1-1.31-.56c0.74-.17-2.13-0.76-2.62-0.57,0.35,0.26.27,1.64,0.63,1.72-1.52,1.06-1.95,4.1-3.28,1-0.11-.27,1.26-0.8-0.25-1.42s-0.82,1.38-1.55,1.27c-0.25,0-.52-1.4-0.93-1.66a0.42,0.42,0,0,1,.2,0c0,0.18.38-.23,0.58-0.23a1.54,1.54,0,0,0-1-.11c0.08-.07.19-0.12,0.27-0.18-0.48-.16-1.11.18-1.64-0.05a3.29,3.29,0,0,0,.86-0.62,1.75,1.75,0,0,0-.51-0.11c0.24-.32.72,0.13,0.86-0.1,0,0-1.4-1.2-1.31-1.17,0.88-.8-2.52-3-2.71-1.26a0.38,0.38,0,0,0,.42.16S68.27,51,70,50.7c-0.12.09-.12,0.18,0,0.25-1.14-.41-0.18,1.13-0.17,1.14a3.16,3.16,0,0,0,1.3.42,4.65,4.65,0,0,0,1.18.4c-0.26.34-.32,0.26-0.18-0.07-0.14,0-1,.6-0.44.46a0.84,0.84,0,0,0-.48.57c0.22,0.37.63-.23,0.72-0.31a1.3,1.3,0,0,0,.35.59c-0.64.57-1.56,0.71-2,1.28-0.21.25,0.4,0.71,0.3,1.07s-0.58.12-.71,0.36a1,1,0,0,1,.23.49,2.56,2.56,0,0,0-.56-0.62,4,4,0,0,0,.91,0q0.08-.4-0.33-0.28c-0.27.39-.38-1.29-0.18-1.7a3.91,3.91,0,0,1-.71.34c0.06-.16.22-0.27,0.27-0.44,0,0-1.71-.38-1.29-0.12a2.08,2.08,0,0,1-.81,0c0.06,0.15.2,0.25,0.25,0.4l-0.11,0c0.26,0.66,1-.07,1.25.56S67.35,55,67.43,55q-0.29.21,0.2,0.41A10.72,10.72,0,0,1,61.79,55c-0.31-.16-0.69-0.88-0.94-1s-3.26-.27-2.94.69,2.46-.84,2.74-0.53-2,.93-1.89.93,0.4,1.44.61,1.84a0.42,0.42,0,0,0-.55,0,1.18,1.18,0,0,0,.46.8q-0.6-.53-1.17-1.09,0.46,0.23.49-.24c-0.34-.65-0.68-0.27-0.85-0.3a5.63,5.63,0,0,0-1.27-.84c-1.65-.11-3.1.6-4.92,0.09a3.7,3.7,0,0,1,1.37-.77,2.42,2.42,0,0,0-2.13-1,2.67,2.67,0,0,0,.17.22c-2,0-3.74-1.59-5.64-1.61-0.2,0-2.26,1-2.31.65,0-.07.4-1.08-0.07-1.21a1.37,1.37,0,0,0-.41.21,0.94,0.94,0,0,0,.21.06,0.54,0.54,0,0,1-.41.27c0.1,2.29-2.15-1.39-2.66-1.24q-0.3.2,0,.35c-0.1.16,0.16,0.15,0.29,0.17a8.86,8.86,0,0,1-1.18.9c-0.44.21,0.06-.48,0.05-0.41-0.66.44-1.65,0.29-2,1.25,0-.26-0.08-0.6-0.33-0.25,0.16-.52-1.93.83-1.14,0.8a1.27,1.27,0,0,1-.76.07c0.06,0,.12.11,0.19,0.14-0.55.1,3.17-2.45,3.32-2.35a8,8,0,0,0-2.78.78,0.58,0.58,0,0,1,.16.07c-0.55.19-1,.45-1.67,0.67,0.56-1.56-1.9.32-1.32,0.37-0.51.32,0,.1,0.33,0.54-1.28.17-2.76-1-3.91-1.39a31.4,31.4,0,0,0-4.6-.81c-2.49-.36-4.75-0.5-7.27-0.71a0.59,0.59,0,0,0,.17-0.18c-0.09,0-1.14-.15-0.44-0.42-0.61-.63-1.72.28-2.41-0.14,0.49-.37-1.4-0.13-1.28-0.06a0.36,0.36,0,0,0,.43-0.44,4.05,4.05,0,0,1-.83-0.27,0.52,0.52,0,0,1,.16-0.09c-0.56-.12-2.08,1.83-2.78,1.05,0.17-.06.07-0.27-0.7,0.25a0.82,0.82,0,0,0,.66.19c-0.37.1-.42-0.06-0.45,0.41a0.16,0.16,0,0,0-.22-0.09c0.08-.1.12-0.2,0-0.23,0.05,0,.08-0.12.14-0.16a14.48,14.48,0,0,0-2,.68,3.25,3.25,0,0,0,.3-0.16c0.42,0.82-3.46,2.31-4.2,2.27,0.07,0.22-.09.93-0.41,0.83l0.1-.08a0.74,0.74,0,0,0-.23.1c0.62,0.26,3.77,2.49,4.13,2,0,0.23.54,0,.74,0.2-0.95.75,1.2,0.47,1.3,0.69,0.33,0.7-2.46-.47-2.11-0.58C6.8,57,8.52,58.07,8.53,58s-2.32.28-2.83,0c0.13-.07.32-0.49,0.13-0.56a1.62,1.62,0,0,1,.24,0C5.7,57,3.78,57.82,4.25,58A16.56,16.56,0,0,1,2,58.79a0.45,0.45,0,0,1,0-.1c-0.54.22,1.75,0.79,1.71,0.75a7.41,7.41,0,0,1-.76.16c1.18,1.17,2.29.21,3.57,1.11a0.81,0.81,0,0,0,.09-0.14,0.28,0.28,0,0,1-.24-0.13c-0.14.14,2.21-.45,2.29-0.27,0.22,0.53-.5.21-0.58,0.53,0.62-.1.56,0.88,0.47,1.13-0.23.61-.92,0.05-1.22,0.22A12.26,12.26,0,0,0,6,62.79c0.49-.34-1.13-0.54-0.61,0C5,62.71,4.88,63,5,63.36a1.64,1.64,0,0,1,.19-0.13,0.25,0.25,0,0,1-.24.19,0.47,0.47,0,0,0,.08.12c-0.31-.06-1.28.6-0.81,0.91a3,3,0,0,0-.44.09A0.37,0.37,0,0,0,4,64.7c-0.54.3,0.22,0.6,0.53,0.61a0.49,0.49,0,0,0-.1.1c0.11,0,.11.08,0.2,0,0,0.16.12,0.15,0.24,0.11a2.2,2.2,0,0,1-.29.21c0.37,0.3,1.29-.14,1.5.09-0.1,0-.2,0-0.3.07a1,1,0,0,1,.46.14,2,2,0,0,1-.9.23c0.48-.47-0.73-0.1-0.93.07,0.46,0.07.74,0.7,1.14,0.83,0.58,0.18,1.69-.4,1.38-0.44,0.23-.11.4-0.71,0.7-0.58-0.74.23,0,2.28,0.28,2.2-0.45.26,0.26,0.28-.47,0.64a11,11,0,0,0,1.9-.35c0.6,0,.69.6,1.16,0.66a1.19,1.19,0,0,0,.09-0.76c0.24,0.19.18-.38,0.69,0q-0.37-.16-0.37.22c0.17,0.74,1.47-.29,1.57-0.44a0.68,0.68,0,0,0-.16.55c-0.39.21-.75,0.51-0.21,0.74-0.36,0-.73.72-0.25,0.93a11.94,11.94,0,0,0-1.37.84,4,4,0,0,0-1.34,1.43c-0.13,0-.77.08-0.53-0.25-0.1,0-.33.12-0.27,0a3.22,3.22,0,0,0-2,1.54,0.22,0.22,0,0,0,.2-0.29c0.1,0,.79-0.24.63,0,0.51,0.33.7-1.09,1.18-.61C8,73,9.82,73,9.82,73s1.06-.81,1.09-0.57l0.22-.18a0.22,0.22,0,0,0-.26-0.15,0.67,0.67,0,0,1,.59-0.28l-0.14,0C11.67,71.39,15,70,15,69.46l-0.08,0c1.47-.2.13-1.18,0.16-1.32l0.48-.48-0.06,0c0.11-.09.28-0.23,0.27,0,0.22,0,.51-0.25.16-0.24a0.69,0.69,0,0,0,.54-0.26,0.49,0.49,0,0,0-.37-0.36c1.17-.14,2-1.81,3.49-1.71a2.13,2.13,0,0,0-.68.47,8.87,8.87,0,0,1,.92.42,3.21,3.21,0,0,0-1.71,0c-0.23.13-1.05,1.67-.78,1.73A5.23,5.23,0,0,0,18,67.42a6.39,6.39,0,0,0-.86.65,0.55,0.55,0,0,0,.71,0,2.72,2.72,0,0,0,1.4-.87,1.82,1.82,0,0,1,.1.21A1.7,1.7,0,0,0,19.49,67c0.29,0.65,1.29-.17,1.36-0.52a0.47,0.47,0,0,0-.63,0c0.38-.58.36,0.07,0.08-0.48a0.3,0.3,0,0,0,.31-0.31l-0.17,0a3.75,3.75,0,0,0,.62-0.29c-0.64.88,1.11,0,1.38,0.15q-0.61.15-.1,0.43c-0.06,0-.11.09-0.17,0.12a6.66,6.66,0,0,0,.85.11,0.61,0.61,0,0,1-.21.24,0.77,0.77,0,0,0,1.14-.27c-0.63.68,0.41,0.48,0.57,0.85l-0.07,0a10.08,10.08,0,0,0,2.6-.1,0.16,0.16,0,0,1,0,.3c0.83,0.46,1.49-.1,2.28.09a0.24,0.24,0,0,0-.28.31,1.69,1.69,0,0,0-.14-0.47,1.23,1.23,0,0,1-.34.56,2.68,2.68,0,0,0,1.21.53l0,0.05c0.93,0.24,1.26,1.42,2.32,1Q32.18,69,31.69,69c0.21-.17-0.38-0.39-0.54-0.35,0.1-.05.13-0.12,0.05-0.2,0.5,0.09.72,0.57,0.8,0,0.09,0.17.09,0.28,0.3,0.21-0.58.14,0.32,0.93,0.61,0.9s-0.24-1.26-.3-1.32h0.1s-0.05-.1-0.08-0.14a0.3,0.3,0,0,0,.11-0.15c0,1.18.67,1.53,1.4,1.24-0.51.7,0.21,0.77,0.65,0.87-0.44.11-.27,0.17,0.07,0.42a0.85,0.85,0,0,0-.48-0.15c-0.24.23,1.63,1.93,2,2a0.84,0.84,0,0,0-.59.76s0.82-.5,1.08-0.61a1.67,1.67,0,0,0,.27,1,0.36,0.36,0,1,0,.35.61c0.56-.38,0-1,0.33-1.36a8.08,8.08,0,0,0,0,1.09A1.1,1.1,0,0,0,38,73.1c0,0.13.1,0.19,0.22,0.13-0.65.74-1.18,1.45-.06,1.6-0.82.57-.64,0.58,0.06,1.25,0.07-.13.68-1.1,1-0.77-0.76.08,0.56,0.71,0.57,0.74a4.81,4.81,0,0,0-1.12-.47c-0.22.28,0.84,1,1,.93a1.31,1.31,0,0,0-.21.69A1.25,1.25,0,0,1,39.75,77a0.86,0.86,0,0,1-.39.49,1.11,1.11,0,0,1,.24.46,6.12,6.12,0,0,0,1-1.32,4.81,4.81,0,0,0,.29,1c-0.15-.09-1.09-0.8-1.08.09H40a0.42,0.42,0,0,0,.07.64A0.68,0.68,0,0,1,40.94,78c-2,.5.1,1.15,0.16,0.8,0,0.14-.06.29,0.13,0.27-0.45.29,0.36,0.14,0.45,0.19a0.67,0.67,0,0,0-.48.16A0.62,0.62,0,0,0,42,79.33c-0.12.77,0.67-.31,0.64-0.28-0.11,1.53.79,0.79,0.86,0.85s-0.14.86,0.34,0.61a1.74,1.74,0,0,0-.43.05c0.18,0.53.65,0,.8-0.05s-0.22,1.14.29,0.34c0,0.18-.19.11-0.33,0.17s0,0.17.14,0.16a0.37,0.37,0,0,0,0,.18c0.18-.41.69,1,0.64,0.85-0.15,0-.15.16,0,0.22,0,0,0-.1,0-0.12a0.82,0.82,0,0,1-.58,1.24c0-.12.22-0.36,0.24-0.09,0,0,0-.08.06-0.12,0.2,0.16.14-.26,0-0.35,0-.06.25-0.26,0.09-0.37,0,0.27-.43.35-0.45,0.63l0.14,0c-0.36.36,0.11-.47,0.09-0.45a0.64,0.64,0,0,1,0,.07c0.23-.15,0-0.28,0-0.48a4.06,4.06,0,0,1-1.82-.29c0.18,0.54.39,1.12,0.54,1.69,0-.16.15,0,0.28,0-0.42.2,0,.23-0.1,0.62a0.9,0.9,0,0,1-.09-0.2,1.83,1.83,0,0,1,0,.38,1.36,1.36,0,0,1,.81.15,2,2,0,0,0-.73-0.08,6.74,6.74,0,0,1-.28,3.24l0.09,0c-0.46.17,0,2.64,0,3.06a0.14,0.14,0,0,1,0,0c-0.4.75,1.15,2.3,1.3,2.87l-0.1-.11a0.7,0.7,0,0,1,0,.26,0.74,0.74,0,0,1,.5.16c-0.13-.47.69-0.29,0.89-0.24a1.3,1.3,0,0,0-.79.09,1.41,1.41,0,0,0,.28.53,4.92,4.92,0,0,0-.4-0.32c-0.3.3,1.93,3.39,2.18,3.56,0,0,4.34,2.47,3.27,2.83,0.52,0.78,2.62,3.4,2.33,3.91h0.09a0.22,0.22,0,0,0,.08.25,0.19,0.19,0,0,1-.22-0.2,1.11,1.11,0,0,1-.69,0c0,0.33,1.62,1.46,1.77.9,0,0.67,2.09,3.52,2.83,3.66,1.14,0.23.27-1-.17-0.84-0.1,0-1.22-2.63-1.37-2.75a0.27,0.27,0,0,0,.09.3c-1.22,0-2.62-5-3.05-5.42a11.37,11.37,0,0,1,1.72.85c0.23,1.27,1.2,2.9,2.43,3.28-0.33.44,1.11,1.42,1.33,1.62L57.44,106c-0.35.32-.1,1,0.3,0.57-0.07.45,0.35,0.2,0.8,0.7a0.28,0.28,0,0,1-.23,0c0.11,0.19,1,.8.49,0.61,0.5,0.35,3.13,2.72,2.13,3.6,0.35,0.08-.15.54,0.13,1,0.61,1,2.05,1.27,3,1.73,2.59,1.31,4.22,2.18,7,1.7l-0.22,0a2,2,0,0,0,.41,0l-0.09.08c0.2,0.07.43,0.12,0.64,0.2a1,1,0,0,1-.38-0.26c1.86,1,3.24,3,5.59,3l-0.19-.08c0.14,0,.91.3,0.8-0.1a0.42,0.42,0,0,1,.47.34q-0.1.17-.22,0c-0.11,0,1.87,2,1.56,2,0,0,.4,1.63.86,1.13a0.55,0.55,0,0,0-.25-0.53,12.7,12.7,0,0,0,1.86,1.74,0.58,0.58,0,0,0-.17-0.28,1,1,0,0,1,.56.6c0-.37.39-0.14,0.61-0.23,0.09,0.5,1,.43,1.11.39,0,0.54.92,0.89,1,.33l-0.42-.55a1.85,1.85,0,0,1,.68-0.43l-0.06,0c0.55-.86.93,0,1.36,0.26,0,0,0-.09,0-0.14s0.18,0.12.28,0a0.81,0.81,0,0,0,.32.34c-1.19-.41,0,0.11-0.62.07a13.07,13.07,0,0,1,.89,1.67c0,0.35.42,0.46-.06,0.7a1,1,0,0,1,0,1.24l0.11,0a0.27,0.27,0,0,0,0,.28l0.08-.11c0,0.14.06,0.23,0.19,0.14-0.45.89-1.11,1.18-1.42,2-0.3-.2-2.06,2.11-1.61,2.24-0.93-.35-0.67,2.86.26,1.62-0.31.81,0.6-1,.16-0.27,0.07,1.35-1.3,1.57-1.25,2.9,0,0.75.24,0.62,0.61,1.2,0.16,0.26,4.47,6.81,3.92,7,2.68,2.24,6.27,3.39,5.91,7.46A57.91,57.91,0,0,1,93,158.95c-0.23,1,.18,2.15,0,3.22a23.85,23.85,0,0,1-1.52,4.9c-0.2.56-.8,5.36-0.5,5.37-0.19.16,1.09,0.09,1.23-.09s-0.8.85-.17,0.54a1.75,1.75,0,0,1,.07.51c-0.15-.36-0.46-0.26-0.19.09a6.86,6.86,0,0,0-.48,1.52,1.7,1.7,0,0,0,.35.73,8.88,8.88,0,0,0-.64.86,0.58,0.58,0,0,1,.48.25c-1.37-.3-0.13,1.27-1,1.31a1.24,1.24,0,0,0,.2-0.89c-0.24-.11-0.16.75-0.62,0.47,0.1,0,.78-0.83.45-0.94A4.25,4.25,0,0,0,89,178.34c0,0.48.5,0,.13,0a2.63,2.63,0,0,1,.55-0.25c0.23-.28.86,1.29,0.8,1.27a1.13,1.13,0,0,0-.46.09c0.27,0.55.59,0.3,0.85,0a1,1,0,0,0,.31.62,7.48,7.48,0,0,1-1.13-.21c0,0.7.19,0.34,0.54,0.57-0.41.05-.58,1.1-0.2,1.24a0.86,0.86,0,0,1,.27-0.58c-0.35.32,0,.51,0.09,0.71-1.07,0,0,.24-0.12.47a1.79,1.79,0,0,0-.63.24c0.22,0.16.41,0.24,0.64,0.39a1.79,1.79,0,0,0-.22,0,0.45,0.45,0,0,0,.2.42,2.13,2.13,0,0,0,.3-0.41,0.44,0.44,0,0,0,0,.19,0.28,0.28,0,0,0-.18.35,3.36,3.36,0,0,0-.83-0.68c-0.34.22,0.43,0.38-.39,0.36,0.16,0.77,1.17.35,1.1,1.16a0.16,0.16,0,0,0-.25.08c0.15,0.14,1.72.52,1.46,0l-0.52-.27c0.38-.32.84,0.87,0.51,1.12a0.41,0.41,0,0,0-.08-0.52c-0.42-.13-0.33.65-0.9,0.15,0.06,0.35-.43.06-0.58,0.05,0.07,0.14,1.15,1.26,1,.46,0.33,0.06-.34.41-0.44,0.44,0.93,0.43.76-.88,2-0.29,0,0-2.55.8-1,1.08,0-.46,1.34-1,1.29-0.72a6.77,6.77,0,0,1-.67.8q0-.54-0.42-0.26c-0.28.32,0.88,0.81,1.07,0.67,0.41-.32.08-1,0.46-1.3,0.71-.52,1.48-0.3,2.1-0.59,0.47-.22-1.12-1-0.91-1a0.35,0.35,0,0,0,.11-0.67c0.06-.07.81-1.2,0.83-1.17a0.45,0.45,0,0,0-.48-0.11c0.17-.11.39,0,0.29-0.3,0.54,0.76,1.78-1.79,2.7-2.18-0.06-.22-0.25-0.06-0.39-0.14,1.52-.24-0.71-1.14-0.73-1.19-0.62-1.74-.18-0.92.59-2,0.08-.12.72-0.45,0.93-0.66s0.73-1.35,1-1.74a3.65,3.65,0,0,1-.67-0.24c0.25-.79.91,0.34,1.24,0.06a0.41,0.41,0,0,0-.51-0.63c-1,.2-0.43-1.63-0.52-1.67l0,0.06c0.85,0.13,1.77.76,2.39-.2a8.65,8.65,0,0,0,.13-1.38h0.12c0,0.07-.47-0.65-0.22-0.61,2.4,0.4,5.37-.38,4.83-2.81-0.39-1.77-1.4-1.93-1-3.95,0.33,0.83-.46,1.26.44,2.09a4.78,4.78,0,0,0,3,.35c0.8-.31,3.16-3.37,3-4.3l0.07,0.08a0.66,0.66,0,0,0,0-.73c0.29,0.46.45,0,.7,0.26s-1.44,1.67-1.4,1.89c0.19-.26,5-6,3.17-6.35,0.56-.2,0-0.32-0.05-0.51,0.23,0.25.25-.14,0.52-0.06l-0.05.09a0.55,0.55,0,0,0,.31-0.33l-0.08,0c0.29-.1,3.69-2.46,4.07-2l-0.28,0c0.82,0.4,2.28-.61,2.79-1.28,1.24-1.62,2.52-5.39,1.93-7.48l0,0.09c-0.07-.15.09-0.52-0.08-0.49,0-.21.46-0.6,0.22-0.76,0.11,0,.09-0.06.15-0.16,1,0.44.49-.66,1.29-1.33,0,0.06,0,.12,0,0.18a0.37,0.37,0,0,0,.16-0.32c0.86,0.06,2.85-3,2.18-3.83C127.52,137.38,127.76,137.95,127.58,137.74ZM94.14,82.18A2.09,2.09,0,0,1,93.47,82C93.66,82,93.9,82.12,94.14,82.18Zm-8.3,7a5.23,5.23,0,0,1-2.93.86A1.66,1.66,0,0,1,83.21,90a1.45,1.45,0,0,1-.66-0.26l0.25-.51c-0.08.31,0.51,0.13,0.59,0.3a0.83,0.83,0,0,1,.6-0.43,0.52,0.52,0,0,1,0,.07c0.5-.68,1-0.29,1.71-0.33a1.5,1.5,0,0,0-.36-0.06c0.33-.55,1.41,0,1.29-0.57,0.21,0,.13.19,0.18,0.35A8.45,8.45,0,0,1,85.84,89.22Zm-3,0a1.19,1.19,0,0,1,.44-0.46,0.63,0.63,0,0,1,.2.32l-0.65.14h0Zm4.31-1.89a1.83,1.83,0,0,1,1.17-.06,0.1,0.1,0,0,1-.05,0c0.2,0,.2.16,0.42,0l-0.16,0s0.11-.13.17-0.18c-0.2.12-.18-0.12-0.44,0,0-.08-0.12,0-0.24,0A0.54,0.54,0,0,1,88.51,87l0.13,0a0.58,0.58,0,0,0-.16.11c0.34,0.13.83-.47,1.16-0.46-0.27,0-.33.52-0.35,0.56h0.11a0.24,0.24,0,0,1-.15.12c-0.7,1.07-2.8.22-3.2,0.5a1.37,1.37,0,0,1,1.07-.52h0Zm-5.27-3.06a19.64,19.64,0,0,1,2.22.58,0.16,0.16,0,0,1,.21,0l-0.09,0c0,0.07,0,0,0,.07a0.86,0.86,0,0,0,.42,0,3.44,3.44,0,0,1,.7.46c0,0.14,0,.32.25,0.32,0.08-.16.12,0.23,0.08,0.26a1.33,1.33,0,0,1,.31.36L86,86.2s0,0.1,0,.12a8.11,8.11,0,0,0-1.15.17c0.06-.16,0-0.29-0.21-0.18a0.4,0.4,0,0,0,.15-0.23c-0.17.13-.35-0.12-0.29-0.31a1.14,1.14,0,0,0-.39,0c0.22,0.32.33,2.68-.62,2.52-0.54-.09.15-1.58-1-1a0.31,0.31,0,0,1-.46.27c-0.07-.08.95-1.42,0.56-1.57a2.1,2.1,0,0,0-1.59-.84c0,0.13-.24.34,0,0.41-0.78.28-.18,0.25-0.58,0.74,0-.07,0-0.18.05-0.26s-0.07.14-.12,0.22a1.23,1.23,0,0,1,.05-0.46c-1.32.66-.31,2-0.69,2.89-1.4,3.5-1.69-2.27-1.21-2.47a0.74,0.74,0,0,1-.36.33A8.64,8.64,0,0,1,79.21,85c-0.11.42,0.21,0.06,0.39,0,0,0.12-.2.2-0.05,0.3,0.22-.94,2.49-0.1,2.53-0.46,0,0-.46-0.56-0.48-0.56A0.43,0.43,0,0,1,81.86,84.25Zm-6.5-1a14.64,14.64,0,0,1,2.17-1.38,1.16,1.16,0,0,1-.15.3,1,1,0,0,0,.45-0.61c0.27-.22-0.18.61-0.12,0.42A1.36,1.36,0,0,0,78,81.36c0.46-.45,2.83,1.05,3.09,1.25a5.41,5.41,0,0,1,.35,1.47L81.56,84s-0.14.28,0,.29c-0.27,0-.61.05-0.44-0.32-0.16,0-3.41.19-3.25,0-0.19-.88-1.63.09-2.33,0.21,0.61-.88-0.94.21-1.09-0.2C74.73,83.71,75.06,83.48,75.37,83.22Z"/><path class="a" d="M340,58.09a1.56,1.56,0,0,0-.44,0c0.17-.23-0.23-0.18-0.34-0.12,0,0,.08-0.08.12-0.11a4.15,4.15,0,0,0-2.39-1.17,1.29,1.29,0,0,0,.46.18c-0.15.1-.86-0.2-0.62,0.14-0.29.16-.09-0.24,0-0.32a3.21,3.21,0,0,0-1.31,0s1,0.51.3,0.67c0.08,0.23.87,0.3,0.16,0.63a1.11,1.11,0,0,0-.81-0.61c0.11-.75.23-1.08-0.42-1.16,0.9-.55-2.47-1.45-2.14-1.41l0.11-.09a2.41,2.41,0,0,0-.8-0.44c0.16,0.16.4,0.2,0.54,0.37a0.5,0.5,0,0,1-.24.12c0.22-.44-0.69-0.26-0.66-0.64,0.06,0.05.14,0.08,0.2,0.12-2.05-2.36-7.49-2.37-10.34-2.53a0.71,0.71,0,0,1-.31.8c1.31,0.24.55,1.46-.61,1.24-0.75-.14-1.31-1.15-2-1.3a21.72,21.72,0,0,0-4.64,0c-0.72.32-.84,1.8-1.52,1.83,0.65-.62.15-0.93-0.05-1.65,0.21,0.73-1.29-1.8-.78-1.28-2.28-2.36-5-.14-7.75-1.14a1,1,0,0,0,.31-0.07,1.38,1.38,0,0,0-1.88-.35,1.46,1.46,0,0,0,.49-0.4l-1.54-.52a4.07,4.07,0,0,0,1-.23c0.55-1.64-4.77.11-4.73,0.21,0.1,0.28.78-.83,0.69-0.77a2.35,2.35,0,0,1,.47.14l-0.21.34a1,1,0,0,0,.78-0.61,8.29,8.29,0,0,1-2.51.06,7.81,7.81,0,0,0,2-.23c-0.5.46-4.56-1.49-5.22-.89a1.77,1.77,0,0,0,.35.54c-0.31.11-1.78,0.08-1.83,0.58a1.88,1.88,0,0,0,1,.11c-0.27.1-.51,0.34-0.78,0.42a1,1,0,0,1,.59.8c-0.07,0-2.72-.12-1.58.29a1.32,1.32,0,0,0-.44.17c0.05,0,.09.11,0.14,0.14-0.51.07-1.06-.69-1.6-0.78-0.84-.13-1.46.34-2.29,0.33a4.33,4.33,0,0,1-1.09-.82c-0.51.15-.4,0.93-0.66,1-0.69.31-.36,0.71-1.15,0.64a3.55,3.55,0,0,1-1.77-1.21,0.33,0.33,0,0,1,.51-0.24,2.31,2.31,0,0,0-.32-0.37c0.3,0.64-1.21-.54-1.32-0.81,0.62-.32,2.6,1.19.65-0.21a1.38,1.38,0,0,0,.75-0.29,0.46,0.46,0,0,0-.58-0.35,0.88,0.88,0,0,0,.47-0.39,4.25,4.25,0,0,1-.8-0.28c0.13-.44-2.26-0.34-2.51-0.32,0.2-.5-3.21-0.85-1.87.46-0.48.13-1,.32-0.82,0.51-0.51.24-4.17-.15-4.12-0.81a0.42,0.42,0,0,1,.52-0.22c-0.36-1-4.33-.17-5.12,0a0.39,0.39,0,0,0,.36.29,0.67,0.67,0,0,0-.16,1.23c-0.7.4,0-2.12-.83-2.35,0.35,0.55-1.32.64-1.52,0a1.34,1.34,0,0,0,.3-0.11c-0.19,0-1.89.16-1.74,0.47s0.85-.2,1.09.08c-0.77.76-4.52,1.67-5.4,1.71,0.51-.22,4.29-3,4.43-2.79,1.83-.52,4.59-1.4,2.47-2.82a1.24,1.24,0,0,1,1,.51,0.72,0.72,0,0,0,.35-0.68c-0.57.12-.26-0.85-0.82-0.61,0.36,0.14-.13.37-0.31,0.36,0.42-.23-0.21-0.91-0.67-0.63,0.56-.45-5.2-0.87-5.25-0.4a1.62,1.62,0,0,0,1-.66c-0.32-.42-2.58-0.34-3-0.34a5.17,5.17,0,0,0,1.75-.57c-1.1-2.26-6.57,1.24-4.13,1.78-0.33.42-2.27-.36-2.72,0-0.69-.4,2.08,1.61.6,1.3a0.55,0.55,0,0,0,.29-0.4c-0.09-.9-2.6.13-3.07,0.23a1.48,1.48,0,0,0,.1-0.19c-0.28-.12-0.66.3-0.89,0.19a1,1,0,0,0,.4-0.36c-0.55-.29-2.68.33-2.93,0-0.41.43,1.11,0.22,1.12,0.22-0.16.24-6.94,1.49-6.81,1.69A1.33,1.33,0,0,1,243,43c0.41,0.64-1.47.32-1.54,0.7a2.83,2.83,0,0,1,1.36.52c-0.36.08-.86-0.4-1.16,0.09,0.51,0.26,1,.7,1.48.92a6.13,6.13,0,0,0-1.51.78,2.11,2.11,0,0,0,.7.45,1,1,0,0,1-.87-0.59,5.14,5.14,0,0,1,1.16-.67c-0.23-.34-3.72.27-4,0.3-1.39.13-3.09,0.28-1.85,2,0.54,0.76,2.12.7,2.62,1.63,0.13,0.23,0,2.69-.63,2.55-0.45-.1.47-1.11,0-1.43-0.33-.22-0.63.85-0.63,0.93A5.4,5.4,0,0,1,239,49a16.31,16.31,0,0,0-2.3-.65c-0.63-.2-2.53-1.15-3.07-0.13-0.08.15,1,0,.68,0.44s-1.5-.18-2,0c0.38,0.77,2,1.46,2.88,1.57-0.26.46-3.42-.69-3.49-0.81,0.06,0.11-.16-3.22-0.49-2.38a1.51,1.51,0,0,0,.19.53,0.7,0.7,0,0,1-.69.95c-0.17.44-1,.49-1,1.12a6.7,6.7,0,0,1,.88,1.57c0.07,0.39-.86,1.39-0.36,2,0.65,0.75,2.33-.46,3.31.47a2.28,2.28,0,0,1,.44,1.19,0.44,0.44,0,0,0,0,.81,3.2,3.2,0,0,1,1,.21c-2.54.13-.67-0.9-2.1-2-2.11-1.6-1.6,1.28-1.86,1.68-1.08,1.68-3.58,3.51-5.4,1.57a2.69,2.69,0,0,1,1.58.07c-0.7.46,1.17,0.5,0.64-.34,0.75,0.09,1.92-1.68,2-2.32s-0.71-.49-0.88-1.22c-0.13-.54.1-1.41,0-1.94,0-.25-0.46-1.66-0.46-1.68,0-.21.42-0.92,0.38-1.09-0.19-.79.48-0.84-0.15-1.52-0.48-.51-1.94,0-2.53-0.17-0.36.51-1.88,2.87-2.64,3.2a12.49,12.49,0,0,1,0,2.54c0.11-.53,1.85.93,2.12,1-0.93,1.81-3.33-.57-4.86-1-0.53-.15-2.34-0.65-2.83-0.42-0.92.44-.25,1.21-0.12,1.12,0.31,1.14-2.29,1.09-1.4.67-0.71-1-4.52,1-5.77.76a9.91,9.91,0,0,0,.51-1,2,2,0,0,1,.65-0.15,3.37,3.37,0,0,0-2,.63,0.43,0.43,0,0,1,.36.2,0.4,0.4,0,0,1-.51.18s0.05-.1.1-0.14c-0.39-.47-2.87.76-3.39,0.94,0.15,0.17-2.79,3.2-3.56.78-0.24-.74,1.77-0.54,1.66-0.94-0.26-1-2.4-1.32-3.16-1.14,0.5,1.14,1.33,2.8.73,4.23-0.16-.13-0.3-0.31-0.53-0.18,0.3-.8-1.35-0.38-1.56-0.33a4.14,4.14,0,0,0-1.63,1c0.13-.18-0.82,2.14.19,1.21-0.8.74-3.57-.93-3.61,0.11,0,0.74,1.39.43,1.42,1,0.06,1.16-1.88-.1-2.15-0.29-1.15-.8-0.74-2.86-2.27-3a0.34,0.34,0,0,0,.28-0.18,10.62,10.62,0,0,1-1.66-1.13,5.41,5.41,0,0,1,1,.12c-0.41.31,1.3,0.65,1.43,0.68,0.09-.13,4.45,1.19,5.49.46,1.25-.88,1.19-2.36-0.49-2.86a1.79,1.79,0,0,1,.07.17c-1.34,0-2.67-1.64-4-1.91a5.09,5.09,0,0,0-2.3.27,0.7,0.7,0,0,0,.3-0.53,0.55,0.55,0,0,0-.49,0s-0.66-.28-0.8-0.41c0.09-.09.91,0.18,0.87-0.11a3,3,0,0,0-1-.43c0.15,0.73-1.4.08-1.47,0.39-0.09-.27-1.39-0.12-1.55-0.71a3.49,3.49,0,0,0,2-.23c-0.51.33-1.79-2.36-2.54,0.06-0.32-.82.4-0.56-0.28-0.72,0.51-.68-0.19-1.05-0.53-0.54-0.14.21,0.26,0.74-.7,1,0-.28.12-0.48,0.13-0.73,0-.43-1.44,1.2-1.5,1.21-0.28,0,.45-1.32.51-1.27-1.3-1.12-1.56,1.48-2.24,1.49,0.4,0-2.09-.94-1.8-0.31a0.7,0.7,0,0,1,.53.54s-2-.57-1.16.55c-0.34-.11-0.36.21-0.65,0.31a1.19,1.19,0,0,0,.27-1c-0.29-.21-0.59.76-0.66,0.85a1.29,1.29,0,0,0,0-.63c-0.16-.12-1.37.56-0.73,0.78-0.09.05-2.37,0.73-2.26,1.33a2.14,2.14,0,0,0,1,.12c0.66-.4-2.17.32-1.11,0.57a0.24,0.24,0,0,0-.08.34c0.11,0.05-1.08-1.11-1-.25a0.9,0.9,0,0,0,.28.14c-0.13-.33-0.76.26-0.77,0.44a4.54,4.54,0,0,1,.53-0.1c-0.41.21,0.25,0.33,0.33,0.34a0.22,0.22,0,0,0-.09.27c-0.06-.05-1.2-0.49-1.07.1a2.67,2.67,0,0,0,.92.07c-0.13.29-2.17,0.12-1.39,0.71,0.08,0-1.49.74-.71,0.87a6,6,0,0,1,.78-0.1,2.75,2.75,0,0,1-1.18.31,0.92,0.92,0,0,1,.24.22,1.23,1.23,0,0,0-.85.89q0.29,0.49.74,0.06c-0.27.34-1.58,0.26-1.53,0.89a1.26,1.26,0,0,1,.32-0.09,16.72,16.72,0,0,1-1.91,1.68c-0.49.4,1.91,0,1.23-.34a0.43,0.43,0,0,1,.51-0.12,1.87,1.87,0,0,0-.27.16,0.35,0.35,0,0,1,.18.14c-0.19.07-.83,0.22-0.58,0.51-0.48.08-2.08-.43-2.23-0.11a0.35,0.35,0,0,0,.23.25,3.9,3.9,0,0,0-.44.25,1.51,1.51,0,0,0,.43.52c-0.28-.17-2.15-0.3-1.76.2,0.06,0.08,1.15-.13,1.26,0-0.12,0-.84.2-0.38,0.21-0.1.08-1.59-.26-1.48,0.2a0.81,0.81,0,0,0,.54,0s-1.85.37-1.45,0.74a5,5,0,0,0,1.48.13c-0.57.2-1.11-.2-1.63,0q-0.24.4,0.32,0.58c-0.93.42,0.9,0.88,1.19,0.28,0,0.65.77-.19,0.79-0.21-0.08.15-.12,0.37,0.15,0.32-0.15.13-.67,0.06-0.5,0.35-1.29-.38-2.41.56-1.35,0.39-0.54.55-.46,0.36,0,0.79,0.11-.06-1,0.42-0.49.64a14.58,14.58,0,0,1,1.72-1.18,0.82,0.82,0,0,0-.44.5c0-.66-1.22.58-0.3,0.45-0.29.3-1.17,0-1,.77,0.07,0.34,1.09-.39,1.2-0.37-1,.56-0.39.69,0,0.75a2.33,2.33,0,0,0-.8.18c-0.16.66,0.89,0.61,1.11,0.88-0.37.2,0.14,0.12,0.21,0.11-0.15.45,2.71-.56,2.26-1,0.14-.07.54-0.17,0.23-0.35,0.89-.08.38-0.16,1-0.9a2.6,2.6,0,0,0,.75,1c-0.33-.32-0.1.78-0.13,0.91a3.2,3.2,0,0,1,.67,1.28l0.09,0c-0.1-.31,1,1.39.57,1.34,0.16,0.26.14,0.29-.17,0.2a1.12,1.12,0,0,1,.39,1.16c1.46,0.3,1-.9,1.76-0.82,0.34,0.78,2.13-2.17,1.79-3.22a0.73,0.73,0,0,0,.26-0.08,1,1,0,0,0-.67-0.2,13.35,13.35,0,0,1,2.27-1c-0.1-.28-0.45.15-0.62,0,1.54-1.37.32-.57-0.14-1.67a7,7,0,0,1-.58-1.67,0.62,0.62,0,0,0,.25.06,0.65,0.65,0,0,1,.16-0.79c-0.7-.26.25-0.45,0.38-0.53,0,0-.09-0.07-0.13-0.09a0.41,0.41,0,0,0,0-.33,0.86,0.86,0,0,0,.18.07,0.39,0.39,0,0,0,0,.07,0.46,0.46,0,0,0,.4-0.29,1.35,1.35,0,0,0-.18,0,1,1,0,0,1,.52-0.31l-0.06,0a1.76,1.76,0,0,1,.66-0.27s0-.09,0-0.13c0.85,0.69,2.23-2.22,1.8-2.72a2.89,2.89,0,0,0,.7-0.36,0.49,0.49,0,0,1-.06-0.09,10.47,10.47,0,0,1,2.4-.38c0.2-.36.79,1.62,0.59,1.47-0.43.22-2.25,2.2-2.77,2.08a0.1,0.1,0,0,0,0,.09s-0.83.42-.66,0.59c-1-.23,0,2.14-0.14,2.16a0.54,0.54,0,0,1,.06.1c-1.11.48,0.46,1.58,1,1.56a1.29,1.29,0,0,0-.09.47s1.06-.26.45,0.31c0.89,0.16,2-.82,2.9-0.72a0.52,0.52,0,0,0-.08-0.19,0.37,0.37,0,0,0,.61-0.22,0.45,0.45,0,0,0-.07.3c0.19-.09,2.07-0.32,2-0.11l-0.12-.07c0.24,0.7,1.28.24,1.53,0.79a34.42,34.42,0,0,1-4.35.47,4.78,4.78,0,0,1-1.37.37l0,0.11c-0.54,0-.71.79-0.38,0.69-0.7.32,0.8,0.78,0.78,0.7,0.4,2.82-1.42.63-2.28,0.86-1.66.45-.31,3.9-1.41,3.52a1.21,1.21,0,0,0,.49-0.83c-0.25.73-2,2.18-2.53,1.14,0.12,0,.22.11,0.34,0.14-0.7-1.09-3.55,1.31-4.69.65,0.12,0.5.69,0.17,0.71,0.62-0.64-.29-1-0.95-1.74-1-0.4,0-1.34.94-1.76,0.55-0.19-.18.49-0.23,0.08-0.48,0.08,0-1.49,0-1-.12,0.3-.17-0.21-0.77-0.39-0.73a10,10,0,0,0,.42-1,2.74,2.74,0,0,0,.52-0.55,0.25,0.25,0,0,0,.4-0.11c0-.13-1.13-1.3-0.26-1.86a6.4,6.4,0,0,0-2.17,1.3q0.5,0.26.67-.34,0.36,0.06.16,0.43c-0.56-1.09-1.48,2.27-.59,2.06,0.49,0.73-.25,1.67,1.14,2-0.86,0-.79-1-1.22.2,0.13-.54-0.31-0.06-0.36-0.09,0.41-.57-1.66-0.24-0.86.24-0.76,0-3.75.54-2.85,2.1-0.05,0-.11,0-0.17,0l0.25,0.15c-0.25.1-.51-0.33-0.78-0.09a1.28,1.28,0,0,0,.73.19c-1.69.3-1.63,0.57-2.54,1.44,0,0-1.88,1.13-1,.91-1.05.83-1.49-.64-2.1-0.25a2,2,0,0,0,.38,1.24,0.72,0.72,0,0,0-.59.08c-0.23-.27-2.45-0.36-2.58.1a0.46,0.46,0,0,0,.47.23c-0.11,0-.22,0-0.32,0a0.48,0.48,0,0,0,.23.14,3.43,3.43,0,0,1-.33.16c0.49,0.07,1.32.4,1.84,0.52l-0.06.08c0.51,0.12,0,.29.73,0.31-0.24,0,.84,1.59.94,1.8a1.59,1.59,0,0,0-.17,0,4.82,4.82,0,0,1,.62.89,1.32,1.32,0,0,0-.5-0.62,4.43,4.43,0,0,0-.16,1l0.09-.11,0.07,0.09c-0.3.08-.67,1.26-1.21,1.5a11.42,11.42,0,0,1-2.76-.2c-0.84-.06-2-0.41-2.8,0-0.06,0-1.44.84-.63,0.89-0.13.14-.13,0.34,0.11,0.18a0.61,0.61,0,0,1,0,.4h0.12c-0.08.07-.34,0.41-0.08,0.37-0.27.22-.06,3.38-0.49,3.58a5.23,5.23,0,0,1,.48-0.41,2,2,0,0,0-.4.56,0.91,0.91,0,0,0,.52.16c-0.06,0-.14,0-0.2,0a2.52,2.52,0,0,1-.11,1.53c0.42-.05,1.72.16,2-0.26a1.24,1.24,0,0,0,.44.48,1.31,1.31,0,0,1,.17-0.09c-0.9.43,0.78,0.83,0.81,0.83,0.14-.66,3.66-1.07,4.38-1.61-0.57-.36.89-1.12,0.85-1.26s-0.22-2.46.51-2.23c0.81-.61,1.87-1.12,2.45-1.64,0.07-.06-0.42-0.65-0.15-0.87,0.79-.65.88-0.23,1.8-0.44,0.05,1,3.69-1.06,4.18-.88A11.06,11.06,0,0,1,171,89,18.62,18.62,0,0,1,174,91c1.6-.37,1.5,2.87,1.66,2.85,0.4-.06.84-1.24,1-1.46a0.84,0.84,0,0,1-.51-0.68,0.54,0.54,0,0,1,.63-0.53,4.88,4.88,0,0,0,1.1.54c0.12-.24-2-1.79-2.14-2.13,0.15,0.4-2.35-1.24-2.06-1-0.07-.06-1.24-1.42-1.28-1.5-0.11-.25-0.53-1.63-0.07-1.68l-0.1.09c0.16,0,1.06-.61,1.28-0.19-0.15.13-.29,1.07,0.15,0.88,1.21-.54.28-0.12,1.44,0.69a0.58,0.58,0,0,0-.33,0c0.49,0.86,1.73,1,2.45,1.6a1.12,1.12,0,0,0-.64-0.19,8.1,8.1,0,0,0,1.51.65,3.58,3.58,0,0,0,.84.86,9,9,0,0,1-.09,1.44l-0.11,0a11.42,11.42,0,0,0,1.72,1.64,1,1,0,0,0-.35,0c-0.06.14,0.53,0.7,0.53,0.44a1,1,0,0,0,1,.05s1.1,0.39.45,0.42l0,0.1c-1-.11-2.66,0-1,1.32,0.3-.63.24,0.2,0.56,0.31,0-.71.51,0,0.63,0a4.78,4.78,0,0,1-.34-1.17,0.75,0.75,0,0,0,.51.17c0.2,0-.3-0.54-0.29-0.54a0.91,0.91,0,0,1,.93.17c0.54-.35-1.18-1.2-1.37-1.24a1.23,1.23,0,0,0,.47-0.19c-0.54.06,0.31-.11,0.14-0.07,0.36-.09-1.3-1.46-0.28-1.64a1,1,0,0,0,.71.7q-0.39-.13-0.12-0.31a0.84,0.84,0,0,0,.43.25,0.66,0.66,0,0,1-.21-0.37,0.63,0.63,0,0,1,.54.22c-0.05-.17-0.69-0.34-0.56-0.61,0.37-.73,2.39.06,2.87,0.08a0.66,0.66,0,0,0-.56.61c0.15,0,2.74-1.56,2.69-1.28-1-.16-0.75-1.12-1.48-1.39a6.33,6.33,0,0,0,1.32-2.4h-0.08c0-.16.06-0.55,0.27-0.47a1.31,1.31,0,0,0,0,.25c0.63-.13.59-0.88,0.93-1.21s1.07-.74,1.45-1.14c0,0,.81.57,0.19-0.51,0.29,0.27.11,1,.77,0.7a1.45,1.45,0,0,1-1,.07c0.1,0.1.73,0.24,0.21,0.27,0.25,0.17,1.82.3,1.78,0.44s-1.24.49-1,.71c0.82,0.81,2.79,1.39,3.77-.06-0.91-.33-1.94.05-1.27-1.22,0.16,0.18-.07.3-0.2,0.39,1-.07,2.3-1.4,3.54-1.36-0.07,0-.13.09-0.2,0.13a0.49,0.49,0,0,1,.7.06,2.09,2.09,0,0,1-.81.33,1.79,1.79,0,0,1,.06.18c-0.25,0-.46.09-0.69,0a1.94,1.94,0,0,0,.69.64,10,10,0,0,0-1.67.84,1.94,1.94,0,0,0,.21.09c-0.31.21,4.14,2.47,4.37,3.27,1,3.44-6.22.73-6.05,0.45-0.84-.45-5.42,1.81-5.73,1.19a0.92,0.92,0,0,0,.72.23,4.91,4.91,0,0,0-1,.25l0.25,0.12a2.54,2.54,0,0,1-1.06,0c0.12-.16-0.07-0.18-0.19-0.11,0,0,.07.08,0.11,0.11-0.52.33-1.11-.34-1.6,0.58-0.34.63,0.57,0.21,0.67,0.33s-0.36.62,0.14,0.73q-0.47.33,0.12,0.47a1.38,1.38,0,0,0-.44.13q0-.48-0.28-0.24a0.22,0.22,0,0,1-.07.33c0.12,0.27.71,0.16,0.83,0.53a4.46,4.46,0,0,1,.06.85,2.47,2.47,0,0,1,.92-0.06,1,1,0,0,1-.74.34,1.25,1.25,0,0,0,.59,0,1.1,1.1,0,0,0-.06.13c0.71,0,1,.5,1.58.47s0.74-.73,1.1-0.71c1.31,0.06,1.83.61,3.18,0.37,0.53-.09,1.15-0.33,1.71-0.38-0.93.09,0.57,7-3.61,5.86,0.37,0.44-.58-0.05-0.42,0l0.11-.2a0.43,0.43,0,0,0,.23.15c-0.47-.56-1,0-1.48-0.08a0.89,0.89,0,0,0,.34-0.16,8,8,0,0,1-5.23,0c-0.95-.25-2.33-1.46-3.33-1.43-1.72,0-1.1,1.06-1.69,1.64-1,1-.23.83-1.77,0.63s-1.74-.95-2.68-1.41a19.53,19.53,0,0,0-3.91-1.22l0.06,0c-1.5-.9-0.42-0.54-0.32-1.8,0-.22-0.43-2.36.09-2.21a2.68,2.68,0,0,1-.69.31c-0.25-.15.08-0.59-0.39-0.51a0.22,0.22,0,0,1,0,.13,0.2,0.2,0,0,1,0-.19c-0.28-.13-2,0.27-2.49.23,0,0-4,.45-4.43.52s-5,2-5.18,1.28c-0.51.67-2.57-.13-2.18-0.53a36.21,36.21,0,0,0-3,2.8c-1,1.11-.78,1.8-1.2,2.82-0.81,1.94-2.5,2.42-3.78,4a11.55,11.55,0,0,0-2.14,2.95c0-.06.12-0.11,0.17-0.17,0.06,0.78-1.74,2.15-1.18,3,0.08-.64.25,0.06,0.46,0.2a0.45,0.45,0,0,0,0-.1c0.48,0.18.18,1,.08,1.2l0.13,0c-0.46.87,0.77,4-1.16,4.58a1,1,0,0,1,.7.72,0.91,0.91,0,0,0,.16,0c-1,.39,1.45.68,1.12,0.54a0.91,0.91,0,0,0-.72.18,0.29,0.29,0,0,1-.44-0.17c-0.59,0,.24.93,0.19,0.84-0.47-.14-0.25.46,0.19,0.33-0.32.29,0.38,0.21,0.29,0.43a2.19,2.19,0,0,1,.82-0.17c-0.34.57-.38-0.17,0,0.35a0.43,0.43,0,0,0-.38.18H146c-0.16.2,0.15,0.18,0.13,0.35,0,0,.13-0.07.16-0.1-0.13.64,0.19-.14,0.36,0.43l0.08-.07a1,1,0,0,0,.85.79,0.65,0.65,0,0,1,0,.37c0.4-.07.27,0.59,0.6,0.62-0.12,0-.36.36,0.15,0.21a0.22,0.22,0,0,1-.34.16c0,0.06.47,0.88,0.74,0.69-0.07.63,1.65,1.29,2.16,1.64,2.33,1.63,2.26,1,4.84.82a0.53,0.53,0,0,0-.29,0,9.5,9.5,0,0,1,1.26-.07,1.22,1.22,0,0,0-.54,0,5.32,5.32,0,0,1,1.38-.11,0.15,0.15,0,0,0,.13.2,0.9,0.9,0,0,0-.21,0c2.4,0.36,4.21-1.31,6.6-1.38l-0.28.15a7.39,7.39,0,0,1,1.89.77c-0.43.07-.08,0.26,0.09,0.13-0.06.08-.33,0.25-0.07,0.3a0.37,0.37,0,0,1-.09,0c0.1,0.31,1.09,1.11,1.13.61,0,0.14.14,0.16,0.27,0.1a0.61,0.61,0,0,1-.09-0.33c0.45,0.6.32,0,.29,0,0.3,0.27,1.11.29,1.11-.19a0.32,0.32,0,0,0,.3.16c-0.12.21,0.16,0.31,0.08,0.08,0,0,.82.9,0.78,0.57a0.31,0.31,0,0,0,.18,0,0.17,0.17,0,0,0,.07.21,0.2,0.2,0,0,0-.17.05,0.17,0.17,0,0,0,.2.16c0.28-.16-0.34,2.26-0.36,2.32,0.69,0,0,.54,0,0.54a0.54,0.54,0,0,0,.61.34,0.18,0.18,0,0,0-.19.14,0.55,0.55,0,0,1-.42-0.28s-0.17,1.46-.61.87c0.07,0.17.34,0.92,0.61,0.69-0.18.24,0.09,0.15,0.17,0.26-0.22.13-.34-0.13-0.46-0.27a5.54,5.54,0,0,0,.42.61,1,1,0,0,0-.17-0.06,1.06,1.06,0,0,0,.72.6,0.44,0.44,0,0,1-.32-0.08c0.91,1.16,2.16,2.81,3.16,3.18a4.85,4.85,0,0,0-.73.26c-0.23.8,1.64,1.73,0.71,2.69a0.4,0.4,0,0,1,0-.1c0.21-.13.28,3.12,0.21,3.43-0.2.79-1,1.66-1.2,2.65a5.33,5.33,0,0,0,0,3c0.3,0.91,2.66,3.28,2.32,4.34a0.32,0.32,0,0,1-.05,0c-0.83,2.15,1.67,5.63,2.6,7.24a8.51,8.51,0,0,1,.91,2.71,4,4,0,0,0,.29,1.7c-0.11-.55.88,0.09,0.79,0.28a55,55,0,0,0,6-.84c3.21-.86,6.43-4.65,6.85-7.92a0.3,0.3,0,0,0-.1.18c-1.05-.71,3.24-2,2.49-2.47,0-.06.07-2.07-0.1-1.31-0.42-.54-0.19-2.31-0.69-2.69,0.58,0.22,3.23-2.18,3.74-2.53a5,5,0,0,0,1.92-2.44,4.36,4.36,0,0,0-.2-1.48c0.23-.61-0.27-1.52.15-2l-0.1-.06s0.07-.07.12-0.1a1.53,1.53,0,0,0-.84-0.62c0.18-.23-0.58-2-0.41-2.08a7.26,7.26,0,0,1-.09-2.67c0.1-.47,1.72-2.45,1.6-2.74l0.06,0c1.16-2.57,5-3.87,6.64-6.15,0.53-.72,2.81-5.66,3.2-5.51a0.19,0.19,0,0,0-.18-0.16c0,0.1,0,.06-0.15.1a5.22,5.22,0,0,0,.21-1.31c-1.3-.27-3.15.78-4.51,1a6.17,6.17,0,0,1-2.25.16,4.39,4.39,0,0,0-1.48-.92c0.74,0.19,1-.85.45-1.26,0-.21-2.84-2.73-3-2.12a26.56,26.56,0,0,1-1.6-3.14c-0.52-1-1-1.28-.88-2.64l0.1,0.06c0-.37-2-3.05-1.39-2.85-0.42-.39-3.59-5.6-3-6.07,0.06,0.12,1.31,2.77,1.67,2.09,0.28-.53.15-1.2,0.6-1.66a10,10,0,0,1-.33,1.51c0.63-.45,3.35,4.61,4.07,5.17h-0.06c0.18,0.17.5,2,.67,2.28s1,0.65,1.24,1c0.77,1.07,2,2.67,1.77,4.07l-0.09-.06c-0.17.41,0.77,2,.75,2.5,2.46-1.23,5.69-1.49,8.21-3,1-.61,2.33-1.4,3.34-2a7.29,7.29,0,0,0,1.5-.94,8,8,0,0,1,.88-1.67c0.17-.36,1.54-0.92,1.09-2.05-0.54-1.34-1.33-.46-2.1-1.3s-0.36-1.9-.75-2.33c-0.57,1.72-3.13,2.76-4.5,2a0.27,0.27,0,0,1-.28,0,1.66,1.66,0,0,0,.1-0.23c-0.05,0-.09,0-0.14,0,0.45,0,.36-1.23.1-1.42-0.65-.45-0.47,1.11-0.54,1.24q-0.35-.67-0.73-1.32c0.46,0.12-.26-0.73.11-0.55-0.13-.17-1-0.65-0.86-0.83-0.79-.33-0.61-1.6-1.43-1.93a0.32,0.32,0,0,1,.4-0.18,0.79,0.79,0,0,1-.15-0.43c-0.22.33,1.35-.55,1-0.46l0-.06c0.26-.06.26,0.14,0,0.14a12.81,12.81,0,0,0,1.5.91c0.54,0.46.82,1.26,1.51,1.79a4.75,4.75,0,0,0,2.31,1.22c0.78,0.06,1.14-.82,2-0.59,0.46,0.12.16,1.06,0.49,1.24a10,10,0,0,0,1.25.27,7.58,7.58,0,0,0,2,.32c1.76,0.14,3.69-.52,5.37-0.19a0.33,0.33,0,0,0-.32,0c0.19-.41,1.27,1.63,1.43,1.56,0,0.15.13,0.13,0.2,0a0.56,0.56,0,0,1,.24.15l0-.1c0.06,0.39.32,0.09,0.58,0-1.09.72,1.06,1,1.6,0.77-0.46.2-.44,0.87-1.35,0.67,0.21,0,.86,1.38,1.38,1.5s2.06-.81,1.44-0.94c0.06-.12.42-0.35,0.14-0.44a1.82,1.82,0,0,1,.59,0c-0.23,0-.39.33-0.1,0.26a0.31,0.31,0,0,0-.15.27,1.19,1.19,0,0,0,.54-0.05,2.07,2.07,0,0,0-.47.28h0.11s-0.15,2.08.24,2.14c-0.24-.1-0.19.14-0.14,0.29a0.45,0.45,0,0,0,.13-0.17c0.43,1-.15,2.83.91,3.62h-0.12c1,1,2.11,4.2,2.51,5.56a2.08,2.08,0,0,1-.2-0.37c0.76,3.5,1.66.13,3,.69a3.9,3.9,0,0,1,.27-2c0.45-.35.35-2.22,0.44-2.28l0.14,0.22c-0.86-2.08.46-2,1.4-2.73s2.13-2.55,3.45-3.17c-0.29-.31.05-0.07,0.05-0.07s0.9-.16.71-0.34c0.23,0.12,1.6-2.08,1.6-2.27,0,0.08.34,0.92,0.33,0.6,0.23,0.45.3-.22,0.33-0.36a1.81,1.81,0,0,1,.1.53,0.46,0.46,0,0,0,.11-0.16c0.11,0.24.24,0,.09-0.19,0.1,0,.06,0,0.1-0.15a0.33,0.33,0,0,0,.27.37,0.5,0.5,0,0,0,.14-0.55,2.54,2.54,0,0,1,.08.5s0.34-.66.39-0.69a0.38,0.38,0,0,0,0,.44,0.68,0.68,0,0,1,.24-0.13,0.92,0.92,0,0,0,.06-1.28c0.19,0,.3,0,0.32-0.13,0,0.49.26,1.42,0.83,0.7a1.57,1.57,0,0,0,.3.58l0.06-.05c-0.23.68,0.57,1.57,0.81,2a0.58,0.58,0,0,0,0-.26c0.07,0.06.18,0.64,0.31,0.15a0.42,0.42,0,0,1,0,.21h0.07c-0.14.1,0,.27,0.09,0.32-0.16-.43.36,0,0.49-0.06a0.58,0.58,0,0,0,.24.51c0.1,0.25-.43,0-0.44,0-0.16.19,0.29,0.33,0.52,0.08a0.46,0.46,0,0,0,.19.53h-0.07c0.3,0.42,0,2.58.07,2.62a0.61,0.61,0,0,0,.43-0.48,4,4,0,0,1,0,.58c0.14,0,.55.21,0.65-0.19,0.07,0.68.87-.32,0.79-0.64,0.21,0.15,1.18.31,0.63-.61,0.23,0.14.44,0.94,0.83,0.8-0.3.22,0.06,1.63,0.28,1.83l-0.08,0a2.45,2.45,0,0,1,.21,1l0-.32c0.19,0.36.67,1.23,0.38,1.65l0.09,0c-0.1.34-.07,0.33,0.17,0.48a2.1,2.1,0,0,0-.3,1.59,1.27,1.27,0,0,1,.13-0.15s-0.52,3.31.84,2.67c-0.22.39,1.08,3.06,1.46,3.65s2.79,2.08,2.68,1.71a15.23,15.23,0,0,0-1.15-3.78c-0.28-.38-2.61-1.61-2.46-1.93a3,3,0,0,1,.37.47,4.49,4.49,0,0,0-.36-1.2,0.48,0.48,0,0,1,0,.08c-1-.91-1.07-2.12-0.16-3.64,0.36-.6-0.28-1,0.58-1.19-0.34.07,1.57,1.15,1.57,1.15a0.11,0.11,0,0,0,0-.06,0.55,0.55,0,0,0,.27.27l0.05-.09a4.89,4.89,0,0,1,.32.47,0.07,0.07,0,0,1,0-.06,2.72,2.72,0,0,0,.31.82q0.15-.3.38-0.1c0-.07-0.1,1,0.19.34a6.31,6.31,0,0,1,1,.53c0.19,0.3-.53.93-0.08,1.27,0,0-.07.11-0.12,0.14,0.67,0.13,1.43-.82,1-1.32a0.94,0.94,0,0,0,.66.39,0.75,0.75,0,0,0-.37-0.59,0.48,0.48,0,0,0,.49.27q0.2-.29-0.18-0.34,0.51,0,.13-0.16c0.24-.2.29,0.32,0.38-0.18,0.11,1,2-1.11,2.08-1.28a1,1,0,0,1,0,.1c0-.15,0-0.31,0-0.48l0.09,0c-0.07-.12-0.12-0.27,0-0.34s0.08,0.1.1,0.14a4.73,4.73,0,0,1-.19-1.19l0,0.09c0.22-1.17-1.77-3.34-2.77-3.83l0.12,0c0-.93-0.89-0.89-0.48-2.06a5.66,5.66,0,0,1,.74-0.87c0.14-.15,1.66-0.84,1.63-1.14a1.5,1.5,0,0,1,.57.45c0.16,0,.52,0,0.41-0.25a2.7,2.7,0,0,0,.39.21c-0.14.52-.41,0.49,0,1.05H264.2c0,0.48.51-.61,0.5-0.9a5.59,5.59,0,0,0,1.84-.63c0.3,0.32.44,0,.69-0.23,0,0.16.59-.11,0.23-0.69a0.87,0.87,0,0,1,.27-0.21,0.54,0.54,0,0,0,.37.61c-0.26.17,0.1,0.13,0.24,0.21,0.1-.13-0.06-0.41.27-0.23,0-.09,2.33-0.51,2-0.81,0,0,.65-0.54.7-0.23,0.3-.27.63-0.53,0.45-0.88,0.1,0,1-.21.75-0.36a5.55,5.55,0,0,1,.61-0.39c0.39,0.34-.13-0.87-0.14-0.89,0.89,0.36.42-.45,0.42-0.66a0.13,0.13,0,0,0,.22-0.06c0,0.67,1.16-1,.87-1.17,0.3,0.07.4-.46,0.81-0.29a3.15,3.15,0,0,0-.07-0.65c0.24,0,.06-0.18-0.09-0.2,0.22-.48.3,0.15,0.46-0.1,0.32-.52-0.33-0.26-0.4-0.26a4.27,4.27,0,0,1,.55-0.39,7.8,7.8,0,0,0-1.78-.38c1.33-1.11,2.06-.87-0.15-1.75,0.7-.28,1,0.34,1.73.24a14.91,14.91,0,0,0-1.28-2.13c-0.7-1-1.95-1.25-.21-2.36-0.49-.14,1-0.36.48-0.67a4.69,4.69,0,0,0,1.76-.85,5.66,5.66,0,0,0-2.27-.3c0.41,0.45-1.29.36-1.23,0.37,0.22,0-1.26-1.37-1.24-1.68s3.8-1.77,4-2.3c-0.07,1,.54,0-0.06,1.15a1.59,1.59,0,0,0-.47.61c0.17,0,.35,0,0.51,0a2.22,2.22,0,0,0-.58.7,18.79,18.79,0,0,0,3-1.39c0,0.2.25,0.21,0.27,0.44,0.44-.54.73,0.92,0.86,1-0.87,0-.28.44-0.81,0.61a2.53,2.53,0,0,1,.52.08l-0.24.14c0.35,0.19,1-.11,1.07.2,0.16-.19.28-0.11,0.49,0-0.25.19,0.45,0.85,0.23,1A0.35,0.35,0,0,0,279.7,95q-0.29.37,0.16,0.26c0,0.32.1,2,.1,2a0.4,0.4,0,0,1-.11.07,0.11,0.11,0,0,1,0,.06c-0.46-.12,0,0.4,0,0.4a4.66,4.66,0,0,0,.64-0.46c-0.06.3,0.53-.3,1.13-0.12A2.81,2.81,0,0,0,282.77,96c0.59-.34-1.68-3.52-1.93-3.6,0.11-.38,3.62-3.23,3-3.65,0.36,0,1-.78,1.23-0.71a0.51,0.51,0,0,0-.14.21,0.58,0.58,0,0,0,.42-0.25,1.46,1.46,0,0,1,0,.49c0.12-.05,1.13.1,1.39,0,1.06-.27,1.35-1.12,2-1.77a19.57,19.57,0,0,0,4-4.92c0.65-1.36,1.3-4.44.63-5.53a0.35,0.35,0,0,0,.49-0.07c0.15-.37-2.11-2-2.54-1.45-0.16.21,0.25,1.06-.4,1l0.3-.42c0-.12-0.95.65-1.27,0.35a3.17,3.17,0,0,0,.58-0.47,0.78,0.78,0,0,1-.47-0.2,0.56,0.56,0,0,0,.31-0.23c-0.59-.07-0.39.89-0.85,0.63,0.88,0.49-1.11-2.11-.82-1-0.1-.36-0.41,0-0.37-0.6a11.35,11.35,0,0,1,1.91-1.34c1.4-1.19,2.69-3,4.27-3.9,1.77-1,5.48-.52,6.76-0.71-0.73-.78,2.28,0,1.38-0.09l-0.17.09a1.81,1.81,0,0,1,1.68.37c-0.36.12-.71,0.08-1.08,0.19,0.48,0.71,3-.23,3.81-0.15,0-.62-0.8-0.19-0.8-0.79a11.92,11.92,0,0,1,2.21-2.28c0.4-.25,3-1.27,3.45-0.68a4.43,4.43,0,0,1-.49,1.28,1.39,1.39,0,0,1,.56-0.1,1.59,1.59,0,0,0-.19.55,26.38,26.38,0,0,0,2.8-1.38c-0.19.17,1.24-3.37,2.15-1.21-0.13-.05-0.2,0-0.2.11-1.15-.87-1.42,2.08-1.41,2.09-1.77.82-2.64,2-4.14,3.19-0.59.46-1.74,0.72-2.16,1.1-2.37,2.11-.74,5.95-0.28,8.83,0.32-.14,2.45-2.37,1.59-2.48a3.35,3.35,0,0,1,1.5-.22c0.13-1.86,1.06-1,1.85-2.1,0.5-.67-0.32-1.67,1-2.3,0,0-.72.61-0.11,0.62-0.15,0,.67-3.2-0.5-2.22a0.71,0.71,0,0,0,0-.08c-1.23-.32,1.7-3.14,1.61-2.91a15.66,15.66,0,0,1,2.11-.82,1.42,1.42,0,0,0-.17.84,8.32,8.32,0,0,1,2.13-.94c0.56,0,1.54.91,1.8,0.82,0.56-.2,1.45-2.1,2.44-1.9-0.17-.15,3.81-1.61,4-1.84-0.47,0,0-.4.1-0.28,1.49,1.42,2.47.29,1.41-1.11,0,0.29-.26,0-0.33-0.1,0.4-.18.14-0.86-0.2-1.13-0.4.85-.73-0.57-0.73-0.57a4.57,4.57,0,0,0-1.24.24c0.7-.75-1.39-0.14-1.5-0.15a11.53,11.53,0,0,1,2.5-.3,0.93,0.93,0,0,0-.81-0.25c0.7-.36,1.56.67,2.42,0.52,1.91-.35.91-1.42,1.32-2.25,0.18,0.33.47-.24,0.51-0.3,0.12,0.54.32,0.17,0.58,0,0,0.24-.13.66-0.39,0.57,0.36,1.33,1.36.46,2.28,0.75,0.54,0.17,2.32,2.63,3,1.53,0.24,0.84.43-.36,0.88,0.1-0.1-.1-0.66-0.51-0.66-0.52,0.17-.33,1.36-0.22.4-0.65q0.63,0,.23-0.31l0.06-.07a1.1,1.1,0,0,0-.41-0.28c0.45-.12,1.09.55,1.55,0.27a0.43,0.43,0,0,0-.3-0.44c-0.06,0,2,.17,1.58-0.54C339.85,58,340.17,58.36,340,58.09ZM158.59,83.39a0.48,0.48,0,0,1,.26.07A1.22,1.22,0,0,0,158.59,83.39Zm53.54,7.31c-0.13.1-.5-0.06-0.31,0.22-0.34,0-1.15,0-1.35-.38a1.24,1.24,0,0,0,.09,1.4c-0.25-.31.38,0,0.53,0.25a0.35,0.35,0,0,1-.35-0.07,0.35,0.35,0,0,0-.07.38c0.44-.65,1.42,3.09.49,2.61a1,1,0,0,0,.22-0.08c-1.56-.07-2.38.55-3.71-0.51-1-.79-0.7-0.85-0.81-1.73,0.49-.41,0-1.8,1.18-1.4-0.27-1.43-3.07-1.93-2.57-4a0.61,0.61,0,0,0-.17.38c-0.11-1-.7-0.64-0.43-1.51l0.08,0.07c0-.26.58-0.76,0.36-1a1.08,1.08,0,0,1,.16.11s1.44-.81,1.52-0.83,0-.18.11-0.14c-0.14-.39,2.4-0.81,2.86-0.57,1.15,0.6,0,1.06.76,1.83-0.22.07-3.23,0-1.56,0.92-0.18,0-1.18-.29-1.22.06a11.17,11.17,0,0,1,1.14,1.5,7.55,7.55,0,0,1,1,.52c0.27,0.52,0,1,.35,1.69-0.3-2,2-.44,1.76.34C212,90.81,212.22,90.36,212.13,90.71Z"/></svg>