<svg id="Layer_1" data-name="Layer 1" xmlns="http://www.w3.org/2000/svg" width="60" height="60" viewBox="0 0 60 60"><defs><style>.cls-1{fill:#00cd7f;}</style></defs><title>ico</title><path class="cls-1" d="M30,0C20.8,17.88,6.89,22.84,6.89,39S21.62,60,30,60s23.11-4.91,23.11-21S39.2,17.88,30,0Zm1.9,49.36v2.15a1.53,1.53,0,0,1-1.54,1.54,1.56,1.56,0,0,1-1.58-1.54V49.29a15.52,15.52,0,0,1-7.36-2.8,2,2,0,0,1-1-1.72,2,2,0,0,1,3.16-1.58,12.72,12.72,0,0,0,5.31,2.41V38.52c-5.24-1.36-7.68-3.34-7.68-7.4,0-3.84,3.05-6.5,7.54-6.86V23.51A1.56,1.56,0,0,1,30.36,22a1.53,1.53,0,0,1,1.54,1.54V24.3a13.08,13.08,0,0,1,5.56,2A1.92,1.92,0,0,1,38.54,28a2,2,0,0,1-2,2,2.08,2.08,0,0,1-1.08-.32,13,13,0,0,0-3.7-1.58V35c5.46,1.36,7.79,3.55,7.79,7.39S36.46,48.93,31.9,49.36Z"/><path class="cls-1" d="M25.48,30.87c0,1.51.68,2.44,3.45,3.34V27.86C26.63,28.07,25.48,29.29,25.48,30.87Z"/><path class="cls-1" d="M31.76,39.2v6.53c2.3-.25,3.55-1.4,3.55-3.12S34.52,40.06,31.76,39.2Z"/></svg>