<?xml version="1.0" encoding="utf-8"?>
<!-- Generator: Adobe Illustrator 19.1.1, SVG Export Plug-In . SVG Version: 6.00 Build 0)  -->
<svg version="1.1" id="Layer_1" xmlns="http://www.w3.org/2000/svg" xmlns:xlink="http://www.w3.org/1999/xlink" x="0px" y="0px"
	 viewBox="0 0 100 100" enable-background="new 0 0 100 100" xml:space="preserve">
<g>
	<path fill="#8BB762" d="M41.2,68.6c-1.8,0-3.7,0.1-5.5,0.3c-5.4,0.7-10.8,2.5-15.2,5.8c-2.6,2-4.8,4.6-6.3,7.5
		c-0.3,0.5-0.5,1.3-0.9,1.7c8,8.6,18.9,14.4,31.2,15.7c0,0,0,0,0,0c0.5-4.2,0.4-8.4,0-12.6C43.9,80.9,42.8,74.7,41.2,68.6z M99,51.8
		c-2-0.3-4.1-0.5-6.1-0.7c-3.7-0.3-7.4-0.3-11.1,0c-7.2,0.6-14.2,2.3-20.9,5.1c-6.2,2.6-12.1,6.3-17,11c0.4,0.3,0.9,0.6,1.3,1
		c2.9,2.6,5,6,6.6,9.5c1.3,3,2.3,6.1,3.1,9.2c0.5,2,0.9,4,1.3,6c0.2,1.1,0.4,2.3,0.5,3.4c0.1,0.6,0.2,1.2,0.2,1.9
		c0,0.4,0.2,0.9,0.2,1.3c23.7-3.4,42-23.3,42.9-47.6C99.7,51.9,99.3,51.8,99,51.8z"/>
	<path fill="#616DA5" d="M9.3,62.9c-2.2,0.7-4.2,1.6-6.1,2.8C3,65.8,2.8,65.9,2.6,66c0.5,1.3,1,2.7,1.5,4c0.1-0.1,0.2-0.2,0.3-0.3
		c0.7-0.7,1.4-1.4,2.2-2c6.1-4.6,14.3-5.3,21.7-4.5C22.2,61.5,15.5,61,9.3,62.9z M19.6,43.8c-2.5-1.5-5.2-2.9-7.9-3.9
		c-2.1-0.8-4.3-1.5-6.6-1.9c-0.6-0.1-1.2-0.2-1.8-0.3c-0.5-0.1-1.1-0.1-1.6-0.2c-0.5,1.9-0.9,3.8-1.1,5.8c2.3-0.4,4.6-0.7,7-0.7
		C11.5,42.3,15.6,42.7,19.6,43.8z M10.7,19c1,0.1,1.9,0.2,2.9,0.3c2.1,0.3,4.3,0.7,6.3,1.3c3.8,1.2,7.5,3,10.6,5.5
		c3.4,2.8,6.1,6.3,8,10.1c0.2-0.9,0.5-1.9,0.8-2.8c1.9-6.4,5.2-12.3,9.4-17.5c2.6-3.2,5.5-6.1,8.6-8.8c1.8-1.5,3.6-2.9,5.5-4.3
		c0.5-0.3,0.9-0.6,1.4-1C59.7,0.7,54.9,0,50,0C34.1,0,19.9,7.4,10.7,19z M80,10c0,0.2-0.1,0.3-0.1,0.5c-0.1,0.4-0.2,0.9-0.3,1.3
		c-0.2,1-0.4,1.9-0.7,2.8c-1.3,4.5-3.2,8.7-5.4,12.8c3.7-0.8,7.5-1,11.3-0.9c2.1,0.1,4.1,0.3,6.2,0.7c1.1,0.2,2.2,0.4,3.3,0.6
		c0.2,0,0.4,0.1,0.6,0.1C91.4,20.8,86.3,14.7,80,10z"/>
	<path fill="#637E53" d="M35.9,58.1c-1-1.3-2-2.6-3.1-3.7c-0.6-0.6-1.2-1.2-1.9-1.8c-0.7-0.6-1.5-1.1-2.1-1.7
		c-0.7-0.5-1.5-1.1-2.3-1.5c-7.2-4.3-15.8-5.1-23.9-4c-0.6,0.1-1.2,0.2-1.8,0.3c-0.2,0-0.3,0-0.5,0C0.1,47,0,48.5,0,50
		c0,4.7,0.7,9.3,1.9,13.7c0.3-0.2,0.7-0.4,0.9-0.5c0.1,0,0.1-0.1,0.2-0.1c-2.1-5.5-1-11.7-1-11.7S2.4,58,5.5,61.8
		c2.1-0.9,4.3-1.6,6.5-2c-2.3-6.4-0.5-10.7-0.5-10.7s0.5,5.3,3.4,10.3c3.5-0.3,7.1-0.1,10.6,0.6c0.5-5.3,1.9-6.8,1.9-6.8
		S27,56,27.9,60.5c4.1,1,8.1,2.5,11.9,4.4c0-0.1,0-0.1-0.1-0.2C38.7,62.4,37.4,60.1,35.9,58.1z M18,65.7c-3.5,0.5-6.9,1.7-9.8,3.8
		c-0.7,0.5-1.4,1.1-2,1.8c-0.3,0.3-0.6,0.7-1,0.9c1.8,3.6,4,6.9,6.5,9.9c0.7-1.5,1.6-3,2.6-4.4c0.1-0.1,0.2-0.3,0.3-0.4
		c-2-2.9-3.1-7.2-3.1-7.2s1.9,3.4,4.5,5.6c1.6-1.7,3.4-3.2,5.4-4.4c-0.4-1.7-0.3-3.4-0.3-3.4s0.2,1.5,1.2,2.9
		c0.7-0.4,1.4-0.8,2.1-1.1c-0.8-2.1-0.5-3.6-0.5-3.6s0.4,1.5,1.5,3.2c3-1.3,6.2-2.1,9.4-2.6C29.3,65.5,23.6,64.9,18,65.7z M4.2,35.4
		c0.5,0.1,1.1,0.2,1.6,0.3c1.5-3.3,4.1-8.1,7.7-11.6c-2.7,3.5-3.8,8.9-4.3,12.5c1.4,0.4,2.8,0.9,4.2,1.5c2,0.8,4,1.8,5.9,2.9
		c1.5-2.4,3.9-4.2,7.5-7.1c-3.3,3.4-4.7,5.7-4.8,8.7c1.4,0.9,2.7,1.8,4,2.8c1.2-1.5,3.6-4.3,8.5-7.9c-3.8,3.8-5.6,7.8-6.2,9.8
		c0.7,0.6,1.4,1.2,2,1.8c2.9,2.1,5.4,4.7,7.5,7.5c-0.9-5.4-0.9-10.9-0.1-16.2c-0.8-2-1.7-3.9-2.9-5.7c-1.8-2.8-4-5.3-6.7-7.3
		c-2.7-2-5.8-3.5-9-4.4c-1.7-0.5-3.5-0.9-5.3-1.2c-1-0.1-1.9-0.2-2.9-0.3c-0.6,0-1.3,0-1.8-0.2c-3,4.2-5.3,8.9-6.9,13.9
		c0.1,0,0.2,0,0.3,0C3.1,35.2,3.7,35.3,4.2,35.4z M100,49.5c-2.7-0.4-4.6-0.7-5.9-0.9c0,0.1,0,0.2,0,0.2C96,49,98,49.2,100,49.5
		C100,49.5,100,49.5,100,49.5z M94.1,48.6c2.2,0.3,5.2,0.8,5.9,0.9c-0.1-6.8-1.5-13.2-4-19.1c-0.2,0.1-0.5,0.1-0.7,0.1
		c-1.3-0.3-2.5-0.6-3.8-0.8c-2.3-0.4-4.7-0.7-7.1-0.8c-4.2-0.2-8.5,0.2-12.6,1.4c-0.2,0.2-0.5,0.2-0.7,0.2c-2.6,0.8-5.1,1.9-7.5,3.3
		c-2.1,1.2-3.9,2.9-5.4,4.8c-3.1,3.6-5.5,7.8-7.6,12c-2.1,4.1-3.9,8.3-5.6,12.6c3-2.5,6.3-4.7,9.7-6.5c0.6-0.3,1.3-0.7,1.9-1
		c-0.4-2.1-0.8-3.6-0.8-3.6s1.4,1,3,2.5c2-0.9,4.1-1.7,6.1-2.4c-0.2-6.8-2-11.5-2-11.5s3.9,3.5,5.3,10.5c1.7-0.5,3.4-0.9,5.1-1.2
		c2.7-0.5,5.5-0.9,8.2-1.1c1.7-4.2,1.9-8.1,1.9-8.1s0.6,3.7,0,8c2.2-0.1,4.4-0.1,6.6-0.1c1.2-6.4-0.6-14.7-0.6-14.7
		S94.3,41.7,94.1,48.6z M54.4,97.3c-0.3-2.2-0.6-4.4-1.1-6.6c-0.7-3.4-1.6-6.8-2.9-10.1c-1.5-3.7-3.4-7.4-6.4-10.2
		c1.7,6.9,2.9,14,3.1,21.1c0.1,2.2,0.1,4.5-0.1,6.7c0,0.6-0.1,1.1-0.2,1.7c0,0,0,0.1,0,0.1c1,0.1,2.1,0.1,3.1,0.1
		c1.6,0,3.2-0.1,4.7-0.2c0-0.2-0.1-0.5-0.1-0.7C54.6,98.4,54.5,97.8,54.4,97.3z M50.9,45c-1.1-0.7-1.8-1.3-1.8-1.3s0.8,0.4,2.1,0.8
		c2-3.3,4.2-6.6,7-9.3c3.3-3.3,7.7-5.5,12.2-6.9c0.9-1.6,1.8-3.3,2.7-5c-1.8-2.4-5.5-4.9-5.5-4.9s3.3,1.6,6.2,3.5
		c0.8-1.7,1.5-3.4,2.1-5.2c-2.6-2.5-6.2-4.8-6.2-4.8s4,0.8,6.7,3.3c0.5-1.4,0.8-2.9,1.1-4.4c0.1-0.4,0.2-0.9,0.2-1.3
		c0-0.3,0.1-0.6,0.2-0.8c-3.4-2.3-7.2-4.2-11.1-5.6c0,0.1-0.1,0.2-0.2,0.3c-0.3,0.4-0.9,0.7-1.3,1c-0.4,0.3-0.9,0.6-1.3,0.9
		c-0.9,0.6-1.8,1.3-2.7,2c-1.7,1.3-3.3,2.6-4.8,4.1c1.7,0.5,2.6,1.2,2.6,1.2s-1.4-0.2-3.9,0.2c-2,2-3.9,4-5.6,6.2
		c4.5,1,6.6,3.5,6.6,3.5s-2.7-2.2-7.9-1.7c-3.2,4.5-5.6,9.6-7,14.9c3.4-0.1,5.4,1.1,5.4,1.1s-2.4-0.4-5.9,1.1
		c-0.2,0.9-0.4,1.8-0.5,2.7c-0.3,2.4-0.6,4.9-0.6,7.3c0,2.2,0.1,4.4,0.4,6.6c0.4,3.3,1.1,6.5,2.1,9.7c0,0,0,0,0,0
		c2.2-6,4.8-11.9,8-17.5C50.3,46,50.6,45.5,50.9,45z"/>
</g>
</svg>
