<svg id="Layer_1" data-name="Layer 1" xmlns="http://www.w3.org/2000/svg" width="74.99" height="90" viewBox="0 0 74.99 90"><defs><style>.cls-1{fill:#01579b;}.cls-2{fill:#fff;}.cls-3{fill:#00c853;}</style></defs><title>hoyosgarces_signatures</title><path class="cls-1" d="M37.49,89.13C15.24,89.13.87,71.81,0.87,45S15.24,0.87,37.49.87,74.12,18.19,74.12,45,59.75,89.13,37.49,89.13Z"/><path class="cls-2" d="M37.49,1.73C61.39,1.73,73.26,21.1,73.26,45S61.39,88.27,37.49,88.27,1.73,68.9,1.73,45,13.6,1.73,37.49,1.73m0-1.73C25.68,0,15.92,4.62,9.27,13.36,3.21,21.34,0,32.28,0,45S3.21,68.66,9.27,76.64C15.92,85.38,25.68,90,37.49,90s21.58-4.62,28.22-13.36C71.78,68.66,75,57.72,75,45s-3.21-23.66-9.27-31.64C59.07,4.62,49.31,0,37.49,0h0Z"/><path class="cls-3" d="M3.81,43.31c0.56-.28,1.13-0.54,1.72-0.77A11.1,11.1,0,0,1,5.8,39.9a6.22,6.22,0,0,0,.49,2.35q0.88-.31,1.78-0.54a6.32,6.32,0,0,1,.1-2.87,8.76,8.76,0,0,0,.72,2.67,29.13,29.13,0,0,1,7.54-.67,36.53,36.53,0,0,0-12.2-3C4,39.59,3.87,41.42,3.81,43.31Zm66.94-5.63a47.27,47.27,0,0,0-5.17-17.07L65,20.38a43.33,43.33,0,0,0-5.33-1.61,30.45,30.45,0,0,0-9.86-.7,0.88,0.88,0,0,1-.57.07A27.26,27.26,0,0,0,43,19.67a17.06,17.06,0,0,0-4.84,2.93,48.62,48.62,0,0,0-7.5,8.11,103.54,103.54,0,0,0-6,8.85A46.59,46.59,0,0,1,33,35.9c0.54-.18,1.08-0.34,1.63-0.5,0-1.64-.11-2.84-0.11-2.84a25.45,25.45,0,0,1,2,2.33c1.66-.42,3.34-0.74,5-1a30.78,30.78,0,0,0,.1-9.08,15.73,15.73,0,0,1,2.63,8.75q2-.19,4.09-0.23a55.5,55.5,0,0,1,6.45.27,20.29,20.29,0,0,0,2.55-6,21.85,21.85,0,0,1-1.1,6.11q2.54,0.32,5.05.86c1.8-4.72,1.55-11.39,1.55-11.39s2.59,6.67,1.47,11.93C65.45,35.57,68.62,36.83,70.75,37.68ZM12.64,23.3a34.64,34.64,0,0,1,7.61-4.91A20,20,0,0,0,14.13,25q0.66,0.81,1.29,1.65A27.53,27.53,0,0,1,20.1,33.5,41.5,41.5,0,0,1,22.29,21a26.51,26.51,0,0,0-1.43-4.77,21.69,21.69,0,0,0-3.28-5.53,29.81,29.81,0,0,0-5,5.05l2.29-1.23c-3,2.15-4.37,3.69-4.91,6Q11.35,21.87,12.64,23.3Zm5.82,11.11a26.66,26.66,0,0,0-1.88-3.3q-0.57-.85-1.21-1.66c-0.44-.56-1-1.05-1.4-1.62s-1-1-1.56-1.5a23.09,23.09,0,0,0-4.35-3A46.38,46.38,0,0,0,5,33a32.08,32.08,0,0,1,5.21,1.49c1.12-4,2.4-4.92,2.4-4.92a17.07,17.07,0,0,0-.6,5.66,44,44,0,0,1,8.49,5l0-.16A28.68,28.68,0,0,0,18.46,34.41Zm13.27-8c-0.74-.71-1.19-1.22-1.19-1.22s0.56,0.38,1.47.89a36.39,36.39,0,0,1,6.63-6.2A23,23,0,0,1,49,16.31c0.94-1.13,1.86-2.3,2.74-3.5a23.08,23.08,0,0,0-3.5-4.55,50.9,50.9,0,0,1,4.25,3.51c0.7-1,1.36-2,2-3.08A32.44,32.44,0,0,0,37.49,4.29l-1,0C35.75,4.89,35,5.48,34.37,6.1A9.53,9.53,0,0,1,38.9,9.72s-1.78-2.1-5.84-2.38a37.55,37.55,0,0,0-7.44,10.44,8,8,0,0,1,4,1.61,9.62,9.62,0,0,0-4.71,0q-0.41,1-.76,2a48.13,48.13,0,0,0-1.46,5.55,41.47,41.47,0,0,0-.34,12.85h0a97.49,97.49,0,0,1,8.55-12.32Z"/><path class="cls-2" d="M22.65,82l1.54-3.28a0.34,0.34,0,0,1,.45-0.16h0l0.77,0.36a1.17,1.17,0,0,1,0,2.08,1.31,1.31,0,0,1-1.66,1.9l-1-.46a0,0,0,0,1,0,0h0A0.34,0.34,0,0,1,22.65,82Zm0.76,0,0.69,0.33a0.63,0.63,0,0,0,.54-1.15L24,80.82Zm0.83-1.77,0.48,0.22a0.49,0.49,0,0,0,.65-0.24,0.48,0.48,0,0,0-.23-0.65l-0.48-.22Z"/><path class="cls-2" d="M29.78,83.37l-0.32,1.16a0.33,0.33,0,0,1-.4.23,0.33,0.33,0,0,1-.24-0.34,1.39,1.39,0,0,1-.86,0,1.43,1.43,0,0,1-.88-0.71A1.57,1.57,0,0,1,27,82.58a1.55,1.55,0,0,1,.69-0.93,1.39,1.39,0,0,1,1.84.32,0.33,0.33,0,0,1,.38-0.17,0.33,0.33,0,0,1,.22.41Zm-0.63-.18a0.9,0.9,0,0,0-.06-0.67,0.76,0.76,0,0,0-.48-0.4,0.74,0.74,0,0,0-.62.09,0.9,0.9,0,0,0-.39.54,0.92,0.92,0,0,0,.05.67,0.77,0.77,0,0,0,.48.38,0.79,0.79,0,0,0,.61-0.08A0.92,0.92,0,0,0,29.16,83.19Z"/><path class="cls-2" d="M34.4,83.82l-0.18,1.45a0.32,0.32,0,0,1-.36.28,0.33,0.33,0,0,1-.28-0.36l0.18-1.46A0.63,0.63,0,0,0,33.2,83a0.61,0.61,0,0,0-.68.54L32.34,85a0.12,0.12,0,0,1,0,.06,0.34,0.34,0,0,1-.36.22A0.32,0.32,0,0,1,31.68,85l0.18-1.46L32,82.56a0.32,0.32,0,0,1,.36-0.28,0.33,0.33,0,0,1,.28.23,1.23,1.23,0,0,1,.67-0.11A1.28,1.28,0,0,1,34.4,83.82Z"/><path class="cls-2" d="M39.08,84.18v1.2a0.33,0.33,0,0,1-.32.33,0.33,0.33,0,0,1-.32-0.26,1.39,1.39,0,0,1-.81.27,1.42,1.42,0,0,1-1-.44,1.57,1.57,0,0,1-.43-1.07,1.55,1.55,0,0,1,.41-1.08,1.39,1.39,0,0,1,1.86-.21,0.33,0.33,0,0,1,.32-0.27,0.33,0.33,0,0,1,.33.33v1.21Zm-0.65,0a0.9,0.9,0,0,0-.24-0.63,0.76,0.76,0,0,0-.57-0.25,0.74,0.74,0,0,0-.57.26,0.9,0.9,0,0,0-.23.63,0.92,0.92,0,0,0,.24.63,0.77,0.77,0,0,0,.57.23,0.79,0.79,0,0,0,.57-0.24A0.92,0.92,0,0,0,38.43,84.18Z"/><path class="cls-2" d="M43.63,83.42l0.21,1.45a0.32,0.32,0,0,1-.27.37A0.33,0.33,0,0,1,43.2,85L43,83.5A0.63,0.63,0,0,0,42.27,83a0.61,0.61,0,0,0-.52.7L42,85.13a0.11,0.11,0,0,1,0,.06,0.34,0.34,0,0,1-.28.31,0.32,0.32,0,0,1-.37-0.28L41.1,83.77,41,82.83a0.32,0.32,0,0,1,.28-0.37,0.33,0.33,0,0,1,.32.15,1.23,1.23,0,0,1,.62-0.28A1.28,1.28,0,0,1,43.63,83.42Z"/><path class="cls-2" d="M48.24,82.48l0.35,1.15a0.33,0.33,0,0,1-.22.41A0.33,0.33,0,0,1,48,83.87a1.39,1.39,0,0,1-.7.49,1.42,1.42,0,0,1-1.13-.13,1.57,1.57,0,0,1-.71-0.91,1.55,1.55,0,0,1,.09-1.15,1.41,1.41,0,0,1,.86-0.74,1.4,1.4,0,0,1,.86,0,0.33,0.33,0,0,1,.23-0.35,0.33,0.33,0,0,1,.41.22Zm-0.62.19a0.9,0.9,0,0,0-.41-0.53,0.76,0.76,0,0,0-.62-0.08,0.74,0.74,0,0,0-.47.41,0.9,0.9,0,0,0,0,.67,0.92,0.92,0,0,0,.41.54,0.77,0.77,0,0,0,.62.06,0.79,0.79,0,0,0,.48-0.39A0.92,0.92,0,0,0,47.62,82.67Z"/><path class="cls-2" d="M50.37,82.33a0.32,0.32,0,0,1,.39-0.24A1.12,1.12,0,0,0,51.48,82a0.82,0.82,0,0,0,.32-0.29,0.25,0.25,0,0,0,0-.21,0.09,0.09,0,0,0,0,0,0.18,0.18,0,0,0-.1,0,1.43,1.43,0,0,0-.52.06h0a2.36,2.36,0,0,1-.55.09,1,1,0,0,1-.54-0.14,0.74,0.74,0,0,1-.26-0.3,0.86,0.86,0,0,1,0-.77,1.32,1.32,0,0,1,.58-0.53,1.58,1.58,0,0,1,1-.1,0.34,0.34,0,0,1,.29.37,0.32,0.32,0,0,1-.37.28,1,1,0,0,0-.61,0,0.63,0.63,0,0,0-.28.26,0.19,0.19,0,0,0,0,.17,0.07,0.07,0,0,0,0,0,0.17,0.17,0,0,0,.09,0A1.25,1.25,0,0,0,51,80.89h0a2.2,2.2,0,0,1,.59-0.09,1,1,0,0,1,.55.14,0.79,0.79,0,0,1,.28.31,0.89,0.89,0,0,1,0,.81,1.39,1.39,0,0,1-.61.57,1.78,1.78,0,0,1-1.17.1A0.33,0.33,0,0,1,50.37,82.33Z"/><path class="cls-2" d="M13.93,50.25h1.29l0-7.77H13.9V41l4.57,0v1.5h-1.3v3.1l4.89,0v-3.1h-1.3V41l4.57,0v1.5H24l0,7.77h1.29v1.48l-4.57,0V50.22h1.3V47.14l-4.89,0v3.07h1.3v1.48l-4.57,0V50.25Z"/><path class="cls-2" d="M30.85,43.75a4,4,0,1,1,0,8.09A4,4,0,1,1,30.85,43.75Zm0,6.45a2.41,2.41,0,1,0-2.31-2.4A2.29,2.29,0,0,0,30.89,50.21Z"/><path class="cls-2" d="M36.57,52.88a1.7,1.7,0,0,0,.32.18,1.86,1.86,0,0,0,.85.18,1.44,1.44,0,0,0,1.36-.9l0.21-.49-2.68-6.5H35.7V43.92l3.8,0v1.44H38.6L40,49.24a4.12,4.12,0,0,1,.14.54,1.7,1.7,0,0,1,0,.26h0l0-.26a4.41,4.41,0,0,1,.16-0.55l1.38-3.91H40.93V43.89l3.65,0v1.44H43.7l-2.82,7.3a3.11,3.11,0,0,1-3,2.19,3.69,3.69,0,0,1-1.36-.25A2.35,2.35,0,0,1,36,54.29Z"/><path class="cls-2" d="M49.48,43.68a4,4,0,1,1-4.22,4.06A4.06,4.06,0,0,1,49.48,43.68Zm0,6.45a2.41,2.41,0,1,0-2.31-2.4A2.29,2.29,0,0,0,49.52,50.13Z"/><path class="cls-2" d="M54.8,49h1.64v0.45c0,0.53.72,0.8,1.52,0.8s1.32-.26,1.31-0.79-0.73-.83-1.76-1.19-2.44-.9-2.45-2.38c0-1.64,1.64-2.22,3-2.22,1.12,0,2.79.43,2.79,1.59v1H59.24V45.79c0-.41-0.46-0.63-1.14-0.63a0.92,0.92,0,0,0-1.12.7c0,0.64.76,0.91,1.63,1.14,1.18,0.36,2.58.85,2.58,2.37s-1.47,2.35-3.25,2.36c-1.39,0-3.14-.59-3.14-1.85V49Z"/><path class="cls-2" d="M19.21,52.86c1.82,0,4,.68,4,2v1.4H21.5V55.51c0-.7-1.11-1.05-2.2-1.05A3.28,3.28,0,0,0,15.81,58a3.47,3.47,0,0,0,3.61,3.75c0.82,0,2.33-.22,2.33-1.07V59.6H19.9v-1.4h3.55v3.06c0,1.55-2.71,2.1-4.21,2.11a5.16,5.16,0,0,1-5.38-5.27A5.08,5.08,0,0,1,19.21,52.86Z"/><path class="cls-2" d="M28.76,58.64h0.46V58.4a1.17,1.17,0,0,0-1.35-1.25,3.51,3.51,0,0,0-1.43.35,3.81,3.81,0,0,0-.63.36L25.13,56.6a3.8,3.8,0,0,1,.79-0.46,5.12,5.12,0,0,1,2.1-.45c2,0,3,1,3,2.87v2.92a0.27,0.27,0,0,0,.32.31H32v1.36H30.31a0.78,0.78,0,0,1-.93-0.77V62.29a1.32,1.32,0,0,1,0-.27,0.28,0.28,0,0,0,0-.1h0a2.69,2.69,0,0,1-.51.7,2.5,2.5,0,0,1-1.79.71,2.21,2.21,0,0,1-2.43-2.21C24.65,58.89,27.59,58.65,28.76,58.64ZM27.56,62a1.93,1.93,0,0,0,1.68-2V59.74h-0.3c-0.73,0-2.45.12-2.44,1.23A1,1,0,0,0,27.56,62Z"/><path class="cls-2" d="M33,61.78h1.06l0-4.27a0.27,0.27,0,0,0-.32-0.31H32.92V55.83h1.9a0.83,0.83,0,0,1,1,.88v0.43a2.34,2.34,0,0,1,0,.33,0.39,0.39,0,0,0,0,.13h0a2.51,2.51,0,0,1,2.31-1.89,1,1,0,0,1,.23,0h0.1v1.79H38c-1.47,0-2.13,1.3-2.12,2.67v1.59h1v1.36l-3.92,0V61.78Z"/><path class="cls-2" d="M43.11,55.62c1.22,0,3,.45,3,1.73v1H44.54V57.88c0-.5-0.75-0.71-1.36-0.71A2.06,2.06,0,0,0,41,59.42a2.19,2.19,0,0,0,2.3,2.31,3.83,3.83,0,0,0,2.27-.9l0.65,1.29a4.61,4.61,0,0,1-3,1.14A3.83,3.83,0,1,1,43.11,55.62Z"/><path class="cls-2" d="M50.89,55.59A3.17,3.17,0,0,1,54.16,59a3.78,3.78,0,0,1,0,.39l0,0.23-5.05,0a2.11,2.11,0,0,0,2.2,2,3.06,3.06,0,0,0,1.5-.39,3.73,3.73,0,0,0,.61-0.39l0.71,1.29a4.14,4.14,0,0,1-.79.5,4.62,4.62,0,0,1-2.16.52,3.75,3.75,0,0,1-3.94-3.81A3.6,3.6,0,0,1,50.89,55.59Zm1.39,3A1.46,1.46,0,0,0,50.86,57,1.77,1.77,0,0,0,49.1,58.6h3.18Z"/><path class="cls-2" d="M55.2,60.61h1.55V61c0,0.5.68,0.76,1.43,0.75s1.24-.25,1.24-0.75-0.69-.78-1.67-1.12-2.31-.85-2.31-2.25,1.55-2.1,2.87-2.1c1.06,0,2.64.4,2.64,1.51V58H59.39V57.58c0-.39-0.43-0.6-1.08-0.6a0.87,0.87,0,0,0-1.06.66c0,0.6.72,0.86,1.54,1.08,1.12,0.34,2.44.81,2.44,2.24s-1.39,2.23-3.07,2.23c-1.32,0-3-.56-3-1.75V60.61Z"/><path class="cls-2" d="M24.58,68.68a2.63,2.63,0,0,1,0,3.62,2.34,2.34,0,0,1-1.71.77,2.42,2.42,0,0,1-1.75-.77,2.67,2.67,0,0,1,0-3.62,2.39,2.39,0,0,1,1.75-.77A2.32,2.32,0,0,1,24.58,68.68Zm-0.09,1.81A1.85,1.85,0,0,0,24,69.24a1.54,1.54,0,0,0-2.29,0,1.82,1.82,0,0,0-.49,1.25,1.79,1.79,0,0,0,.49,1.25,1.53,1.53,0,0,0,2.29,0A1.82,1.82,0,0,0,24.49,70.49Z"/><path class="cls-2" d="M29.91,69.87a0.38,0.38,0,0,1-.38.38,0.69,0.69,0,0,0-.43.14,1.08,1.08,0,0,0-.33.34,2.2,2.2,0,0,0-.29.6v1.36a0.39,0.39,0,0,1-.39.38,0.38,0.38,0,0,1-.38-0.38V69.87a0.38,0.38,0,0,1,.38-0.37,0.38,0.38,0,0,1,.39.37v0a1,1,0,0,1,.15-0.14,1.57,1.57,0,0,1,.9-0.28A0.37,0.37,0,0,1,29.91,69.87Z"/><path class="cls-2" d="M35.12,71.3v1.33a1.72,1.72,0,0,1-1.72,1.72,1.66,1.66,0,0,1-.75-0.18,0.38,0.38,0,0,1-.17-0.52A0.39,0.39,0,0,1,33,73.48a0.86,0.86,0,0,0,.41.1,1,1,0,0,0,.94-0.77,1.65,1.65,0,0,1-2.15-.26,1.79,1.79,0,0,1-.5-1.26,1.88,1.88,0,0,1,.5-1.27,1.69,1.69,0,0,1,1.22-.53,1.63,1.63,0,0,1,1,.3,0.39,0.39,0,0,1,.38-0.3,0.38,0.38,0,0,1,.38.38v1.42h0Zm-0.77,0a1.11,1.11,0,0,0-.27-0.73,0.89,0.89,0,0,0-.68-0.31,0.86,0.86,0,0,0-.66.31,1.05,1.05,0,0,0-.29.73,1,1,0,0,0,.29.74,0.87,0.87,0,0,0,.66.29A0.9,0.9,0,0,0,34.08,72,1.09,1.09,0,0,0,34.35,71.29Z"/><path class="cls-2" d="M40.74,71.29v1.4a0.38,0.38,0,0,1-.38.38A0.39,0.39,0,0,1,40,72.76a1.62,1.62,0,0,1-1,.31,1.66,1.66,0,0,1-1.22-.52,1.83,1.83,0,0,1-.49-1.26A1.81,1.81,0,0,1,37.82,70,1.63,1.63,0,0,1,40,69.81a0.39,0.39,0,0,1,.37-0.31,0.38,0.38,0,0,1,.38.39v1.41Zm-0.76,0a1.05,1.05,0,0,0-.28-0.74A0.88,0.88,0,0,0,39,70.26a0.86,0.86,0,0,0-.67.29,1,1,0,0,0-.27.74,1.07,1.07,0,0,0,.27.74,0.9,0.9,0,0,0,.67.28A0.92,0.92,0,0,0,39.7,72,1.08,1.08,0,0,0,40,71.29Z"/><path class="cls-2" d="M46.13,71v1.71a0.38,0.38,0,0,1-.37.38,0.39,0.39,0,0,1-.38-0.38V71a0.73,0.73,0,0,0-.74-0.72,0.71,0.71,0,0,0-.72.72v1.71a0.14,0.14,0,0,1,0,.07,0.39,0.39,0,0,1-.38.31,0.38,0.38,0,0,1-.38-0.38V69.87a0.38,0.38,0,0,1,.38-0.38,0.39,0.39,0,0,1,.35.22,1.43,1.43,0,0,1,.76-0.22A1.5,1.5,0,0,1,46.13,71Z"/><path class="cls-2" d="M49.38,68.6A0.39,0.39,0,0,1,49,69a0.39,0.39,0,0,1-.39-0.39V68.45A0.38,0.38,0,0,1,49,68.06a0.38,0.38,0,0,1,.39.39V68.6Zm0,1.3v2.79a0.38,0.38,0,0,1-.39.39,0.38,0.38,0,0,1-.39-0.39V69.89A0.38,0.38,0,0,1,49,69.5,0.38,0.38,0,0,1,49.38,69.89Z"/><path class="cls-2" d="M51.43,71.29a1.82,1.82,0,0,1,1.82-1.8,1.89,1.89,0,0,1,1.14.39,0.39,0.39,0,0,1,.08.53,0.38,0.38,0,0,1-.54.07,1.14,1.14,0,0,0-.68-0.23,1,1,0,1,0,0,2.05,1.16,1.16,0,0,0,.68-0.23,0.39,0.39,0,0,1,.54.08,0.39,0.39,0,0,1-.08.53,2,2,0,0,1-1.14.38A1.81,1.81,0,0,1,51.43,71.29Z"/><path class="cls-2" d="M51.41,52.92h2l-1.93,1.95H49.87Z"/></svg>