<svg xmlns="http://www.w3.org/2000/svg" width="342" height="212" viewBox="0 0 342 212"><defs><style>.a{fill:gray;}</style></defs><title>pipeline</title><path class="a" d="M106.23,111c0-2.35-1.64-4.27-5.38-3.78s-8,3.95-8,7c0,1.64.87,2.1,2.44,1.89a2.9,2.9,0,0,1-.32-1.51c0-3.46,2.21-5.83,5.9-6.31,2-.26,2.82,1,2.82,2.73,0,2.41-1.71,5.65-4,6.13l1.62-7.82-3.37.9-3.1,14.9,3.28-.43L99.53,118h0.11A7.49,7.49,0,0,0,106.23,111Z"/><path class="a" d="M107.46,112.06l-2.41,11.71,3.28-.43,1.89-9.18a2.44,2.44,0,0,1,1.57-.94c0.68-.09,0,1.5,1.32,1.33a2,2,0,0,0,1.71-2,1.26,1.26,0,0,0-1.64-1.24,5.29,5.29,0,0,0-2.69,1.49l0.25-1.17Z"/><path class="a" d="M145.54,104a1.57,1.57,0,0,0-1.82-1.58,2.13,2.13,0,0,0-1.8,2.06,1.53,1.53,0,0,0,1.8,1.56A2.13,2.13,0,0,0,145.54,104Z"/><path class="a" d="M169.3,111.64a5.78,5.78,0,0,0-.14,1.18c0,1.71.84,2.37,2.32,2.18,0.77-.1,1.73-0.37,2.37-2.41a2,2,0,0,1-.59.15c-0.66.09-.84-0.21-0.84-0.6s1-4.64,1.09-5.41a4.19,4.19,0,0,0,0-.53,2.49,2.49,0,0,0-2.62-2.53,7,7,0,0,0-3.3,1.89,2.37,2.37,0,0,0-2.23-1.16,6.26,6.26,0,0,0-2.94,1.6l0.25-1.24-3.28.43-1.87,9.07a2.61,2.61,0,0,1-1.18.65c-0.91.12-1.14-.21-1.14-0.72a4.52,4.52,0,0,1,.09-0.72l1.64-8-3.28.43-1.64,8a5.7,5.7,0,0,0-.14.77,3.57,3.57,0,0,1-1.62,1c-0.91.12-1.14-.21-1.14-0.72a4.52,4.52,0,0,1,.09-0.72l1.64-8-3.28.43-1.64,8a6,6,0,0,0-.08.67,3.78,3.78,0,0,1-1.72,1.14c-0.91.12-1.14-.21-1.14-0.72a4.48,4.48,0,0,1,.09-0.72l1.64-8-3.28.43-1.64,8a6,6,0,0,0-.13,1.15,2.17,2.17,0,0,1-1.19.8,0.71,0.71,0,0,1-.93-0.81,3.76,3.76,0,0,1,.11-0.86l0.93-4.47a4.18,4.18,0,0,0,0-.53,2.49,2.49,0,0,0-2.62-2.53,6.86,6.86,0,0,0-3.33,1.94,2.4,2.4,0,0,0-2.26-1.21,6.26,6.26,0,0,0-2.94,1.6l0.25-1.24-3.28.43-1.43,6.93h0c-0.8,1.79-2.71,3.36-3.83,3.51a1.52,1.52,0,0,1-1.87-1.71,8.34,8.34,0,0,1,.07-1c2.16-.56,5.15-2.55,5.15-5.33,0-1.59-1-2.23-2.92-2-4.15.55-5.38,5.79-5.38,8.68,0,2,1.19,3.47,3.37,3.18a7.83,7.83,0,0,0,5-3.26l-0.55,2.67,3.28-.43,2-9.46a2.55,2.55,0,0,1,1.39-.66,1,1,0,0,1,1,1.21,2.89,2.89,0,0,1-.07.6l-1.64,8,3.3-.44,1.69-8.22a3.57,3.57,0,0,0,0-.48,3,3,0,0,0-.11-0.78,2.63,2.63,0,0,1,1.32-.58,1,1,0,0,1,1,1.21,2.91,2.91,0,0,1-.07.6l-0.87,4.22a5.81,5.81,0,0,0-.14,1.18c0,1.71,1,2.34,2.82,2.11a5.25,5.25,0,0,0,2.72-2c0.32,1.08,1.3,1.47,2.73,1.28,1-.13,2.24-1.25,3.32-2.41,0.2,1.32,1.24,1.81,2.8,1.61,1-.13,2.21-1.2,3.28-2.35,0.21,1.29,1.25,1.75,2.8,1.54a5.41,5.41,0,0,0,2.53-1.61L157,116.91l3.28-.43,2-9.46a2.55,2.55,0,0,1,1.39-.66,1,1,0,0,1,1,1.21,2.88,2.88,0,0,1-.07.6l-1.64,8,3.3-.44,1.69-8.22a3.49,3.49,0,0,0,0-.48,3.22,3.22,0,0,0-.11-0.8,2.58,2.58,0,0,1,1.28-.56,1,1,0,0,1,1,1.21,2.89,2.89,0,0,1-.07.6Zm-48.9-.29c0.68-.09.8,0.69,0.8,1.17a4.34,4.34,0,0,1-3.6,3.92C118.08,114.23,119.13,111.52,120.41,111.35Z"/><path class="a" d="M184.23,98.83l-3.1,14.9,3.28-.43,1.39-6.68h0.11a7.49,7.49,0,0,0,6.58-7c0-2.35-1.64-4.27-5.38-3.78s-8,3.95-8,7c0,1.64.87,2.1,2.44,1.89a2.9,2.9,0,0,1-.32-1.51c0-3.46,2.21-5.83,5.9-6.31,2-.26,2.83,1,2.83,2.73,0,2.41-1.71,5.65-4,6.13l1.62-7.82Z"/><path class="a" d="M196.49,102.77a2.44,2.44,0,0,1,1.57-.94c0.68-.09,0,1.5,1.32,1.33a2,2,0,0,0,1.71-2,1.26,1.26,0,0,0-1.64-1.24,5.29,5.29,0,0,0-2.69,1.49l0.25-1.17-3.28.43-2.42,11.71,3.28-.43Z"/><path class="a" d="M248.55,89.83l-3.37.9L244.5,94l-0.75.1-0.18.94,0.75-.1-1.37,6.61a6.34,6.34,0,0,1-3.94,2.63c-1.39.18-1.66-.87-1.66-2.22,0-2.46,1.23-6.34,3.14-6.59a0.63,0.63,0,0,1,.84.66,2.71,2.71,0,0,1-.11.65,2.74,2.74,0,0,1,.73-0.23,1,1,0,0,1,.57.06,2.45,2.45,0,0,0,.11-0.77c0-1.25-1.28-1.4-2.51-1.24-4.42.58-5.86,5.17-5.86,8.5a6.74,6.74,0,0,0,.07,1,3,3,0,0,1-1.4.84c-0.91.12-1.14-.21-1.14-0.72a4.49,4.49,0,0,1,.09-0.72l1.64-8-3.28.43-1.64,8a5.65,5.65,0,0,0-.14.77,3.57,3.57,0,0,1-1.62,1c-0.91.12-1.14-.21-1.14-0.72a4.47,4.47,0,0,1,.09-0.72l1.64-8-3.28.43-1.64,8a6,6,0,0,0-.1.9,3.15,3.15,0,0,1-1.45.88c-0.89.12-1.14-.19-1.14-0.69A4.61,4.61,0,0,1,220,105l2.6-12.64-3.37.9-1,4.83a2.22,2.22,0,0,0-1.53-.37,5.91,5.91,0,0,0-4.4,2.94,4.55,4.55,0,0,1-2.07,1.22,0.81,0.81,0,0,1-.66-0.12c0-1.66-.59-3.27-2.76-3-3.14.41-6,3.2-6,8.81,0,2.71,1,3.6,3.49,3.28,2.28-.3,4.76-2.88,5.19-7.52a8.07,8.07,0,0,0,2.12-1.29,14.13,14.13,0,0,0-.89,5.07c0,1.34.64,2.81,2.83,2.52a4.7,4.7,0,0,0,3.1-2.28c0.3,1.15,1.28,1.56,2.76,1.37,0.93-.12,2.08-1.11,3.11-2.19,0.27,1.18,1.28,1.61,2.77,1.41,1-.13,2.21-1.2,3.28-2.35,0.21,1.29,1.25,1.75,2.8,1.54,1-.13,2.16-1.18,3.22-2.3a2.35,2.35,0,0,0,2.84,1.5,7.37,7.37,0,0,0,5.37-3.51c0,0.11,0,.24,0,0.35,0,1.41.68,2.37,2.28,2.16,0.77-.1,1.78-0.37,2.42-2.41a2,2,0,0,1-.59.15,0.62,0.62,0,0,1-.8-0.72,3.55,3.55,0,0,1,.11-0.81l1.46-7,1.37-.18,0.18-.94-1.37.18C248.21,91.43,248.55,89.83,248.55,89.83Zm-40.79,13.9c-0.27,2.25-1,4.53-2.44,4.72-0.89.12-1.53-.16-1.53-1.53,0-1.82.91-6.59,3.05-6.87,0.64-.08.89,0.32,1,1.06a2,2,0,0,0-1,1.73A0.8,0.8,0,0,0,207.77,103.74Zm8.91,1.65a5.71,5.71,0,0,0-.14.77,2.54,2.54,0,0,1-1.46,1.33c-0.57.07-1.32-.08-1.32-1.44,0-3.1,1.37-6.9,3.08-7.13a1.53,1.53,0,0,1,1.12.26Z"/><path class="a" d="M256,114.7l1.91-1.87,19.86-2.62-7-9.28,6.85-11-14.88,2V90.29l16-2.11,2.73-4.37-18.72,2.47V76.67l-1.82.24L248,78.62A81.68,81.68,0,0,0,89.61,99.52l-8.89,1.17-1.4.18v9.61L60.57,113l2.73,3.65,16-2.11v1.62l-14.91,2,6.85,9.17-7,11.14,21.95-2.9,3.16,1.21L63.1,140.16l-2.53,4,35.91-4.74a81.67,81.67,0,0,0,155.16-20.48h0L281.43,115l-2.53-3.33Zm-8.35-3.22a76.85,76.85,0,0,1-149.26,19.7l-17.48,2.31V102.29l13.44-1.77a76.85,76.85,0,0,1,149.26-19.7l17.48-2.31v31.21Z"/><path class="a" d="M189.54,63l-1.15.15a1.1,1.1,0,0,0-1.07,1.22V76.1a0.84,0.84,0,0,0,1.1.93l1.25-.17a1.05,1.05,0,0,0,1-1.2V63.9A0.84,0.84,0,0,0,189.54,63Z"/><path class="a" d="M179.75,64.27l-1.71.23V78.4l1.84-.24a0.93,0.93,0,0,0,1-.95V65.45Q180.84,64.12,179.75,64.27Z"/><path class="a" d="M170.36,65.5l-0.66.09a1.1,1.1,0,0,0-1.07,1.22v6.11l2.81-.37V66.44A0.83,0.83,0,0,0,170.36,65.5Z"/><path class="a" d="M154.31,135.73a0.83,0.83,0,0,0-1.07-.93l-0.66.09a1.1,1.1,0,0,0-1.07,1.22v6.11l2.81-.37v-6.11Z"/><path class="a" d="M198.84,61.75l-1.61.21v6.62l1.61-.21a1.26,1.26,0,0,0,1.1-1.47v-4Q199.94,61.6,198.84,61.75Z"/><path class="a" d="M191.58,130.81a0.83,0.83,0,0,0-1.07-.93l-0.66.09a1.1,1.1,0,0,0-1.07,1.22v6.11l2.81-.37v-6.11Z"/><path class="a" d="M172.94,133.27a0.83,0.83,0,0,0-1.07-.93l-0.66.09a1.1,1.1,0,0,0-1.07,1.22v6.11l2.81-.37v-6.11Z"/><path class="a" d="M144.9,140.1v-2.86q0-1.33-1.1-1.18l-1.46.19v5.52l1.15-.15A1.41,1.41,0,0,0,144.9,140.1Z"/><path class="a" d="M171,181.26a75.35,75.35,0,0,0,75-69.56L100,131A75.38,75.38,0,0,0,171,181.26Zm24.45-40.2,2.45-.32v1a0.84,0.84,0,0,0,1.1.93l0.44-.06a1.05,1.05,0,0,0,1-1.2v-3.12a0.81,0.81,0,0,0-.2-0.66,4.33,4.33,0,0,0-.66-0.37l-2.33-1a6.14,6.14,0,0,1-1.11-.54,1.3,1.3,0,0,1-.5-0.66,3.46,3.46,0,0,1-.15-1.14v-3.76q0-3.14,2.94-3.53l1.53-.2q2.94-.39,2.94,2.76V131l-2.45.32v-1.61a0.84,0.84,0,0,0-1.07-1l-0.38.05a1.1,1.1,0,0,0-1,1.24v3a0.81,0.81,0,0,0,.2.66,4.31,4.31,0,0,0,.66.37l2.33,0.95a9.07,9.07,0,0,1,1.09.53,1.43,1.43,0,0,1,.5.52,3.06,3.06,0,0,1,.18,1.29v3.91a3.11,3.11,0,0,1-3,3.48l-1.51.2q-2.94.39-2.94-3v-0.92Zm-9.15-9.71q0-3.14,2.94-3.53l1.84-.24q2.94-.39,2.94,2.76v15.21l-2.45.32v-6.72l-2.81.37v6.72l-2.45.32V131.36Zm0.19,25.49,3.89-.51-3.15,2.7,1.2,3.54-3.15-1.87-3.15,2.7,1.2-3.86-3.15-1.87,3.89-.51,1.2-3.86Zm-9.42-27.42,2.45-.32,2.63,8.52v-8.87l2.45-.32v18.36l-2.45.32v-3.66l-2.63-8v12l-2.45.32V129.43Zm-2.92,35L171,162.59l-3.15,2.7,1.2-3.86-3.15-1.87,3.89-.51,1.2-3.86,1.2,3.54,3.89-.51-3.15,2.7Zm-6.49-30.65q0-3.14,2.94-3.53l1.84-.24q2.94-.39,2.94,2.76V148l-2.45.32v-6.72l-2.81.37v6.72l-2.45.32V133.82Zm-9.23-1.93,2.46-.32,2.63,8.52v-8.87l2.45-.32v18.36l-2.45.32v-3.66l-2.63-8v12l-2.46.32V131.89Zm3.38,28.21-3.15,2.7,1.2,3.54-3.15-1.87-3.15,2.7,1.2-3.86-3.15-1.87,3.89-.51,1.2-3.86,1.2,3.54ZM149,136.28q0-3.14,2.94-3.53l1.84-.24q2.94-.39,2.94,2.76v15.21l-2.45.32v-6.72l-2.81.37v6.72l-2.45.32V136.28Zm-9.15-1.94,4.19-.55q3.27-.43,3.27,2.89v3.53a2.21,2.21,0,0,1-1.76,2.18v0.13q2,0.3,2,1.83v4.6a2.84,2.84,0,0,1-2.79,3.1l-4.93.65V134.34Z"/><path class="a" d="M145.16,149v-4.06q0-1.3-1.46-1.11l-1.35.18v6.16l1.84-.24A0.92,0.92,0,0,0,145.16,149Z"/><path class="a" d="M171,30.74A75.34,75.34,0,0,0,96,100.3L242,81A75.38,75.38,0,0,0,171,30.74ZM146.46,68.66l-3.63.48v5.57l3.22-.43v2.22l-3.22.43V83l3.63-.48v2.22l-6.08.8V67.24l6.08-.8v2.22Zm8.61,1.83-2.45.32V68.92a0.84,0.84,0,0,0-1.1-.93l-0.49.06a1.05,1.05,0,0,0-1,1.2V81a0.79,0.79,0,0,0,1,.95l0.61-.08a1.05,1.05,0,0,0,1-1.2v-1l2.45-.32v1.18q0,3.12-2.94,3.51l-1.58.21q-2.94.39-2.94-2.73V69.4q0-3.12,2.94-3.51l1.58-.21q2.94-.39,2.94,2.73v2.07Zm9.41,8.45q0,3.48-3,3.87l-2.07.27q-2.94.39-2.94-3.11V65.11l2.46-.32V79.72A0.88,0.88,0,0,0,160,80.77l1-.13a1.14,1.14,0,0,0,1-1.33V64.38l2.45-.32V78.93Zm9.41,2.24-2.45.32V74.77l-2.81.37v6.72l-2.45.32V67q0-3.14,2.94-3.53L171,63.2q2.94-.39,2.94,2.76V81.17Zm9.41-3.9q0,2.66-2.94,3l-4.78.63V62.59l4.27-.56q3.45-.46,3.45,3.07V77.27Zm9.79-1.75a3.13,3.13,0,0,1-3,3.51l-2.3.3q-3,.39-3-2.73V64.51q0-3.14,2.94-3.53l2.35-.31q2.94-.39,2.94,2.76V75.52Zm7.24,2.16-1.61-7.2-1.48.2v7.41l-2.45.32V60.06l4.81-.63q2.81-.37,2.81,2.77v4.52q0,2.4-1.46,3.23l1.71,7.42Z"/></svg>